<svg aria-hidden="true" style="position: absolute; width: 0; height: 0; overflow: hidden;" version="1.1" xmlns="http://www.w3.org/2000/svg" xmlns:xlink="http://www.w3.org/1999/xlink">
<defs>
<symbol id="icon-BACKGROUND_2properties" viewBox="0 0 30 32">
<path  d="M0.411 21.732h14.995v2.755h9.374v-2.749h3.724c0.241 3.277 0.26 6.194-3.101 8.418-0.041 0.027-0.074 0.064-0.165 0.145 0.413 0.343 0.821 0.683 1.224 1.018-0.544 0.521-0.982 0.939-1.483 1.419-0.442-0.456-0.921-0.986-1.442-1.468-0.153-0.142-0.424-0.2-0.647-0.214-0.363-0.022-0.732 0.037-1.098 0.038-4.869 0.003-9.738 0.002-14.608 0.002-0.233 0-0.482 0.045-0.698-0.020-0.65-0.195-1.062 0.106-1.448 0.572-0.329 0.396-0.705 0.754-1.048 1.116-0.463-0.487-0.883-0.928-1.347-1.417 0.311-0.275 0.707-0.626 1.151-1.020-0.306-0.219-0.535-0.371-0.753-0.539-1.627-1.254-2.507-2.917-2.622-4.96-0.057-1.012-0.010-2.030-0.010-3.095h0.001z"></path>
<path  d="M0.42 14.152c-0.008-0.181-0.022-0.344-0.022-0.507-0.001-2.652-0.004-5.303 0-7.955 0.004-2.914 2.027-4.948 4.937-4.927 0.977 0.007 1.984-0.013 2.922 0.208 1.665 0.393 2.714 1.548 3.221 3.176 0.098 0.316 0.225 0.469 0.572 0.563 1.96 0.531 3.335 2.363 3.36 4.407 0.004 0.329 0 0.659 0 1.016h-9.275c-0.442-2.339 0.829-4.753 3.486-5.506-0.24-1.044-1.268-1.925-2.347-1.963-0.816-0.029-1.634-0.032-2.45 0-1.406 0.055-2.537 1.346-2.543 2.894-0.010 2.668-0.003 5.337-0.003 8.006 0 0.182 0 0.364 0 0.588l-1.857 0.001z"></path>
<path  d="M15.38 19.859c-0.196 0-0.343 0-0.49 0-4.766 0-9.533 0.001-14.299-0.001-1.026 0-1.763-0.485-2.023-1.314-0.39-1.247 0.493-2.448 1.841-2.466 1.433-0.019 2.866-0.005 4.3-0.005 3.367 0 6.732 0 10.099 0 0.18 0 0.36 0 0.572 0v3.786z"></path>
<path  d="M22.893 22.661h-5.578c-0.009-0.176-0.024-0.336-0.024-0.496-0.002-1.933-0.002-3.866 0-5.799 0.001-1.398 0.765-2.167 2.157-2.173 0.516-0.002 1.033-0.013 1.549 0.003 1.16 0.037 1.918 0.817 1.921 1.98 0.006 2.017 0.002 4.032 0 6.049 0 0.131-0.014 0.261-0.025 0.436z"></path>
<path  d="M24.813 19.841v-3.768c0.907 0 1.801-0.003 2.693 0.001 0.465 0.002 0.941-0.036 1.396 0.039 0.994 0.164 1.64 0.978 1.599 1.928-0.040 0.932-0.728 1.731-1.703 1.782-1.309 0.069-2.624 0.017-3.984 0.017l-0.001 0.001z"></path>
</symbol>
<symbol id="icon-BACKGROUND_properties" viewBox="0 0 36 32">
<path  d="M17.799 28.373c-5.33 0-10.659 0-15.989 0-0.539 0-0.788 0.247-0.788 0.779 0 0.138 0.007 0.276-0.001 0.412-0.011 0.165-0.028 0.331-0.059 0.492-0.115 0.588-0.679 1.060-1.354 1.053-0.677-0.007-1.239-0.51-1.341-1.156-0.024-0.152-0.036-0.307-0.036-0.46-0.001-3.131-0.022-6.263 0.007-9.395 0.017-1.825 0.691-3.412 1.985-4.734 0.785-0.802 1.719-1.373 2.787-1.736 0.84-0.285 1.708-0.372 2.592-0.372 8.198 0.003 16.396-0.004 24.595 0.005 2.402 0.003 4.348 0.956 5.789 2.853 0.708 0.933 1.131 1.993 1.275 3.15 0.049 0.39 0.070 0.787 0.071 1.181 0.006 3.040 0.004 6.080 0.003 9.12 0 0.476-0.119 0.908-0.516 1.222-0.42 0.332-0.889 0.419-1.389 0.216-0.479-0.196-0.781-0.555-0.85-1.069-0.035-0.259-0.031-0.525-0.038-0.787-0.011-0.423-0.189-0.678-0.544-0.756-0.078-0.018-0.161-0.017-0.242-0.017-5.317 0-10.635 0-15.954 0l-0.003-0.001z"></path>
<path  d="M17.604 0.889c3.457 0 6.913 0 10.369 0 1.157 0 2.24 0.255 3.173 0.959 1.201 0.905 1.902 2.098 1.961 3.594 0.050 1.269 0.028 2.541 0.034 3.812 0.004 0.819 0 1.637 0 2.456 0 0.073-0.004 0.15-0.024 0.22-0.060 0.222-0.182 0.31-0.412 0.267-0.251-0.047-0.493-0.147-0.743-0.175-0.589-0.063-1.18-0.107-1.772-0.138-0.395-0.021-0.517-0.091-0.573-0.473-0.179-1.21-1.317-2.299-2.773-2.282-1.624 0.018-3.247 0.004-4.87 0.004-1.208 0-2.239 0.708-2.65 1.825-0.059 0.16-0.081 0.334-0.112 0.502-0.057 0.302-0.171 0.415-0.476 0.419-0.64 0.007-1.281 0.007-1.92 0-0.294-0.003-0.41-0.117-0.463-0.452-0.074-0.47-0.259-0.889-0.561-1.257-0.547-0.667-1.256-1.029-2.129-1.034-1.675-0.008-3.351-0.004-5.028-0.001-1.408 0.001-2.51 1.085-2.689 2.274-0.057 0.384-0.174 0.452-0.568 0.477-0.654 0.043-1.307 0.103-1.96 0.172-0.2 0.021-0.392 0.106-0.591 0.139-0.214 0.034-0.314-0.037-0.374-0.244-0.024-0.081-0.035-0.168-0.035-0.254-0.001-1.964-0.028-3.928 0.006-5.891 0.035-2.055 0.999-3.565 2.886-4.479 0.747-0.36 1.558-0.441 2.378-0.441 3.305 0 6.609 0 9.914 0z"></path>
</symbol>
<symbol id="icon-Frame_properties" viewBox="0 0 32 32">
<path  d="M16 32.018c8.837 0 16-7.163 16-16s-7.163-16-16-16-16 7.163-16 16c0 8.837 7.163 16 16 16z"></path>
<path  d="M0 48c8.837 0 16-7.163 16-16s-7.163-16-16-16c-8.837 0-16 7.163-16 16s7.163 16 16 16z"></path>
<path  d="M32 48c8.837 0 16-7.163 16-16s-7.163-16-16-16c-8.837 0-16 7.163-16 16s7.163 16 16 16z"></path>
<path  d="M0 16c8.837 0 16-7.163 16-16s-7.163-16-16-16c-8.837 0-16 7.163-16 16s7.163 16 16 16z"></path>
<path  d="M32 16c8.837 0 16-7.163 16-16s-7.163-16-16-16c-8.837 0-16 7.163-16 16s7.163 16 16 16z"></path>
</symbol>
<symbol id="icon-1" viewBox="0 0 33 32">
<path  d="M16.333 10c-1.657 0-3 1.343-3 3s1.343 3 3 3 3-1.343 3-3c0-1.657-1.343-3-3-3z"></path>
<path  d="M2.333 6.5c0-1.381 1.119-2.5 2.5-2.5h23c1.381 0 2.5 1.119 2.5 2.5v13c0 1.381-1.119 2.5-2.5 2.5h-23c-1.381 0-2.5-1.119-2.5-2.5v-13zM11.333 13c0-2.761 2.239-5 5-5s5 2.239 5 5c0 2.761-2.239 5-5 5s-5-2.239-5-5zM25.333 12c-0.552 0-1 0.448-1 1v0.010c0 0.552 0.448 1 1 1h0.010c0.552 0 1-0.448 1-1v-0.010c0-0.552-0.448-1-1-1h-0.010zM6.333 13c0-0.552 0.448-1 1-1h0.010c0.552 0 1 0.448 1 1v0.010c0 0.552-0.448 1-1 1h-0.010c-0.552 0-1-0.448-1-1v-0.010z"></path>
<path  d="M3.333 24c-0.552 0-1 0.448-1 1s0.448 1 1 1c7.2 0 14.174 0.963 20.8 2.767 1.587 0.432 3.2-0.744 3.2-2.426v-1.34c0-0.552-0.448-1-1-1h-23z"></path>
</symbol>
<symbol id="icon-2" viewBox="0 0 33 32">
<path  d="M2.6 4.4c0-0.663 0.537-1.2 1.2-1.2h16.8c0.663 0 1.2 0.537 1.2 1.2s-0.537 1.2-1.2 1.2h-0.4v22c0 0.663-0.537 1.2-1.2 1.2h-2.4c-0.663 0-1.2-0.537-1.2-1.2v-4c0-0.663-0.537-1.2-1.2-1.2h-4c-0.663 0-1.2 0.537-1.2 1.2v4c0 0.663-0.537 1.2-1.2 1.2h-4c-0.663 0-1.2-0.537-1.2-1.2s0.537-1.2 1.2-1.2h0.4v-20.8h-0.4c-0.663 0-1.2-0.537-1.2-1.2zM7.4 8.8c0-0.442 0.358-0.8 0.8-0.8h1.6c0.442 0 0.8 0.358 0.8 0.8v1.6c0 0.442-0.358 0.8-0.8 0.8h-1.6c-0.442 0-0.8-0.358-0.8-0.8v-1.6zM8.2 14.4c-0.442 0-0.8 0.358-0.8 0.8v1.6c0 0.442 0.358 0.8 0.8 0.8h1.6c0.442 0 0.8-0.358 0.8-0.8v-1.6c0-0.442-0.358-0.8-0.8-0.8h-1.6zM13.8 8.8c0-0.442 0.358-0.8 0.8-0.8h1.6c0.442 0 0.8 0.358 0.8 0.8v1.6c0 0.442-0.358 0.8-0.8 0.8h-1.6c-0.442 0-0.8-0.358-0.8-0.8v-1.6zM14.6 14.4c-0.442 0-0.8 0.358-0.8 0.8v1.6c0 0.442 0.358 0.8 0.8 0.8h1.6c0.442 0 0.8-0.358 0.8-0.8v-1.6c0-0.442-0.358-0.8-0.8-0.8h-1.6z"></path>
<path  d="M23.8 9.6h6.4c0.663 0 1.2 0.537 1.2 1.2s-0.537 1.2-1.2 1.2h-0.4v14.4h0.4c0.663 0 1.2 0.537 1.2 1.2s-0.537 1.2-1.2 1.2h-6c-0.884 0-1.6-0.716-1.6-1.6v-16.4c0-0.663 0.537-1.2 1.2-1.2zM24.6 15.2v1.6c0 0.442 0.358 0.8 0.8 0.8h1.6c0.442 0 0.8-0.358 0.8-0.8v-1.6c0-0.442-0.358-0.8-0.8-0.8h-1.6c-0.442 0-0.8 0.358-0.8 0.8zM25.4 20.8c-0.442 0-0.8 0.358-0.8 0.8v1.6c0 0.442 0.358 0.8 0.8 0.8h1.6c0.442 0 0.8-0.358 0.8-0.8v-1.6c0-0.442-0.358-0.8-0.8-0.8h-1.6z"></path>
</symbol>
<symbol id="icon-3" viewBox="0 0 33 32">
<path  d="M16.333 3c0.552 0 1 0.448 1 1v3c0 0.552-0.448 1-1 1s-1-0.448-1-1v-3c0-0.552 0.448-1 1-1z"></path>
<path  d="M10.333 16c0-3.314 2.686-6 6-6s6 2.686 6 6c0 3.314-2.686 6-6 6s-6-2.686-6-6z"></path>
<path  d="M25.526 8.222c0.391-0.391 0.391-1.024 0-1.414s-1.024-0.391-1.414 0l-2.121 2.121c-0.391 0.391-0.391 1.024 0 1.414s1.024 0.391 1.414 0l2.121-2.121z"></path>
<path  d="M29.333 16c0 0.552-0.448 1-1 1h-3c-0.552 0-1-0.448-1-1s0.448-1 1-1h3c0.552 0 1 0.448 1 1z"></path>
<path  d="M24.111 25.192c0.391 0.39 1.024 0.39 1.414 0s0.391-1.024 0-1.414l-2.121-2.121c-0.391-0.391-1.024-0.391-1.414 0s-0.391 1.024 0 1.414l2.121 2.121z"></path>
<path  d="M16.333 24c0.552 0 1 0.448 1 1v3c0 0.552-0.448 1-1 1s-1-0.448-1-1v-3c0-0.552 0.448-1 1-1z"></path>
<path  d="M10.677 23.071c0.391-0.391 0.391-1.024 0-1.414s-1.024-0.391-1.414 0l-2.121 2.121c-0.391 0.391-0.391 1.024 0 1.414s1.024 0.391 1.414 0l2.121-2.121z"></path>
<path  d="M8.333 16c0 0.552-0.448 1-1 1h-3c-0.552 0-1-0.448-1-1s0.448-1 1-1h3c0.552 0 1 0.448 1 1z"></path>
<path  d="M9.262 10.343c0.391 0.391 1.024 0.391 1.414 0s0.391-1.024 0-1.414l-2.121-2.121c-0.391-0.391-1.024-0.391-1.414 0s-0.391 1.024 0 1.414l2.121 2.121z"></path>
</symbol>
<symbol id="icon-4_properties" viewBox="0 0 30 32">
<path  d="M6.095 25.905h-0.381c-0.631 0-1.143 0.512-1.143 1.143s0.512 1.143 1.143 1.143h5.333c0.631 0 1.143-0.512 1.143-1.143v-3.81c0-0.631 0.512-1.143 1.143-1.143h3.81c0.631 0 1.143 0.512 1.143 1.143v3.81c0 0.631 0.512 1.143 1.143 1.143h5.333c0.631 0 1.143-0.512 1.143-1.143s-0.512-1.143-1.143-1.143h-0.381v-19.81h0.381c0.631 0 1.143-0.512 1.143-1.143s-0.512-1.143-1.143-1.143h-19.048c-0.631 0-1.143 0.512-1.143 1.143s0.512 1.143 1.143 1.143h0.381v19.81zM10.667 9.143c0-0.421 0.341-0.762 0.762-0.762h1.524c0.421 0 0.762 0.341 0.762 0.762v1.524c0 0.421-0.341 0.762-0.762 0.762h-1.524c-0.421 0-0.762-0.341-0.762-0.762v-1.524zM11.429 14.476c-0.421 0-0.762 0.341-0.762 0.762v1.524c0 0.421 0.341 0.762 0.762 0.762h1.524c0.421 0 0.762-0.341 0.762-0.762v-1.524c0-0.421-0.341-0.762-0.762-0.762h-1.524zM16.762 9.143c0-0.421 0.341-0.762 0.762-0.762h1.524c0.421 0 0.762 0.341 0.762 0.762v1.524c0 0.421-0.341 0.762-0.762 0.762h-1.524c-0.421 0-0.762-0.341-0.762-0.762v-1.524zM17.524 14.476c-0.421 0-0.762 0.341-0.762 0.762v1.524c0 0.421 0.341 0.762 0.762 0.762h1.524c0.421 0 0.762-0.341 0.762-0.762v-1.524c0-0.421-0.341-0.762-0.762-0.762h-1.524z"></path>
</symbol>
<symbol id="icon" viewBox="0 0 33 32">
<path  d="M5.606 11.394c1.875 1.875 4.914 1.875 6.788 0 0.23-0.23 0.432-0.478 0.606-0.739 0.86 1.293 2.33 2.145 4 2.145s3.14-0.852 4-2.146c0.174 0.261 0.376 0.51 0.607 0.74 1.874 1.874 4.914 1.874 6.788 0s1.875-4.914 0-6.788l-0.468-0.468c-0.6-0.6-1.414-0.937-2.263-0.937h-17.327c-0.849 0-1.663 0.337-2.263 0.937l-0.468 0.468c-1.875 1.875-1.875 4.914 0 6.788z"></path>
<path  d="M5.8 14.452c2.285 1.133 5.046 0.979 7.201-0.464 1.143 0.765 2.519 1.212 3.999 1.212s2.856-0.448 3.999-1.213c2.154 1.443 4.916 1.598 7.201 0.465v11.948h0.4c0.663 0 1.2 0.537 1.2 1.2s-0.537 1.2-1.2 1.2h-7.2c-0.663 0-1.2-0.537-1.2-1.2v-5.6c0-0.663-0.537-1.2-1.2-1.2h-4c-0.663 0-1.2 0.537-1.2 1.2v5.6c0 0.663-0.537 1.2-1.2 1.2h-7.2c-0.663 0-1.2-0.537-1.2-1.2s0.537-1.2 1.2-1.2h0.4v-11.948z"></path>
</symbol>
<symbol id="icon-5_properties" viewBox="0 0 32 32">
<path  d="M4.799 16c0-0.663 0.537-1.2 1.2-1.2h17.021l-6.652-6.335c-0.478-0.459-0.493-1.219-0.033-1.697s1.219-0.493 1.697-0.033l8.8 8.4c0.235 0.226 0.368 0.539 0.368 0.865s-0.133 0.639-0.368 0.865l-8.8 8.4c-0.478 0.459-1.237 0.444-1.697-0.033s-0.445-1.237 0.033-1.697l6.652-6.335h-17.021c-0.663 0-1.2-0.537-1.2-1.2z"></path>
</symbol>
<symbol id="icon-6_properties" viewBox="0 0 32 32">
<path  d="M27.201 16c0 0.663-0.537 1.2-1.2 1.2h-17.021l6.652 6.335c0.478 0.459 0.493 1.219 0.033 1.697s-1.219 0.493-1.697 0.033l-8.8-8.4c-0.235-0.226-0.368-0.539-0.368-0.865s0.133-0.639 0.368-0.865l8.8-8.4c0.478-0.459 1.237-0.444 1.697 0.033s0.445 1.237-0.033 1.697l-6.652 6.335h17.021c0.663 0 1.2 0.537 1.2 1.2z"></path>
</symbol>
<symbol id="icon-1_contacts" viewBox="0 0 32 32">
<path  stroke-linejoin="round" stroke-linecap="round" stroke-miterlimit="4" stroke-width="1.8824" d="M6 26l20-20M26 6h-15M26 6v15"></path>
</symbol>
<symbol id="icon-1_experience" viewBox="0 0 32 32">
<path  d="M3 18c0-6.075 4.925-11 11-11 0.552 0 1 0.448 1 1v9h9c0.552 0 1 0.448 1 1 0 6.075-4.925 11-11 11s-11-4.925-11-11z"></path>
<path  d="M17 4c0-0.552 0.448-1 1-1 6.075 0 11 4.925 11 11 0 0.552-0.448 1-1 1h-10c-0.552 0-1-0.448-1-1v-10z"></path>
</symbol>
<symbol id="icon-1_find" viewBox="0 0 32 32">
<path  d="M15.386 29.801c-0.081-0.047-0.196-0.115-0.34-0.204-0.289-0.178-0.698-0.441-1.185-0.785-0.974-0.688-2.274-1.709-3.576-3.042-2.592-2.654-5.285-6.641-5.285-11.77 0-6.075 4.925-11 11-11s11 4.925 11 11c0 5.128-2.692 9.116-5.285 11.77-1.302 1.333-2.602 2.354-3.576 3.042-0.488 0.345-0.896 0.607-1.185 0.785-0.145 0.089-0.26 0.157-0.34 0.204-0.040 0.023-0.072 0.041-0.094 0.054l-0.038 0.021c-0.297 0.161-0.666 0.163-0.963-0.001l-0.037-0.021c-0.022-0.013-0.054-0.031-0.094-0.054zM16 18c2.209 0 4-1.791 4-4s-1.791-4-4-4-4 1.791-4 4c0 2.209 1.791 4 4 4z"></path>
</symbol>
<symbol id="icon-1_find_makeIt" viewBox="0 0 33 32">
<path  d="M2.667 6c0-2.209 1.791-4 4-4h1.829c1.147 0 2.147 0.781 2.425 1.894l1.474 5.898c0.244 0.976-0.121 2.003-0.925 2.606l-1.725 1.294c-0.179 0.134-0.218 0.331-0.168 0.468 1.514 4.133 4.797 7.416 8.93 8.93 0.137 0.050 0.334 0.011 0.468-0.168l1.294-1.725c0.604-0.805 1.631-1.169 2.606-0.925l5.898 1.474c1.113 0.278 1.894 1.278 1.894 2.425v1.829c0 2.209-1.791 4-4 4h-3c-11.598 0-21-9.402-21-21v-3z"></path>
</symbol>
<symbol id="icon-2_aboutUs" viewBox="0 0 33 32">
<path  d="M16.071 3.74c0.255-0.112 0.545-0.112 0.801 0 4.958 2.166 9.658 4.815 14.039 7.886 0.317 0.222 0.477 0.608 0.411 0.989s-0.346 0.691-0.719 0.794c-0.913 0.252-1.819 0.523-2.716 0.813-3.641 1.174-7.147 2.652-10.486 4.403l-0.004 0.002c-0.151 0.079-0.302 0.159-0.453 0.24-0.294 0.157-0.648 0.157-0.942 0-0.152-0.081-0.305-0.162-0.458-0.242-1.651-0.866-3.343-1.665-5.072-2.393v-0.298c0-0.175 0.090-0.331 0.229-0.415 2.007-1.216 4.077-2.338 6.204-3.359 0.498-0.239 0.708-0.837 0.468-1.334s-0.837-0.708-1.334-0.468c-2.186 1.050-4.313 2.202-6.374 3.452-0.605 0.366-1.011 0.966-1.145 1.637-1.14-0.438-2.295-0.847-3.464-1.224-0.897-0.289-1.802-0.56-2.716-0.812-0.373-0.103-0.653-0.412-0.719-0.794s0.094-0.767 0.411-0.989c4.381-3.071 9.080-5.719 14.039-7.886z"></path>
<path  d="M17.885 20.631c3.252-1.738 6.668-3.206 10.22-4.377 0.179 1.886 0.293 3.792 0.341 5.713 0.010 0.412-0.234 0.789-0.614 0.947-3.802 1.587-7.417 3.531-10.806 5.789-0.336 0.224-0.773 0.224-1.109 0-3.389-2.258-7.005-4.202-10.806-5.789-0.381-0.159-0.625-0.535-0.614-0.947 0.047-1.922 0.162-3.827 0.341-5.714 1.228 0.405 2.44 0.845 3.634 1.32v1.694c-0.598 0.346-1 0.992-1 1.732 0 0.66 0.32 1.246 0.814 1.61-0.119 0.508-0.296 1.004-0.53 1.48 0.604 0.285 1.202 0.579 1.795 0.882 0.338-0.687 0.583-1.408 0.735-2.144 0.699-0.312 1.187-1.013 1.187-1.828 0-0.74-0.402-1.387-1-1.732v-0.86c1.562 0.682 3.092 1.424 4.587 2.223 0.883 0.472 1.944 0.472 2.828 0z"></path>
<path  d="M6.421 25.95c0.559-0.559 1.004-1.188 1.334-1.86 0.604 0.285 1.202 0.579 1.795 0.882-0.425 0.864-0.997 1.674-1.715 2.392-0.391 0.39-1.024 0.39-1.414 0s-0.391-1.024 0-1.414z"></path>
</symbol>
<symbol id="icon-2_experience" viewBox="0 0 32 32">
<path  d="M28 8.5c0 3.59-5.373 6.5-12 6.5s-12-2.91-12-6.5c0-3.59 5.373-6.5 12-6.5s12 2.91 12 6.5z"></path>
<path  d="M16 17c3.58 0 6.921-0.782 9.438-2.145 0.92-0.498 1.795-1.116 2.528-1.846 0.022 0.162 0.034 0.326 0.034 0.491 0 3.59-5.373 6.5-12 6.5s-12-2.91-12-6.5c0-0.165 0.011-0.329 0.034-0.491 0.733 0.73 1.608 1.347 2.528 1.846 2.517 1.363 5.858 2.145 9.438 2.145z"></path>
<path  d="M16 22c3.58 0 6.921-0.782 9.438-2.145 0.92-0.498 1.795-1.116 2.528-1.846 0.022 0.162 0.034 0.326 0.034 0.491 0 3.59-5.373 6.5-12 6.5s-12-2.91-12-6.5c0-0.165 0.011-0.329 0.034-0.491 0.733 0.73 1.608 1.347 2.528 1.846 2.517 1.363 5.858 2.145 9.438 2.145z"></path>
<path  d="M16 27c3.58 0 6.921-0.782 9.438-2.145 0.92-0.498 1.795-1.116 2.528-1.846 0.022 0.162 0.034 0.326 0.034 0.491 0 3.59-5.373 6.5-12 6.5s-12-2.91-12-6.5c0-0.165 0.011-0.329 0.034-0.491 0.733 0.73 1.608 1.347 2.528 1.846 2.517 1.363 5.858 2.145 9.438 2.145z"></path>
</symbol>
<symbol id="icon-2_find" viewBox="0 0 33 32">
<path  d="M25.608 4.94c0.519-0.189 0.787-0.763 0.598-1.282s-0.763-0.787-1.282-0.598l-16.658 6.057v-5.118c0-0.552-0.448-1-1-1h-2c-0.552 0-1 0.448-1 1v6.572l-1.342 0.488c-0.519 0.189-0.787 0.762-0.598 1.282s0.763 0.787 1.282 0.598l22-8z"></path>
<path  d="M4.291 14.819l19.975-7.263v4.562l5.341 1.942c0.519 0.189 0.787 0.763 0.598 1.281s-0.763 0.787-1.282 0.598l-0.658-0.239v11.3h1c0.552 0 1 0.448 1 1s-0.448 1-1 1h-26c-0.552 0-1-0.448-1-1s0.448-1 1-1h1v-12.172l0.025-0.009zM24.266 27v-12.754l2 0.727v12.027h-2zM12.266 19c-0.552 0-1 0.448-1 1v6c0 0.552 0.448 1 1 1h4c0.552 0 1-0.448 1-1v-6c0-0.552-0.448-1-1-1h-4z"></path>
</symbol>
<symbol id="icon-2_footer" viewBox="0 0 32 32">
<path  d="M28.57 3.438c-0.667-0.681-1.653-0.933-2.573-0.667l-21.453 6.199c-0.971 0.269-1.659 1.039-1.844 2.015-0.189 0.995 0.472 2.259 1.336 2.787l6.708 4.096c0.688 0.421 1.576 0.316 2.145-0.255l7.681-7.681c0.387-0.401 1.027-0.401 1.413 0 0.387 0.385 0.387 1.013 0 1.413l-7.695 7.681c-0.571 0.571-0.677 1.456-0.257 2.145l4.099 6.733c0.48 0.799 1.307 1.253 2.213 1.253 0.107 0 0.227 0 0.333-0.015 1.040-0.132 1.867-0.84 2.173-1.84l6.36-21.292c0.28-0.907 0.027-1.893-0.64-2.573z"></path>
<path  opacity="0.4" d="M12.602 25.523c0.389 0.391 0.389 1.024 0 1.415l-1.821 1.82c-0.195 0.196-0.451 0.293-0.707 0.293s-0.512-0.097-0.707-0.293c-0.391-0.391-0.391-1.023 0-1.413l1.82-1.821c0.391-0.389 1.024-0.389 1.415 0zM11.557 20.472c0.389 0.391 0.389 1.024 0 1.415l-1.821 1.82c-0.195 0.196-0.451 0.293-0.707 0.293s-0.512-0.097-0.707-0.293c-0.391-0.391-0.391-1.023 0-1.413l1.82-1.821c0.391-0.389 1.024-0.389 1.415 0zM6.542 18.883c0.389 0.391 0.389 1.024 0 1.415l-1.821 1.82c-0.195 0.196-0.451 0.293-0.707 0.293s-0.512-0.097-0.707-0.293c-0.391-0.391-0.391-1.023 0-1.413l1.82-1.821c0.391-0.389 1.024-0.389 1.415 0z"></path>
</symbol>
<symbol id="icon-3_aboutUs" viewBox="0 0 32 32">
<path  d="M11 9c0-2.761 2.239-5 5-5s5 2.239 5 5c0 2.761-2.239 5-5 5s-5-2.239-5-5z"></path>
<path  d="M21 13c0-2.209 1.791-4 4-4s4 1.791 4 4c0 2.209-1.791 4-4 4s-4-1.791-4-4z"></path>
<path  d="M3 13c0-2.209 1.791-4 4-4s4 1.791 4 4c0 2.209-1.791 4-4 4s-4-1.791-4-4z"></path>
<path  d="M8.413 20.157c1.597-2.497 4.398-4.157 7.587-4.157s5.99 1.66 7.587 4.158c1.104 1.727 1.582 3.809 1.358 5.84-0.035 0.317-0.219 0.599-0.496 0.758-2.49 1.429-5.376 2.245-8.449 2.245s-5.959-0.816-8.449-2.245c-0.277-0.159-0.461-0.44-0.496-0.758-0.224-2.031 0.254-4.113 1.358-5.841z"></path>
<path  d="M6.776 19.005c-0.016 0.025-0.032 0.049-0.048 0.074-1.287 2.013-1.876 4.41-1.696 6.773-0.811-0.123-1.597-0.321-2.352-0.587l-0.153-0.054c-0.28-0.098-0.475-0.352-0.498-0.648l-0.013-0.162c-0.011-0.133-0.016-0.266-0.016-0.401 0-2.686 2.119-4.878 4.776-4.995z"></path>
<path  d="M26.968 25.852c0.181-2.363-0.408-4.759-1.695-6.772-0.016-0.025-0.032-0.050-0.049-0.075 2.657 0.117 4.776 2.309 4.776 4.995 0 0.135-0.005 0.269-0.016 0.401l-0.013 0.162c-0.024 0.296-0.219 0.549-0.498 0.648l-0.153 0.054c-0.755 0.266-1.541 0.464-2.352 0.587z"></path>
</symbol>
<symbol id="icon-3_experience" viewBox="0 0 32 32">
<path  d="M22.508 5.794c-2.762 1.105-5.719 1.824-8.807 2.090-0.89 0.077-1.791 0.116-2.701 0.116h-1c-3.866 0-7 3.134-7 7 0 3.466 2.519 6.344 5.827 6.902 0.446 1.825 1.064 3.583 1.837 5.254 0.619 1.338 2.232 1.76 3.443 1.061l0.875-0.505c1.173-0.677 1.554-2.124 1.029-3.291-0.313-0.696-0.593-1.411-0.836-2.143 2.557 0.344 5.014 1 7.333 1.927 0.968-2.892 1.492-5.988 1.492-9.206s-0.524-6.314-1.492-9.206z"></path>
<path  d="M24.347 4.988c1.071 3.141 1.653 6.509 1.653 10.012s-0.581 6.871-1.653 10.012c-0.074 0.216-0.149 0.43-0.227 0.644-0.19 0.519 0.077 1.093 0.595 1.283s1.093-0.077 1.283-0.595c0.187-0.51 0.361-1.026 0.523-1.547 0.698-2.249 1.162-4.601 1.364-7.026 0.689-0.718 1.115-1.695 1.115-2.77s-0.425-2.052-1.115-2.77c-0.202-2.425-0.666-4.777-1.364-7.026-0.162-0.521-0.336-1.037-0.523-1.547-0.19-0.519-0.764-0.785-1.283-0.595s-0.785 0.764-0.595 1.283c0.078 0.213 0.154 0.428 0.227 0.644z"></path>
</symbol>
<symbol id="icon-3_find" viewBox="0 0 33 32">
<path  d="M16.534 10c-1.657 0-3 1.343-3 3s1.343 3 3 3c1.657 0 3-1.343 3-3s-1.343-3-3-3z"></path>
<path  d="M2.534 6.5c0-1.381 1.119-2.5 2.5-2.5h23c1.381 0 2.5 1.119 2.5 2.5v13c0 1.381-1.119 2.5-2.5 2.5h-23c-1.381 0-2.5-1.119-2.5-2.5v-13zM11.534 13c0-2.761 2.239-5 5-5s5 2.239 5 5c0 2.761-2.239 5-5 5s-5-2.239-5-5zM25.534 12c-0.552 0-1 0.448-1 1v0.010c0 0.552 0.448 1 1 1h0.010c0.552 0 1-0.448 1-1v-0.010c0-0.552-0.448-1-1-1h-0.010zM6.534 13c0-0.552 0.448-1 1-1h0.010c0.552 0 1 0.448 1 1v0.010c0 0.552-0.448 1-1 1h-0.010c-0.552 0-1-0.448-1-1v-0.010z"></path>
<path  d="M3.534 24c-0.552 0-1 0.448-1 1s0.448 1 1 1c7.2 0 14.174 0.963 20.8 2.767 1.587 0.432 3.2-0.744 3.2-2.426v-1.34c0-0.552-0.448-1-1-1h-23z"></path>
</symbol>
<symbol id="icon-4_experience" viewBox="0 0 32 32">
<path  d="M8 4c-2.209 0-4 1.791-4 4v3c0 2.209 1.791 4 4 4h3c2.209 0 4-1.791 4-4v-3c0-2.209-1.791-4-4-4h-3z"></path>
<path  d="M21 4c-2.209 0-4 1.791-4 4v3c0 2.209 1.791 4 4 4h3c2.209 0 4-1.791 4-4v-3c0-2.209-1.791-4-4-4h-3z"></path>
<path  d="M8 17c-2.209 0-4 1.791-4 4v3c0 2.209 1.791 4 4 4h3c2.209 0 4-1.791 4-4v-3c0-2.209-1.791-4-4-4h-3z"></path>
<path  d="M23.5 18c0-0.552-0.448-1-1-1s-1 0.448-1 1v3.5h-3.5c-0.552 0-1 0.448-1 1s0.448 1 1 1h3.5v3.5c0 0.552 0.448 1 1 1s1-0.448 1-1v-3.5h3.5c0.552 0 1-0.448 1-1s-0.448-1-1-1h-3.5v-3.5z"></path>
</symbol>
<symbol id="icon-4_find" viewBox="0 0 33 32">
<path  d="M17.303 2.136c-0.311-0.182-0.696-0.182-1.008 0l-11.496 6.706 12 7 12-7-11.496-6.706z"></path>
<path  d="M29.799 10.574l-12 7v12l11.504-6.711c0.307-0.179 0.496-0.508 0.496-0.864v-11.426z"></path>
<path  d="M15.799 29.574v-12l-12-7v11.426c0 0.356 0.189 0.685 0.496 0.864l11.504 6.711z"></path>
</symbol>
<symbol id="icon-5_experience" viewBox="0 0 32 32">
<path  d="M3 5.5c0-1.381 1.119-2.5 2.5-2.5h7c1.381 0 2.5 1.119 2.5 2.5v17.5c0 3.314-2.686 6-6 6s-6-2.686-6-6v-17.5zM9 24.5c0.828 0 1.5-0.672 1.5-1.5s-0.672-1.5-1.5-1.5c-0.828 0-1.5 0.672-1.5 1.5s0.672 1.5 1.5 1.5z"></path>
<path  d="M14.292 29h12.208c1.381 0 2.5-1.119 2.5-2.5v-7c0-1.381-1.119-2.5-2.5-2.5h-0.186l-11.657 11.657c-0.119 0.119-0.241 0.233-0.365 0.343z"></path>
<path  d="M16.984 23.501l8.632-8.632c0.976-0.976 0.976-2.559 0-3.536l-4.95-4.95c-0.976-0.976-2.559-0.976-3.536 0l-0.132 0.132v16.485c0 0.168-0.005 0.335-0.015 0.501z"></path>
</symbol>
<symbol id="icon-5_find" viewBox="0 0 33 32">
<path  d="M10.068 3c0.552 0 1 0.448 1 1v2h12v-2c0-0.552 0.448-1 1-1s1 0.448 1 1v2h1c2.209 0 4 1.791 4 4v15c0 2.209-1.791 4-4 4h-18c-2.209 0-4-1.791-4-4v-15c0-2.209 1.791-4 4-4h1v-2c0-0.552 0.448-1 1-1zM28.068 15c0-1.105-0.895-2-2-2h-18c-1.105 0-2 0.895-2 2v10c0 1.105 0.895 2 2 2h18c1.105 0 2-0.895 2-2v-10z"></path>
</symbol>
<symbol id="icon-6_experience" viewBox="0 0 32 32">
<path  d="M12 6c0.447 0 0.839 0.296 0.962 0.725l1.084 3.795c0.475 1.661 1.773 2.959 3.434 3.434l3.795 1.084c0.429 0.123 0.725 0.515 0.725 0.962s-0.296 0.839-0.725 0.962l-3.795 1.084c-1.661 0.475-2.959 1.773-3.434 3.434l-1.084 3.795c-0.123 0.429-0.515 0.725-0.962 0.725s-0.839-0.296-0.962-0.725l-1.084-3.795c-0.475-1.661-1.773-2.959-3.434-3.434l-3.795-1.084c-0.429-0.123-0.725-0.515-0.725-0.962s0.296-0.839 0.725-0.962l3.795-1.084c1.661-0.475 2.959-1.773 3.434-3.434l1.084-3.795c0.123-0.429 0.515-0.725 0.962-0.725z"></path>
<path  d="M24 2c0.459 0 0.859 0.312 0.97 0.757l0.345 1.381c0.314 1.254 1.293 2.233 2.547 2.547l1.381 0.345c0.445 0.111 0.757 0.511 0.757 0.97s-0.312 0.859-0.757 0.97l-1.381 0.345c-1.254 0.313-2.233 1.293-2.547 2.547l-0.345 1.381c-0.111 0.445-0.511 0.757-0.97 0.757s-0.859-0.312-0.97-0.757l-0.345-1.381c-0.314-1.254-1.293-2.233-2.547-2.547l-1.381-0.345c-0.445-0.111-0.757-0.511-0.757-0.97s0.312-0.859 0.757-0.97l1.381-0.345c1.254-0.314 2.233-1.293 2.547-2.547l0.345-1.381c0.111-0.445 0.511-0.757 0.97-0.757z"></path>
<path  d="M22 20c0.43 0 0.813 0.275 0.949 0.684l0.526 1.577c0.199 0.597 0.668 1.066 1.265 1.265l1.577 0.526c0.408 0.136 0.684 0.518 0.684 0.949s-0.275 0.813-0.684 0.949l-1.577 0.526c-0.597 0.199-1.066 0.668-1.265 1.265l-0.526 1.577c-0.136 0.408-0.518 0.684-0.949 0.684s-0.813-0.275-0.949-0.684l-0.526-1.577c-0.199-0.597-0.668-1.066-1.265-1.265l-1.577-0.526c-0.408-0.136-0.684-0.518-0.684-0.949s0.275-0.813 0.684-0.949l1.577-0.526c0.597-0.199 1.066-0.668 1.265-1.265l0.526-1.577c0.136-0.408 0.518-0.684 0.949-0.684z"></path>
</symbol>
<symbol id="icon-6_find" viewBox="0 0 33 32">
<path  stroke-linejoin="round" stroke-linecap="round" stroke-miterlimit="4" stroke-width="2" d="M27.065 11l-10 10-10-10"></path>
</symbol>
<symbol id="icon-7_experience" viewBox="0 0 32 32">
<path  d="M17.248 3.418c-0.158-0.212-0.395-0.35-0.656-0.383s-0.526 0.041-0.731 0.207c-2.422 1.949-4.112 4.777-4.584 8-0.85-0.616-1.597-1.368-2.209-2.222-0.168-0.235-0.433-0.383-0.721-0.403s-0.571 0.089-0.771 0.297c-2.002 2.092-3.233 4.932-3.233 8.057 0 6.438 5.219 11.657 11.657 11.657s11.657-5.219 11.657-11.657c0-4.742-2.831-8.82-6.891-10.641-1.437-0.701-2.623-1.711-3.518-2.912zM20.857 18.914c0 2.683-2.175 4.857-4.857 4.857s-4.857-2.175-4.857-4.857c0-0.53 0.085-1.041 0.242-1.518 0.814 0.602 1.75 1.048 2.763 1.296 0.28-1.814 1.187-3.422 2.493-4.593 2.38 0.314 4.216 2.35 4.216 4.815z"></path>
</symbol>
<symbol id="icon-8_experience" viewBox="0 0 31 32">
<path  d="M15.543 1.429c-5.902 0-10.686 4.784-10.686 10.686 0 3.951 2.145 7.401 5.33 9.249 0.888 0.515 1.444 1.306 1.469 2.101 0.014 0.439 0.32 0.814 0.748 0.915 0.455 0.108 0.919 0.192 1.39 0.253 0.419 0.054 0.778-0.282 0.778-0.704v-6.037c-0.414-0.046-0.819-0.12-1.214-0.222-0.52-0.134-0.832-0.663-0.699-1.183s0.663-0.832 1.183-0.699c0.542 0.14 1.112 0.214 1.701 0.214s1.158-0.075 1.701-0.214c0.52-0.134 1.049 0.179 1.183 0.699s-0.179 1.049-0.699 1.183c-0.395 0.102-0.8 0.176-1.214 0.222v6.037c0 0.423 0.359 0.758 0.778 0.704 0.471-0.061 0.935-0.145 1.39-0.253 0.427-0.101 0.734-0.476 0.748-0.915 0.025-0.795 0.581-1.586 1.469-2.101 3.185-1.848 5.33-5.297 5.33-9.249 0-5.902-4.784-10.686-10.686-10.686z"></path>
<path  d="M11.674 26.232c0.1-0.527 0.608-0.873 1.135-0.773 0.885 0.168 1.798 0.256 2.733 0.256s1.849-0.088 2.733-0.256c0.527-0.1 1.035 0.246 1.135 0.773s-0.246 1.035-0.773 1.135c-1.003 0.19-2.038 0.29-3.095 0.29s-2.092-0.099-3.095-0.29c-0.527-0.1-0.873-0.608-0.773-1.135z"></path>
<path  d="M12.634 29.398c0.056-0.534 0.534-0.921 1.067-0.865 0.605 0.063 1.219 0.096 1.842 0.096s1.237-0.032 1.842-0.096c0.534-0.056 1.011 0.331 1.067 0.865s-0.331 1.011-0.865 1.067c-0.672 0.070-1.354 0.106-2.044 0.106s-1.372-0.036-2.044-0.106c-0.534-0.056-0.921-0.534-0.865-1.067z"></path>
</symbol>
<symbol id="icon-aboutUs" viewBox="0 0 32 32">
<path  d="M14.384 4.281c0.598-1.437 2.634-1.437 3.232 0l2.776 6.674 7.205 0.578c1.552 0.124 2.181 2.061 0.999 3.073l-5.49 4.703 1.677 7.031c0.361 1.514-1.286 2.711-2.614 1.899l-6.169-3.768-6.169 3.768c-1.328 0.811-2.976-0.385-2.614-1.899l1.677-7.031-5.49-4.703c-1.182-1.013-0.553-2.949 0.999-3.073l7.205-0.578 2.776-6.674z"></path>
</symbol>
<symbol id="icon-ontacts" viewBox="0 0 33 32">
<path  d="M2.471 11.559v11.441c0 2.209 1.791 4 4 4h20c2.209 0 4-1.791 4-4v-11.441l-11.904 7.325c-1.286 0.791-2.907 0.791-4.193 0l-11.904-7.325z"></path>
<path  d="M30.471 9.21v-0.21c0-2.209-1.791-4-4-4h-20c-2.209 0-4 1.791-4 4v0.21l12.952 7.97c0.643 0.396 1.454 0.396 2.096 0l12.952-7.97z"></path>
</symbol>
<symbol id="icon-experience" viewBox="0 0 32 32">
<path  d="M24.5 3c-1.381 0-2.5 1.119-2.5 2.5v21c0 1.381 1.119 2.5 2.5 2.5h1c1.381 0 2.5-1.119 2.5-2.5v-21c0-1.381-1.119-2.5-2.5-2.5h-1z"></path>
<path  d="M13 11.5c0-1.381 1.119-2.5 2.5-2.5h1c1.381 0 2.5 1.119 2.5 2.5v15c0 1.381-1.119 2.5-2.5 2.5h-1c-1.381 0-2.5-1.119-2.5-2.5v-15z"></path>
<path  d="M4 17.5c0-1.381 1.119-2.5 2.5-2.5h1c1.381 0 2.5 1.119 2.5 2.5v9c0 1.381-1.119 2.5-2.5 2.5h-1c-1.381 0-2.5-1.119-2.5-2.5v-9z"></path>
</symbol>
<symbol id="icon-find" viewBox="0 0 31 32">
<path  stroke-linejoin="round" stroke-linecap="round" stroke-miterlimit="4" stroke-width="1.92" d="M26.88 27.52l-6.652-6.652M20.228 20.868c1.737-1.737 2.812-4.137 2.812-6.788 0-5.302-4.298-9.6-9.6-9.6s-9.6 4.298-9.6 9.6c0 5.302 4.298 9.6 9.6 9.6 2.651 0 5.051-1.075 6.788-2.812z"></path>
</symbol>
<symbol id="icon-find_makeIt" viewBox="0 0 34 32">
<path  d="M32.5 16c0 8.837-7.163 16-16 16s-16-7.163-16-16c0-8.837 7.163-16 16-16s16 7.163 16 16z"></path>
</symbol>
<symbol id="icon-footer" viewBox="0 0 32 32">
<path  d="M22.666 9.333h1.333v1.333c0 0.354 0.14 0.693 0.391 0.943s0.589 0.391 0.943 0.391c0.354 0 0.693-0.14 0.943-0.391s0.391-0.589 0.391-0.943v-1.333h1.333c0.354 0 0.693-0.14 0.943-0.39s0.391-0.589 0.391-0.943c0-0.354-0.14-0.693-0.391-0.943s-0.589-0.391-0.943-0.391h-1.333v-1.333c0-0.354-0.14-0.693-0.391-0.943s-0.589-0.391-0.943-0.391c-0.354 0-0.693 0.14-0.943 0.391s-0.391 0.589-0.391 0.943v1.333h-1.333c-0.354 0-0.693 0.14-0.943 0.391s-0.39 0.589-0.39 0.943 0.14 0.693 0.39 0.943c0.25 0.25 0.589 0.39 0.943 0.39zM28 14.667c-0.354 0-0.693 0.14-0.943 0.39s-0.391 0.589-0.391 0.943v8c0 0.354-0.14 0.693-0.391 0.943s-0.589 0.39-0.943 0.39h-18.667c-0.354 0-0.693-0.14-0.943-0.39s-0.391-0.589-0.391-0.943v-12.787l7.84 7.853c0.75 0.749 1.767 1.17 2.827 1.17s2.077-0.421 2.827-1.17l3.293-3.293c0.251-0.251 0.392-0.592 0.392-0.947s-0.141-0.696-0.392-0.947c-0.251-0.251-0.592-0.392-0.947-0.392s-0.696 0.141-0.947 0.392l-3.293 3.293c-0.249 0.244-0.584 0.381-0.933 0.381s-0.684-0.137-0.933-0.381l-7.853-7.84h10.12c0.354 0 0.693-0.14 0.943-0.39s0.391-0.589 0.391-0.943c0-0.354-0.14-0.693-0.391-0.943s-0.589-0.391-0.943-0.391h-10.667c-1.061 0-2.078 0.421-2.828 1.172s-1.172 1.768-1.172 2.828v13.333c0 1.061 0.421 2.078 1.172 2.828s1.768 1.172 2.828 1.172h18.667c1.061 0 2.078-0.421 2.828-1.172s1.172-1.768 1.172-2.828v-8c0-0.354-0.14-0.693-0.391-0.943s-0.589-0.39-0.943-0.39z"></path>
</symbol>
<symbol id="icon-messenger_2_footer" viewBox="0 0 32 32">
<path  d="M27.294 2.667h-22.587c-0.254-0.004-0.506 0.043-0.742 0.137s-0.451 0.233-0.633 0.41c-0.182 0.177-0.327 0.388-0.428 0.621s-0.154 0.484-0.157 0.738v22.853c0.003 0.254 0.057 0.505 0.157 0.738s0.246 0.444 0.428 0.621c0.182 0.177 0.397 0.316 0.633 0.41s0.488 0.14 0.742 0.137h22.587c0.254 0.004 0.506-0.043 0.742-0.137s0.451-0.233 0.633-0.41 0.327-0.388 0.428-0.621c0.1-0.233 0.154-0.484 0.157-0.738v-22.853c-0.004-0.254-0.057-0.505-0.157-0.738s-0.246-0.444-0.428-0.621-0.397-0.317-0.633-0.41c-0.236-0.094-0.488-0.14-0.742-0.137zM10.787 24.987h-4v-12h4v12zM8.787 11.307c-0.552 0-1.081-0.219-1.471-0.609s-0.609-0.919-0.609-1.471c0-0.552 0.219-1.081 0.609-1.471s0.919-0.609 1.471-0.609c0.293-0.033 0.59-0.004 0.87 0.085s0.54 0.237 0.76 0.433c0.22 0.196 0.396 0.437 0.516 0.706s0.183 0.561 0.183 0.855c0 0.295-0.062 0.586-0.183 0.855s-0.296 0.51-0.516 0.706c-0.22 0.196-0.479 0.344-0.76 0.433s-0.578 0.118-0.87 0.085zM25.214 24.987h-4v-6.44c0-1.613-0.573-2.667-2.027-2.667-0.45 0.003-0.888 0.144-1.255 0.404s-0.646 0.626-0.798 1.049c-0.104 0.313-0.15 0.643-0.133 0.973v6.667h-4c0 0 0-10.907 0-12h4v1.693c0.363-0.631 0.892-1.15 1.529-1.502s1.357-0.524 2.085-0.498c2.667 0 4.6 1.72 4.6 5.413v6.907z"></path>
</symbol>
<symbol id="icon-messenger_3_footer" viewBox="0 0 32 32">
<path  d="M29.334 7.733c-1.002 0.435-2.062 0.722-3.147 0.853 1.144-0.684 2.002-1.759 2.413-3.027-1.075 0.64-2.252 1.091-3.48 1.333-0.821-0.89-1.913-1.482-3.107-1.684s-2.42-0.002-3.488 0.568c-1.068 0.57-1.916 1.479-2.411 2.584s-0.611 2.342-0.327 3.519c-2.174-0.11-4.301-0.676-6.242-1.662s-3.653-2.368-5.025-4.058c-0.481 0.84-0.734 1.792-0.733 2.76-0.002 0.899 0.219 1.785 0.642 2.578s1.036 1.47 1.784 1.969c-0.869-0.024-1.72-0.257-2.48-0.68v0.067c0.006 1.26 0.448 2.479 1.25 3.451s1.915 1.637 3.15 1.883c-0.476 0.145-0.97 0.221-1.467 0.227-0.344-0.004-0.687-0.035-1.027-0.093 0.352 1.084 1.033 2.031 1.948 2.71s2.019 1.055 3.159 1.077c-1.924 1.514-4.299 2.34-6.747 2.347-0.446 0.001-0.891-0.025-1.333-0.080 2.499 1.614 5.412 2.47 8.387 2.467 2.053 0.021 4.089-0.367 5.991-1.141s3.629-1.92 5.083-3.37c1.453-1.45 2.604-3.175 3.383-5.074s1.173-3.935 1.157-5.988c0-0.227 0-0.467 0-0.707 1.046-0.78 1.949-1.737 2.667-2.827z"></path>
</symbol>
<symbol id="icon-messenger_4_footer" viewBox="0 0 32 32">
<path  d="M30.667 12.947c0.066-1.908-0.352-3.803-1.213-5.507-0.585-0.699-1.396-1.171-2.293-1.333-3.71-0.337-7.435-0.475-11.16-0.413-3.711-0.064-7.423 0.069-11.12 0.4-0.731 0.133-1.407 0.476-1.947 0.987-1.2 1.107-1.333 3-1.467 4.6-0.193 2.877-0.193 5.763 0 8.64 0.039 0.9 0.173 1.794 0.4 2.667 0.161 0.673 0.486 1.296 0.947 1.813 0.543 0.538 1.235 0.9 1.987 1.040 2.875 0.355 5.771 0.502 8.667 0.44 4.667 0.067 8.76 0 13.6-0.373 0.77-0.131 1.481-0.494 2.040-1.040 0.373-0.374 0.652-0.831 0.813-1.333 0.477-1.463 0.711-2.995 0.693-4.533 0.053-0.747 0.053-5.253 0.053-6.053zM12.987 19.8v-8.253l7.893 4.147c-2.213 1.227-5.133 2.613-7.893 4.107z"></path>
</symbol>
<symbol id="icon-messenger_footer" viewBox="0 0 32 32">
<path  d="M20.992 5.312h3.008v-5.088c-1.456-0.151-2.92-0.226-4.384-0.224-4.352 0-7.328 2.656-7.328 7.52v4.192h-4.912v5.696h4.912v14.592h5.888v-14.592h4.896l0.736-5.696h-5.632v-3.632c0-1.68 0.448-2.768 2.816-2.768z"></path>
</symbol>
<symbol id="icon-Shape_clients" viewBox="0 0 32 32">
<path  d="M14.504 2.329c0.7-1.089 2.292-1.089 2.992 0l4.191 6.524c0.241 0.375 0.613 0.646 1.044 0.759l7.5 1.969c1.252 0.329 1.744 1.843 0.924 2.845l-4.91 6.002c-0.282 0.345-0.424 0.783-0.399 1.228l0.445 7.741c0.074 1.293-1.214 2.228-2.42 1.758l-7.225-2.815c-0.415-0.162-0.876-0.162-1.291 0l-7.225 2.815c-1.206 0.47-2.495-0.466-2.42-1.758l0.445-7.741c0.026-0.445-0.117-0.883-0.399-1.228l-4.91-6.002c-0.82-1.002-0.328-2.516 0.924-2.845l7.5-1.969c0.431-0.113 0.804-0.384 1.044-0.759l4.191-6.524z"></path>
</symbol>
<symbol id="icon-Symbol" viewBox="0 0 31 32">
<path  d="M15.543 31.543c-8.583 0-15.543-6.96-15.543-15.543h15.543v15.543z"></path>
<path  d="M0 0.457c8.583 0 15.543 6.96 15.543 15.543h-15.543v-15.543z"></path>
<path  d="M15.543 31.543c8.583 0 15.543-6.96 15.543-15.543h-15.543v15.543z"></path>
<path  d="M31.086 16c0-8.583-6.96-15.543-15.543-15.543v15.543h15.543z"></path>
</symbol>
<symbol id="icon-3_seaside" viewBox="0 0 31 32">
<path f d="M18.707 2.682c0.386 0.215 0.575 0.665 0.459 1.091l-2.549 9.347h9.303c0.382 0 0.728 0.227 0.881 0.577s0.082 0.758-0.179 1.038l-13.44 14.4c-0.301 0.323-0.784 0.398-1.169 0.184s-0.575-0.665-0.459-1.091l2.549-9.347h-9.303c-0.382 0-0.728-0.227-0.88-0.577s-0.082-0.758 0.179-1.038l13.44-14.4c0.301-0.323 0.784-0.398 1.169-0.183z"></path>
</symbol>
<symbol id="icon-seaside" viewBox="0 0 32 32">
<path  d="M2.672 5.478c-0.327 0.384-0.654 0.768-0.974 1.142-0.627-0.632-1.173-1.182-1.699-1.712 1.334-1.336 2.694-2.697 4.038-4.042 1.344 1.347 2.704 2.709 4.036 4.044-0.52 0.52-1.070 1.069-1.668 1.667-0.346-0.386-0.718-0.801-1.183-1.319v5.513c2.51-2.513 5.079-5.085 7.634-7.644-0.674 0-1.436-0.047-2.189 0.014-0.653 0.053-1.109-0.162-1.534-0.643-0.516-0.584-1.104-1.105-1.74-1.73 0.24-0.018 0.372-0.036 0.504-0.036 6.389-0.001 12.779-0.004 19.168 0 2.039 0.001 3.493 1.422 3.496 3.449 0.010 6.423 0.004 12.845 0.004 19.267 0 0.089-0.010 0.179-0.133 0.354-0.579-0.606-1.131-1.239-1.747-1.805-0.4-0.368-0.56-0.751-0.528-1.292 0.046-0.756 0.012-1.517 0.012-2.268-2.566 2.569-5.106 5.111-7.641 7.648h5.523c-0.517-0.422-0.942-0.768-1.36-1.11 0.685-0.659 1.243-1.196 1.785-1.719 1.283 1.297 2.638 2.667 3.983 4.026-1.303 1.294-2.67 2.65-4.022 3.992-0.508-0.518-1.048-1.067-1.624-1.654 0.324-0.286 0.693-0.611 1.062-0.937-0.023-0.057-0.046-0.113-0.070-0.169h-0.528c-6.294 0-12.587 0.002-18.88-0.001-1.723 0-2.965-0.836-3.439-2.355-0.13-0.418-0.168-0.878-0.169-1.319-0.011-6.263-0.007-12.526-0.007-18.788 0-0.169 0-0.338 0-0.507-0.037-0.022-0.075-0.043-0.112-0.065h0.003zM5.182 24.266c7.050-7.051 14.089-14.092 21.136-21.14-1.004 0-2.036-0.009-3.068 0.011-0.132 0.003-0.286 0.124-0.391 0.229-5.816 5.811-11.63 11.625-17.439 17.443-0.104 0.105-0.225 0.259-0.228 0.391-0.019 1.031-0.011 2.062-0.011 3.065l0.001 0.001zM28.167 5.030c-7.033 7.031-14.065 14.062-21.088 21.083 0.958 0 1.975 0.009 2.992-0.011 0.132-0.003 0.284-0.128 0.389-0.235 5.826-5.82 11.649-11.644 17.467-17.471 0.105-0.105 0.227-0.259 0.229-0.391 0.019-1.016 0.011-2.032 0.011-2.976h0.001zM28.167 11.764c-4.784 4.78-9.573 9.566-14.362 14.349 0.971 0 1.986 0.009 3.003-0.011 0.131-0.003 0.281-0.134 0.387-0.24 3.582-3.575 7.16-7.154 10.734-10.737 0.104-0.105 0.224-0.26 0.227-0.393 0.019-1.017 0.011-2.033 0.011-2.97v0.001zM5.182 17.488c4.798-4.796 9.576-9.573 14.365-14.362-0.959 0-1.943-0.009-2.927 0.010-0.134 0.003-0.29 0.115-0.395 0.218-3.606 3.598-7.207 7.2-10.804 10.806-0.104 0.105-0.226 0.258-0.229 0.391-0.019 0.986-0.011 1.972-0.011 2.937z"></path>
</symbol>
</defs>
</svg>
