<svg aria-hidden="true" style="position: absolute; width: 0; height: 0; overflow: hidden;" version="1.1" xmlns="http://www.w3.org/2000/svg" xmlns:xlink="http://www.w3.org/1999/xlink">
<defs>
<symbol id="icon-arrow" viewBox="0 0 32 32">
<path  stroke-linejoin="round" stroke-linecap="round" stroke-miterlimit="4" stroke-width="1.7778" d="M6.37 25.63l19.259-19.259M25.63 6.37h-14.444M25.63 6.37v14.444"></path>
</symbol>
<symbol id="icon-bathroom" viewBox="0 0 32 32">
<path  d="M1.173 21.732h14.995v2.755h9.374v-2.749h3.724c0.241 3.277 0.26 6.194-3.101 8.418-0.041 0.027-0.074 0.064-0.165 0.145 0.413 0.343 0.821 0.683 1.224 1.018-0.544 0.521-0.982 0.939-1.483 1.419-0.442-0.456-0.921-0.986-1.442-1.468-0.153-0.142-0.424-0.2-0.647-0.214-0.363-0.022-0.732 0.037-1.098 0.038-4.869 0.003-9.738 0.002-14.608 0.002-0.233 0-0.482 0.045-0.698-0.020-0.65-0.195-1.062 0.106-1.448 0.572-0.329 0.396-0.705 0.754-1.048 1.116-0.463-0.487-0.883-0.928-1.347-1.417 0.311-0.275 0.707-0.626 1.151-1.020-0.306-0.219-0.535-0.371-0.753-0.539-1.627-1.254-2.507-2.917-2.622-4.96-0.057-1.012-0.010-2.030-0.010-3.095h0.001z"></path>
<path  d="M1.182 14.152c-0.008-0.181-0.022-0.344-0.022-0.507-0.001-2.652-0.004-5.303 0-7.955 0.004-2.914 2.027-4.948 4.937-4.927 0.977 0.007 1.984-0.013 2.922 0.208 1.665 0.393 2.714 1.548 3.221 3.176 0.098 0.316 0.225 0.469 0.572 0.563 1.96 0.531 3.335 2.363 3.36 4.407 0.004 0.329 0 0.659 0 1.016h-9.275c-0.442-2.339 0.829-4.753 3.486-5.506-0.24-1.044-1.268-1.925-2.347-1.963-0.816-0.029-1.634-0.032-2.45 0-1.406 0.055-2.537 1.346-2.543 2.894-0.010 2.668-0.003 5.337-0.003 8.006 0 0.182 0 0.364 0 0.588l-1.857 0.001z"></path>
<path  d="M16.141 19.859c-0.196 0-0.343 0-0.49 0-4.766 0-9.533 0.001-14.299-0.001-1.026 0-1.763-0.485-2.023-1.314-0.39-1.247 0.493-2.448 1.841-2.466 1.433-0.019 2.866-0.005 4.3-0.005 3.367 0 6.732 0 10.099 0 0.18 0 0.36 0 0.572 0v3.786z"></path>
<path  d="M23.655 22.661h-5.578c-0.009-0.176-0.024-0.336-0.024-0.496-0.002-1.933-0.002-3.866 0-5.799 0.001-1.398 0.765-2.167 2.157-2.173 0.516-0.002 1.033-0.013 1.549 0.003 1.16 0.037 1.918 0.817 1.921 1.98 0.006 2.017 0.002 4.032 0 6.049 0 0.131-0.014 0.261-0.025 0.436z"></path>
<path  d="M25.574 19.841v-3.768c0.907 0 1.801-0.003 2.693 0.001 0.465 0.002 0.941-0.036 1.396 0.039 0.994 0.164 1.64 0.978 1.599 1.928-0.040 0.932-0.728 1.731-1.703 1.782-1.309 0.069-2.624 0.017-3.984 0.017l-0.001 0.001z"></path>
</symbol>
<symbol id="icon-bedroom" viewBox="0 0 32 32">
<path  d="M16.019 27.136c-4.797 0-9.593 0-14.39 0-0.485 0-0.709 0.222-0.709 0.701 0 0.124 0.006 0.248-0.001 0.371-0.010 0.149-0.025 0.298-0.053 0.443-0.103 0.53-0.611 0.954-1.218 0.948-0.61-0.006-1.115-0.459-1.207-1.040-0.021-0.136-0.033-0.277-0.033-0.414-0.001-2.818-0.020-5.637 0.006-8.455 0.015-1.642 0.622-3.071 1.786-4.26 0.707-0.722 1.547-1.235 2.508-1.563 0.756-0.257 1.537-0.335 2.333-0.335 7.378 0.002 14.757-0.004 22.135 0.005 2.162 0.002 3.913 0.861 5.21 2.567 0.637 0.84 1.018 1.794 1.148 2.835 0.044 0.351 0.063 0.708 0.064 1.063 0.005 2.736 0.004 5.472 0.003 8.208 0 0.428-0.107 0.817-0.465 1.1-0.378 0.299-0.8 0.377-1.25 0.195-0.431-0.176-0.703-0.5-0.765-0.962-0.032-0.233-0.028-0.473-0.034-0.708-0.010-0.381-0.17-0.61-0.49-0.681-0.071-0.016-0.145-0.015-0.218-0.015-4.786 0-9.572 0-14.359 0l-0.003-0.001z"></path>
<path  d="M15.843 2.4c3.112 0 6.222 0 9.332 0 1.042 0 2.016 0.229 2.856 0.863 1.081 0.815 1.712 1.888 1.765 3.235 0.045 1.142 0.025 2.287 0.030 3.431 0.004 0.737 0 1.473 0 2.21 0 0.066-0.004 0.135-0.021 0.198-0.054 0.2-0.164 0.279-0.37 0.241-0.225-0.042-0.443-0.133-0.669-0.158-0.53-0.057-1.062-0.097-1.595-0.124-0.355-0.019-0.465-0.082-0.515-0.425-0.161-1.089-1.185-2.069-2.496-2.054-1.461 0.016-2.923 0.004-4.383 0.004-1.087 0-2.016 0.638-2.385 1.642-0.053 0.144-0.073 0.3-0.101 0.451-0.052 0.272-0.154 0.373-0.428 0.377-0.576 0.006-1.153 0.006-1.728 0-0.265-0.002-0.369-0.105-0.417-0.407-0.067-0.423-0.233-0.8-0.505-1.131-0.493-0.6-1.13-0.927-1.916-0.93-1.508-0.007-3.016-0.004-4.525-0.001-1.267 0.001-2.259 0.976-2.42 2.046-0.052 0.346-0.156 0.407-0.511 0.429-0.588 0.038-1.177 0.093-1.764 0.155-0.18 0.019-0.353 0.095-0.532 0.125-0.193 0.031-0.282-0.034-0.336-0.22-0.021-0.073-0.031-0.151-0.031-0.228-0.001-1.767-0.025-3.535 0.005-5.302 0.031-1.849 0.899-3.209 2.598-4.031 0.673-0.324 1.402-0.397 2.14-0.397 2.974 0 5.949 0 8.923 0z"></path>
</symbol>
<symbol id="icon-burger" viewBox="0 0 32 32">
<path  d="M4 9c0-0.552 0.448-1 1-1h22c0.552 0 1 0.448 1 1s-0.448 1-1 1h-22c-0.552 0-1-0.448-1-1zM4 16c0-0.552 0.448-1 1-1h22c0.552 0 1 0.448 1 1s-0.448 1-1 1h-22c-0.552 0-1-0.448-1-1zM15 23c0-0.552 0.448-1 1-1h11c0.552 0 1 0.448 1 1s-0.448 1-1 1h-11c-0.552 0-1-0.448-1-1z"></path>
</symbol>
<symbol id="icon-create-email" viewBox="0 0 32 32">
<path  d="M22.667 9.333h1.333v1.333c0 0.354 0.14 0.693 0.391 0.943s0.589 0.391 0.943 0.391c0.354 0 0.693-0.14 0.943-0.391s0.391-0.589 0.391-0.943v-1.333h1.333c0.354 0 0.693-0.14 0.943-0.39s0.391-0.589 0.391-0.943c0-0.354-0.14-0.693-0.391-0.943s-0.589-0.391-0.943-0.391h-1.333v-1.333c0-0.354-0.14-0.693-0.391-0.943s-0.589-0.391-0.943-0.391c-0.354 0-0.693 0.14-0.943 0.391s-0.391 0.589-0.391 0.943v1.333h-1.333c-0.354 0-0.693 0.14-0.943 0.391s-0.39 0.589-0.39 0.943 0.14 0.693 0.39 0.943c0.25 0.25 0.589 0.39 0.943 0.39zM28 14.667c-0.354 0-0.693 0.14-0.943 0.39s-0.391 0.589-0.391 0.943v8c0 0.354-0.14 0.693-0.391 0.943s-0.589 0.39-0.943 0.39h-18.667c-0.354 0-0.693-0.14-0.943-0.39s-0.391-0.589-0.391-0.943v-12.787l7.84 7.853c0.75 0.749 1.767 1.17 2.827 1.17s2.077-0.421 2.827-1.17l3.293-3.293c0.251-0.251 0.392-0.592 0.392-0.947s-0.141-0.696-0.392-0.947c-0.251-0.251-0.592-0.392-0.947-0.392s-0.696 0.141-0.947 0.392l-3.293 3.293c-0.249 0.244-0.584 0.381-0.933 0.381s-0.684-0.137-0.933-0.381l-7.853-7.84h10.12c0.354 0 0.693-0.14 0.943-0.39s0.391-0.589 0.391-0.943c0-0.354-0.14-0.693-0.391-0.943s-0.589-0.391-0.943-0.391h-10.667c-1.061 0-2.078 0.421-2.828 1.172s-1.172 1.768-1.172 2.828v13.333c0 1.061 0.421 2.078 1.172 2.828s1.768 1.172 2.828 1.172h18.667c1.061 0 2.078-0.421 2.828-1.172s1.172-1.768 1.172-2.828v-8c0-0.354-0.14-0.693-0.391-0.943s-0.589-0.39-0.943-0.39z"></path>
</symbol>
<symbol id="icon-decisions" viewBox="0 0 32 32">
<path  d="M16 3c0.552 0 1 0.448 1 1v3c0 0.552-0.448 1-1 1s-1-0.448-1-1v-3c0-0.552 0.448-1 1-1z"></path>
<path d="M10 16c0-3.314 2.686-6 6-6s6 2.686 6 6c0 3.314-2.686 6-6 6s-6-2.686-6-6z"></path>
<path  d="M25.192 8.222c0.391-0.391 0.391-1.024 0-1.414s-1.024-0.391-1.414 0l-2.121 2.121c-0.391 0.39-0.391 1.024 0 1.414s1.024 0.391 1.414 0l2.121-2.121z"></path>
<path  d="M29 16c0 0.552-0.448 1-1 1h-3c-0.552 0-1-0.448-1-1s0.448-1 1-1h3c0.552 0 1 0.448 1 1z"></path>
<path  d="M23.778 25.192c0.391 0.391 1.024 0.391 1.414 0s0.391-1.024 0-1.414l-2.121-2.121c-0.391-0.391-1.024-0.391-1.414 0s-0.391 1.024 0 1.414l2.121 2.121z"></path>
<path  d="M16 24c0.552 0 1 0.448 1 1v3c0 0.552-0.448 1-1 1s-1-0.448-1-1v-3c0-0.552 0.448-1 1-1z"></path>
<path  d="M10.343 23.071c0.39-0.391 0.39-1.024 0-1.414s-1.024-0.391-1.414 0l-2.121 2.121c-0.391 0.391-0.391 1.024 0 1.414s1.024 0.391 1.414 0l2.121-2.121z"></path>
<path  d="M8 16c0 0.552-0.448 1-1 1h-3c-0.552 0-1-0.448-1-1s0.448-1 1-1h3c0.552 0 1 0.448 1 1z"></path>
<path  d="M8.929 10.343c0.391 0.391 1.024 0.391 1.414 0s0.391-1.024 0-1.414l-2.121-2.121c-0.391-0.391-1.024-0.391-1.414 0s-0.391 1.024 0 1.414l2.121 2.121z"></path>
</symbol>
<symbol id="icon-facebook" viewBox="0 0 32 32">
<path  d="M20.755 5.821h2.865v-4.846c-1.387-0.144-2.781-0.215-4.175-0.213-4.145 0-6.979 2.53-6.979 7.162v3.992h-4.678v5.425h4.678v13.897h5.608v-13.897h4.663l0.701-5.425h-5.364v-3.459c0-1.6 0.427-2.636 2.682-2.636z"></path>
</symbol>
<symbol id="icon-Frame" viewBox="0 0 32 32">
<path  d="M16 32.018c8.836 0 16-7.164 16-16s-7.164-16-16-16c-8.837 0-16 7.163-16 16s7.163 16 16 16z"></path>
<path  d="M0 48c8.837 0 16-7.164 16-16s-7.163-16-16-16c-8.837 0-16 7.164-16 16s7.163 16 16 16z"></path>
<path  d="M32 48c8.836 0 16-7.164 16-16s-7.164-16-16-16c-8.836 0-16 7.164-16 16s7.164 16 16 16z"></path>
<path  d="M0 16c8.837 0 16-7.163 16-16s-7.163-16-16-16c-8.837 0-16 7.163-16 16s7.163 16 16 16z"></path>
<path  d="M32 16c8.836 0 16-7.163 16-16s-7.164-16-16-16c-8.836 0-16 7.163-16 16s7.164 16 16 16z"></path>
</symbol>
<symbol id="icon-home" viewBox="0 0 32 32">
<path  d="M4.606 11.394c1.875 1.874 4.914 1.874 6.788 0 0.23-0.23 0.432-0.478 0.606-0.739 0.86 1.293 2.33 2.145 4 2.145s3.14-0.852 4-2.146c0.174 0.261 0.376 0.51 0.606 0.74 1.875 1.875 4.914 1.875 6.788 0s1.874-4.914 0-6.788l-0.468-0.468c-0.6-0.6-1.414-0.937-2.263-0.937h-17.327c-0.849 0-1.663 0.337-2.263 0.937l-0.468 0.468c-1.875 1.875-1.875 4.914 0 6.788z"></path>
<path  d="M4.8 14.452c2.285 1.133 5.046 0.979 7.201-0.464 1.143 0.765 2.519 1.212 3.999 1.212s2.856-0.448 3.999-1.213c2.155 1.443 4.916 1.598 7.201 0.465v11.948h0.4c0.663 0 1.2 0.537 1.2 1.2s-0.537 1.2-1.2 1.2h-7.2c-0.663 0-1.2-0.537-1.2-1.2v-5.6c0-0.663-0.537-1.2-1.2-1.2h-4c-0.663 0-1.2 0.537-1.2 1.2v5.6c0 0.663-0.537 1.2-1.2 1.2h-7.2c-0.663 0-1.2-0.537-1.2-1.2s0.537-1.2 1.2-1.2h0.4v-11.948z"></path>
</symbol>
<symbol id="icon-linkedin" viewBox="0 0 32 32">
<path  d="M26.756 3.302h-21.511c-0.242-0.003-0.482 0.041-0.707 0.13s-0.43 0.222-0.603 0.391c-0.173 0.169-0.312 0.37-0.407 0.592s-0.147 0.461-0.15 0.703v21.765c0.003 0.242 0.054 0.481 0.15 0.703s0.234 0.423 0.407 0.592c0.173 0.169 0.378 0.301 0.603 0.391s0.465 0.134 0.707 0.13h21.511c0.242 0.003 0.482-0.041 0.707-0.13s0.429-0.222 0.603-0.391 0.312-0.37 0.407-0.592c0.096-0.222 0.147-0.461 0.15-0.703v-21.765c-0.003-0.242-0.054-0.481-0.15-0.703s-0.234-0.423-0.407-0.592-0.378-0.301-0.603-0.391c-0.225-0.089-0.465-0.134-0.707-0.13zM11.035 24.559h-3.81v-11.429h3.81v11.429zM9.13 11.53c-0.525 0-1.029-0.209-1.401-0.58s-0.58-0.875-0.58-1.401c0-0.525 0.209-1.029 0.58-1.401s0.875-0.58 1.401-0.58c0.279-0.032 0.562-0.004 0.829 0.081s0.514 0.226 0.724 0.413c0.209 0.187 0.377 0.416 0.492 0.672s0.174 0.534 0.174 0.815c0 0.281-0.059 0.558-0.174 0.815s-0.282 0.485-0.492 0.672c-0.209 0.187-0.456 0.328-0.724 0.413s-0.55 0.113-0.829 0.081zM24.775 24.559h-3.81v-6.133c0-1.536-0.546-2.54-1.93-2.54-0.428 0.003-0.845 0.138-1.195 0.385s-0.615 0.596-0.76 0.999c-0.099 0.299-0.142 0.613-0.127 0.927v6.349h-3.809c0 0 0-10.387 0-11.429h3.809v1.613c0.346-0.601 0.85-1.095 1.456-1.431s1.293-0.499 1.986-0.474c2.54 0 4.381 1.638 4.381 5.156v6.578z"></path>
</symbol>
<symbol id="icon-management" viewBox="0 0 32 32">
<path  d="M1.6 4.4c0-0.663 0.537-1.2 1.2-1.2h16.8c0.663 0 1.2 0.537 1.2 1.2s-0.537 1.2-1.2 1.2h-0.4v22c0 0.663-0.537 1.2-1.2 1.2h-2.4c-0.663 0-1.2-0.537-1.2-1.2v-4c0-0.663-0.537-1.2-1.2-1.2h-4c-0.663 0-1.2 0.537-1.2 1.2v4c0 0.663-0.537 1.2-1.2 1.2h-4c-0.663 0-1.2-0.537-1.2-1.2s0.537-1.2 1.2-1.2h0.4v-20.8h-0.4c-0.663 0-1.2-0.537-1.2-1.2zM6.4 8.8c0-0.442 0.358-0.8 0.8-0.8h1.6c0.442 0 0.8 0.358 0.8 0.8v1.6c0 0.442-0.358 0.8-0.8 0.8h-1.6c-0.442 0-0.8-0.358-0.8-0.8v-1.6zM7.2 14.4c-0.442 0-0.8 0.358-0.8 0.8v1.6c0 0.442 0.358 0.8 0.8 0.8h1.6c0.442 0 0.8-0.358 0.8-0.8v-1.6c0-0.442-0.358-0.8-0.8-0.8h-1.6zM12.8 8.8c0-0.442 0.358-0.8 0.8-0.8h1.6c0.442 0 0.8 0.358 0.8 0.8v1.6c0 0.442-0.358 0.8-0.8 0.8h-1.6c-0.442 0-0.8-0.358-0.8-0.8v-1.6zM13.6 14.4c-0.442 0-0.8 0.358-0.8 0.8v1.6c0 0.442 0.358 0.8 0.8 0.8h1.6c0.442 0 0.8-0.358 0.8-0.8v-1.6c0-0.442-0.358-0.8-0.8-0.8h-1.6z"></path>
<path  d="M22.8 9.6h6.4c0.663 0 1.2 0.537 1.2 1.2s-0.537 1.2-1.2 1.2h-0.4v14.4h0.4c0.663 0 1.2 0.537 1.2 1.2s-0.537 1.2-1.2 1.2h-6c-0.884 0-1.6-0.716-1.6-1.6v-16.4c0-0.663 0.537-1.2 1.2-1.2zM23.6 15.2v1.6c0 0.442 0.358 0.8 0.8 0.8h1.6c0.442 0 0.8-0.358 0.8-0.8v-1.6c0-0.442-0.358-0.8-0.8-0.8h-1.6c-0.442 0-0.8 0.358-0.8 0.8zM24.4 20.8c-0.442 0-0.8 0.358-0.8 0.8v1.6c0 0.442 0.358 0.8 0.8 0.8h1.6c0.442 0 0.8-0.358 0.8-0.8v-1.6c0-0.442-0.358-0.8-0.8-0.8h-1.6z"></path>
</symbol>
<symbol id="icon-send-email" viewBox="0 0 32 32">
<path  d="M28.57 3.438c-0.667-0.681-1.653-0.933-2.573-0.667l-21.453 6.199c-0.971 0.269-1.659 1.039-1.844 2.015-0.189 0.995 0.472 2.259 1.336 2.787l6.708 4.096c0.688 0.421 1.576 0.316 2.145-0.255l7.681-7.681c0.387-0.401 1.027-0.401 1.413 0 0.387 0.385 0.387 1.013 0 1.413l-7.695 7.681c-0.571 0.571-0.677 1.456-0.257 2.145l4.099 6.733c0.48 0.799 1.307 1.253 2.213 1.253 0.107 0 0.227 0 0.333-0.015 1.040-0.132 1.867-0.84 2.173-1.84l6.36-21.292c0.28-0.907 0.027-1.893-0.64-2.573z"></path>
<path  opacity="0.4" d="M12.602 25.523c0.389 0.391 0.389 1.024 0 1.415l-1.821 1.82c-0.195 0.196-0.451 0.293-0.707 0.293s-0.512-0.097-0.707-0.293c-0.391-0.391-0.391-1.023 0-1.413l1.82-1.821c0.391-0.389 1.024-0.389 1.415 0zM11.557 20.472c0.389 0.391 0.389 1.024 0 1.415l-1.821 1.82c-0.195 0.196-0.451 0.293-0.707 0.293s-0.512-0.097-0.707-0.293c-0.391-0.391-0.391-1.023 0-1.413l1.82-1.821c0.391-0.389 1.024-0.389 1.415 0zM6.542 18.883c0.389 0.391 0.389 1.024 0 1.415l-1.821 1.82c-0.195 0.196-0.451 0.293-0.707 0.293s-0.512-0.097-0.707-0.293c-0.391-0.391-0.391-1.023 0-1.413l1.82-1.821c0.391-0.389 1.024-0.389 1.415 0z"></path>
</symbol>
<symbol id="icon-Shape" viewBox="0 0 32 32">
<path  d="M14.317 2.62c0.787-1.226 2.578-1.226 3.366 0l4.033 6.278c0.271 0.422 0.69 0.726 1.175 0.854l7.217 1.895c1.409 0.37 1.962 2.073 1.040 3.201l-4.725 5.775c-0.317 0.388-0.477 0.881-0.449 1.381l0.428 7.449c0.084 1.454-1.366 2.507-2.723 1.978l-6.953-2.709c-0.467-0.182-0.985-0.182-1.452 0l-6.953 2.709c-1.357 0.529-2.806-0.524-2.723-1.978l0.428-7.449c0.029-0.5-0.131-0.993-0.449-1.381l-4.725-5.775c-0.922-1.127-0.369-2.831 1.040-3.201l7.217-1.895c0.485-0.127 0.904-0.432 1.175-0.854l4.033-6.278z"></path>
</symbol>
<symbol id="icon-slide-arrow" viewBox="0 0 32 32">
<path  d="M4.799 16c0-0.663 0.537-1.2 1.2-1.2h17.021l-6.652-6.335c-0.478-0.459-0.493-1.219-0.033-1.697s1.219-0.493 1.697-0.033l8.8 8.4c0.235 0.226 0.368 0.539 0.368 0.865s-0.133 0.639-0.368 0.865l-8.8 8.4c-0.478 0.459-1.237 0.444-1.697-0.033s-0.445-1.237 0.033-1.697l6.652-6.335h-17.021c-0.663 0-1.2-0.537-1.2-1.2z"></path>
</symbol>
<symbol id="icon-slide-arrow2" viewBox="0 0 32 32">
<path  d="M27.201 16c0 0.663-0.537 1.2-1.2 1.2h-17.021l6.652 6.335c0.478 0.459 0.493 1.219 0.033 1.697s-1.219 0.493-1.697 0.033l-8.8-8.4c-0.235-0.226-0.368-0.539-0.368-0.865s0.133-0.639 0.368-0.865l8.8-8.4c0.478-0.459 1.237-0.444 1.697 0.033s0.445 1.237-0.033 1.697l-6.652 6.335h17.021c0.663 0 1.2 0.537 1.2 1.2z"></path>
</symbol>
<symbol id="icon-Symbol" viewBox="0 0 32 32">
<path  d="M16 32c-8.836 0-16-7.164-16-16h16v16z"></path>
<path  d="M0 0c8.836 0 16 7.164 16 16h-16v-16z"></path>
<path  d="M16 32c8.836 0 16-7.164 16-16h-16v16z"></path>
<path  d="M32 16c0-8.836-7.164-16-16-16v16h16z"></path>
</symbol>
<symbol id="icon-twitter" viewBox="0 0 32 32">
<path  d="M28.699 8.127c-0.954 0.414-1.964 0.688-2.997 0.813 1.090-0.651 1.906-1.675 2.298-2.883-1.024 0.61-2.145 1.039-3.314 1.27-0.782-0.848-1.822-1.412-2.959-1.604s-2.305-0.002-3.322 0.541c-1.017 0.543-1.825 1.409-2.297 2.461s-0.582 2.231-0.311 3.351c-2.071-0.105-4.096-0.644-5.945-1.582s-3.479-2.255-4.786-3.865c-0.458 0.8-0.699 1.706-0.698 2.629-0.002 0.856 0.209 1.7 0.612 2.455s0.987 1.4 1.699 1.875c-0.828-0.023-1.638-0.245-2.362-0.648v0.063c0.006 1.2 0.427 2.361 1.19 3.286s1.823 1.559 3 1.793c-0.453 0.138-0.923 0.211-1.397 0.216-0.328-0.004-0.655-0.034-0.978-0.089 0.335 1.032 0.984 1.934 1.855 2.581s1.923 1.005 3.008 1.026c-1.832 1.442-4.094 2.228-6.425 2.235-0.424 0.001-0.849-0.024-1.27-0.076 2.38 1.537 5.154 2.353 7.987 2.349 1.955 0.020 3.895-0.349 5.706-1.087s3.456-1.829 4.841-3.21c1.384-1.381 2.48-3.024 3.222-4.832s1.117-3.748 1.102-5.703c0-0.216 0-0.444 0-0.673 0.996-0.743 1.856-1.654 2.54-2.692z"></path>
</symbol>
<symbol id="icon-value" viewBox="0 0 32 32">
<path  d="M16 10c-1.657 0-3 1.343-3 3s1.343 3 3 3c1.657 0 3-1.343 3-3s-1.343-3-3-3z"></path>
<path  d="M2 6.5c0-1.381 1.119-2.5 2.5-2.5h23c1.381 0 2.5 1.119 2.5 2.5v13c0 1.381-1.119 2.5-2.5 2.5h-23c-1.381 0-2.5-1.119-2.5-2.5v-13zM11 13c0-2.761 2.239-5 5-5s5 2.239 5 5c0 2.761-2.239 5-5 5s-5-2.239-5-5zM25 12c-0.552 0-1 0.448-1 1v0.010c0 0.552 0.448 1 1 1h0.010c0.552 0 1-0.448 1-1v-0.010c0-0.552-0.448-1-1-1h-0.010zM6 13c0-0.552 0.448-1 1-1h0.010c0.552 0 1 0.448 1 1v0.010c0 0.552-0.448 1-1 1h-0.010c-0.552 0-1-0.448-1-1v-0.010z"></path>
<path  d="M3 24c-0.552 0-1 0.448-1 1s0.448 1 1 1c7.2 0 14.174 0.963 20.8 2.767 1.588 0.432 3.2-0.744 3.2-2.426v-1.34c0-0.552-0.448-1-1-1h-23z"></path>
</symbol>
<symbol id="icon-villa" viewBox="0 0 32 32">
<path  d="M6.857 25.905h-0.381c-0.631 0-1.143 0.512-1.143 1.143s0.512 1.143 1.143 1.143h5.333c0.631 0 1.143-0.512 1.143-1.143v-3.81c0-0.631 0.512-1.143 1.143-1.143h3.81c0.631 0 1.143 0.512 1.143 1.143v3.81c0 0.631 0.512 1.143 1.143 1.143h5.333c0.631 0 1.143-0.512 1.143-1.143s-0.512-1.143-1.143-1.143h-0.381v-19.81h0.381c0.631 0 1.143-0.512 1.143-1.143s-0.512-1.143-1.143-1.143h-19.048c-0.631 0-1.143 0.512-1.143 1.143s0.512 1.143 1.143 1.143h0.381v19.81zM11.429 9.143c0-0.421 0.341-0.762 0.762-0.762h1.524c0.421 0 0.762 0.341 0.762 0.762v1.524c0 0.421-0.341 0.762-0.762 0.762h-1.524c-0.421 0-0.762-0.341-0.762-0.762v-1.524zM12.19 14.476c-0.421 0-0.762 0.341-0.762 0.762v1.524c0 0.421 0.341 0.762 0.762 0.762h1.524c0.421 0 0.762-0.341 0.762-0.762v-1.524c0-0.421-0.341-0.762-0.762-0.762h-1.524zM17.524 9.143c0-0.421 0.341-0.762 0.762-0.762h1.524c0.421 0 0.762 0.341 0.762 0.762v1.524c0 0.421-0.341 0.762-0.762 0.762h-1.524c-0.421 0-0.762-0.341-0.762-0.762v-1.524zM18.286 14.476c-0.421 0-0.762 0.341-0.762 0.762v1.524c0 0.421 0.341 0.762 0.762 0.762h1.524c0.421 0 0.762-0.341 0.762-0.762v-1.524c0-0.421-0.341-0.762-0.762-0.762h-1.524z"></path>
</symbol>
<symbol id="icon-youtube" viewBox="0 0 32 32">
<path  d="M29.969 13.092c0.063-1.818-0.335-3.622-1.156-5.244-0.557-0.666-1.33-1.115-2.184-1.27-3.533-0.321-7.081-0.452-10.629-0.394-3.534-0.061-7.070 0.066-10.591 0.381-0.696 0.127-1.34 0.453-1.854 0.94-1.143 1.054-1.27 2.857-1.397 4.381-0.184 2.74-0.184 5.489 0 8.229 0.037 0.858 0.164 1.709 0.381 2.54 0.153 0.641 0.463 1.235 0.902 1.727 0.517 0.512 1.176 0.857 1.892 0.99 2.738 0.338 5.496 0.478 8.254 0.419 4.444 0.064 8.343 0 12.952-0.355 0.733-0.125 1.411-0.471 1.943-0.99 0.355-0.356 0.621-0.791 0.775-1.27 0.454-1.394 0.677-2.852 0.66-4.317 0.051-0.711 0.051-5.003 0.051-5.765zM13.13 19.619v-7.86l7.517 3.949c-2.108 1.168-4.889 2.489-7.518 3.911z"></path>
</symbol>
<symbol id="icon-Decisions-Container" viewBox="0 0 32 32">
<path  style="stroke: var(--color1, #000)" stroke-linejoin="miter" stroke-linecap="butt" stroke-miterlimit="4" stroke-width="0.6667" d="M16 0.333c8.652 0 15.667 7.014 15.667 15.667s-7.014 15.667-15.667 15.667c-8.652 0-15.667-7.014-15.667-15.667s7.014-15.667 15.667-15.667z"></path>
<path  style="stroke: var(--color1, #000)" stroke-linejoin="miter" stroke-linecap="butt" stroke-miterlimit="4" stroke-width="0.6667" d="M16 0.333c8.652 0 15.667 7.014 15.667 15.667s-7.014 15.667-15.667 15.667c-8.652 0-15.667-7.014-15.667-15.667s7.014-15.667 15.667-15.667z"></path>
<path  style="stroke: var(--color1, #000)" stroke-linejoin="miter" stroke-linecap="butt" stroke-miterlimit="4" stroke-width="0.6667" d="M16 4.333c6.443 0 11.667 5.223 11.667 11.667s-5.223 11.667-11.667 11.667c-6.443 0-11.667-5.223-11.667-11.667s5.223-11.667 11.667-11.667z"></path>
<path  style="stroke: var(--color1, #000)" stroke-linejoin="miter" stroke-linecap="butt" stroke-miterlimit="4" stroke-width="0.6667" d="M16 4.333c6.443 0 11.667 5.223 11.667 11.667s-5.223 11.667-11.667 11.667c-6.443 0-11.667-5.223-11.667-11.667s5.223-11.667 11.667-11.667z"></path>
<path  d="M16 10.583c0.23 0 0.417 0.187 0.417 0.417v1.25c0 0.23-0.187 0.417-0.417 0.417s-0.417-0.187-0.417-0.417v-1.25c0-0.23 0.187-0.417 0.417-0.417z"></path>
<path  d="M13.5 16c0-1.381 1.119-2.5 2.5-2.5s2.5 1.119 2.5 2.5c0 1.381-1.119 2.5-2.5 2.5s-2.5-1.119-2.5-2.5z"></path>
<path  d="M19.83 12.759c0.163-0.163 0.163-0.427 0-0.589s-0.427-0.163-0.589 0l-0.884 0.884c-0.163 0.163-0.163 0.427 0 0.589s0.427 0.163 0.589 0l0.884-0.884z"></path>
<path  d="M21.417 16c0 0.23-0.187 0.417-0.417 0.417h-1.25c-0.23 0-0.417-0.187-0.417-0.417s0.187-0.417 0.417-0.417h1.25c0.23 0 0.417 0.187 0.417 0.417z"></path>
<path  d="M19.241 19.83c0.163 0.163 0.427 0.163 0.589 0s0.163-0.427 0-0.589l-0.884-0.884c-0.163-0.163-0.427-0.163-0.589 0s-0.163 0.427 0 0.589l0.884 0.884z"></path>
<path  d="M16 19.333c0.23 0 0.417 0.187 0.417 0.417v1.25c0 0.23-0.187 0.417-0.417 0.417s-0.417-0.187-0.417-0.417v-1.25c0-0.23 0.187-0.417 0.417-0.417z"></path>
<path  d="M13.643 18.946c0.163-0.163 0.163-0.427 0-0.589s-0.427-0.163-0.589 0l-0.884 0.884c-0.163 0.163-0.163 0.427 0 0.589s0.427 0.163 0.589 0l0.884-0.884z"></path>
<path  d="M12.667 16c0 0.23-0.187 0.417-0.417 0.417h-1.25c-0.23 0-0.417-0.187-0.417-0.417s0.187-0.417 0.417-0.417h1.25c0.23 0 0.417 0.187 0.417 0.417z"></path>
<path  d="M13.054 13.643c0.163 0.163 0.427 0.163 0.589 0s0.163-0.427 0-0.589l-0.884-0.884c-0.163-0.163-0.427-0.163-0.589 0s-0.163 0.427 0 0.589l0.884 0.884z"></path>
</symbol>
</defs>
</svg>
