<svg aria-hidden="true" style="position: absolute; width: 0; height: 0; overflow: hidden;" version="1.1" xmlns="http://www.w3.org/2000/svg" xmlns:xlink="http://www.w3.org/1999/xlink">
<defs>
<symbol id="icon-arrow" viewBox="0 0 32 32">
<path  stroke-linejoin="round" stroke-linecap="round" stroke-miterlimit="4" stroke-width="1.7778" d="M6.37 25.63l19.259-19.259M25.63 6.37h-14.444M25.63 6.37v14.444"></path>
</symbol>
<symbol id="icon-bathroom" viewBox="0 0 32 32">
<path  d="M1.173 21.732h14.995v2.755h9.374v-2.749h3.724c0.241 3.277 0.26 6.194-3.101 8.418-0.041 0.027-0.074 0.064-0.165 0.145 0.413 0.343 0.821 0.683 1.224 1.018-0.544 0.521-0.982 0.939-1.483 1.419-0.442-0.456-0.921-0.986-1.442-1.468-0.153-0.142-0.424-0.2-0.647-0.214-0.363-0.022-0.732 0.037-1.098 0.038-4.869 0.003-9.738 0.002-14.608 0.002-0.233 0-0.482 0.045-0.698-0.020-0.65-0.195-1.062 0.106-1.448 0.572-0.329 0.396-0.705 0.754-1.048 1.116-0.463-0.487-0.883-0.928-1.347-1.417 0.311-0.275 0.707-0.626 1.151-1.020-0.306-0.219-0.535-0.371-0.753-0.539-1.627-1.254-2.507-2.917-2.622-4.96-0.057-1.012-0.010-2.030-0.010-3.095h0.001z"></path>
<path  d="M1.182 14.152c-0.008-0.181-0.022-0.344-0.022-0.507-0.001-2.652-0.004-5.303 0-7.955 0.004-2.914 2.027-4.948 4.937-4.927 0.977 0.007 1.984-0.013 2.922 0.208 1.665 0.393 2.714 1.548 3.221 3.176 0.098 0.316 0.225 0.469 0.572 0.563 1.96 0.531 3.335 2.363 3.36 4.407 0.004 0.329 0 0.659 0 1.016h-9.275c-0.442-2.339 0.829-4.753 3.486-5.506-0.24-1.044-1.268-1.925-2.347-1.963-0.816-0.029-1.634-0.032-2.45 0-1.406 0.055-2.537 1.346-2.543 2.894-0.010 2.668-0.003 5.337-0.003 8.006 0 0.182 0 0.364 0 0.588l-1.857 0.001z"></path>
<path  d="M16.141 19.859c-0.196 0-0.343 0-0.49 0-4.766 0-9.533 0.001-14.299-0.001-1.026 0-1.763-0.485-2.023-1.314-0.39-1.247 0.493-2.448 1.841-2.466 1.433-0.019 2.866-0.005 4.3-0.005 3.367 0 6.732 0 10.099 0 0.18 0 0.36 0 0.572 0v3.786z"></path>
<path  d="M23.655 22.661h-5.578c-0.009-0.176-0.024-0.336-0.024-0.496-0.002-1.933-0.002-3.866 0-5.799 0.001-1.398 0.765-2.167 2.157-2.173 0.516-0.002 1.033-0.013 1.549 0.003 1.16 0.037 1.918 0.817 1.921 1.98 0.006 2.017 0.002 4.032 0 6.049 0 0.131-0.014 0.261-0.025 0.436z"></path>
<path  d="M25.574 19.841v-3.768c0.907 0 1.801-0.003 2.693 0.001 0.465 0.002 0.941-0.036 1.396 0.039 0.994 0.164 1.64 0.978 1.599 1.928-0.040 0.932-0.728 1.731-1.703 1.782-1.309 0.069-2.624 0.017-3.984 0.017l-0.001 0.001z"></path>
</symbol>
<symbol id="icon-bedroom" viewBox="0 0 32 32">
<path  d="M16.019 27.136c-4.797 0-9.593 0-14.39 0-0.485 0-0.709 0.222-0.709 0.701 0 0.124 0.006 0.248-0.001 0.371-0.010 0.149-0.025 0.298-0.053 0.443-0.103 0.53-0.611 0.954-1.218 0.948-0.61-0.006-1.115-0.459-1.207-1.040-0.021-0.136-0.033-0.277-0.033-0.414-0.001-2.818-0.020-5.637 0.006-8.455 0.015-1.642 0.622-3.071 1.786-4.26 0.707-0.722 1.547-1.235 2.508-1.563 0.756-0.257 1.537-0.335 2.333-0.335 7.378 0.002 14.757-0.004 22.135 0.005 2.162 0.002 3.913 0.861 5.21 2.567 0.637 0.84 1.018 1.794 1.148 2.835 0.044 0.351 0.063 0.708 0.064 1.063 0.005 2.736 0.004 5.472 0.003 8.208 0 0.428-0.107 0.817-0.465 1.1-0.378 0.299-0.8 0.377-1.25 0.195-0.431-0.176-0.703-0.5-0.765-0.962-0.032-0.233-0.028-0.473-0.034-0.708-0.010-0.381-0.17-0.61-0.49-0.681-0.071-0.016-0.145-0.015-0.218-0.015-4.786 0-9.572 0-14.359 0l-0.003-0.001z"></path>
<path  d="M15.843 2.4c3.112 0 6.222 0 9.332 0 1.042 0 2.016 0.229 2.856 0.863 1.081 0.815 1.712 1.888 1.765 3.235 0.045 1.142 0.025 2.287 0.030 3.431 0.004 0.737 0 1.473 0 2.21 0 0.066-0.004 0.135-0.021 0.198-0.054 0.2-0.164 0.279-0.37 0.241-0.225-0.042-0.443-0.133-0.669-0.158-0.53-0.057-1.062-0.097-1.595-0.124-0.355-0.019-0.465-0.082-0.515-0.425-0.161-1.089-1.185-2.069-2.496-2.054-1.461 0.016-2.923 0.004-4.383 0.004-1.087 0-2.016 0.638-2.385 1.642-0.053 0.144-0.073 0.3-0.101 0.451-0.052 0.272-0.154 0.373-0.428 0.377-0.576 0.006-1.153 0.006-1.728 0-0.265-0.002-0.369-0.105-0.417-0.407-0.067-0.423-0.233-0.8-0.505-1.131-0.493-0.6-1.13-0.927-1.916-0.93-1.508-0.007-3.016-0.004-4.525-0.001-1.267 0.001-2.259 0.976-2.42 2.046-0.052 0.346-0.156 0.407-0.511 0.429-0.588 0.038-1.177 0.093-1.764 0.155-0.18 0.019-0.353 0.095-0.532 0.125-0.193 0.031-0.282-0.034-0.336-0.22-0.021-0.073-0.031-0.151-0.031-0.228-0.001-1.767-0.025-3.535 0.005-5.302 0.031-1.849 0.899-3.209 2.598-4.031 0.673-0.324 1.402-0.397 2.14-0.397 2.974 0 5.949 0 8.923 0z"></path>
</symbol>
<symbol id="icon-burger" viewBox="0 0 32 32">
<path  d="M4 9c0-0.552 0.448-1 1-1h22c0.552 0 1 0.448 1 1s-0.448 1-1 1h-22c-0.552 0-1-0.448-1-1zM4 16c0-0.552 0.448-1 1-1h22c0.552 0 1 0.448 1 1s-0.448 1-1 1h-22c-0.552 0-1-0.448-1-1zM15 23c0-0.552 0.448-1 1-1h11c0.552 0 1 0.448 1 1s-0.448 1-1 1h-11c-0.552 0-1-0.448-1-1z"></path>
</symbol>
<symbol id="icon-create-email" viewBox="0 0 32 32">
<path  d="M22.667 9.333h1.333v1.333c0 0.354 0.14 0.693 0.391 0.943s0.589 0.391 0.943 0.391c0.354 0 0.693-0.14 0.943-0.391s0.391-0.589 0.391-0.943v-1.333h1.333c0.354 0 0.693-0.14 0.943-0.39s0.391-0.589 0.391-0.943c0-0.354-0.14-0.693-0.391-0.943s-0.589-0.391-0.943-0.391h-1.333v-1.333c0-0.354-0.14-0.693-0.391-0.943s-0.589-0.391-0.943-0.391c-0.354 0-0.693 0.14-0.943 0.391s-0.391 0.589-0.391 0.943v1.333h-1.333c-0.354 0-0.693 0.14-0.943 0.391s-0.39 0.589-0.39 0.943 0.14 0.693 0.39 0.943c0.25 0.25 0.589 0.39 0.943 0.39zM28 14.667c-0.354 0-0.693 0.14-0.943 0.39s-0.391 0.589-0.391 0.943v8c0 0.354-0.14 0.693-0.391 0.943s-0.589 0.39-0.943 0.39h-18.667c-0.354 0-0.693-0.14-0.943-0.39s-0.391-0.589-0.391-0.943v-12.787l7.84 7.853c0.75 0.749 1.767 1.17 2.827 1.17s2.077-0.421 2.827-1.17l3.293-3.293c0.251-0.251 0.392-0.592 0.392-0.947s-0.141-0.696-0.392-0.947c-0.251-0.251-0.592-0.392-0.947-0.392s-0.696 0.141-0.947 0.392l-3.293 3.293c-0.249 0.244-0.584 0.381-0.933 0.381s-0.684-0.137-0.933-0.381l-7.853-7.84h10.12c0.354 0 0.693-0.14 0.943-0.39s0.391-0.589 0.391-0.943c0-0.354-0.14-0.693-0.391-0.943s-0.589-0.391-0.943-0.391h-10.667c-1.061 0-2.078 0.421-2.828 1.172s-1.172 1.768-1.172 2.828v13.333c0 1.061 0.421 2.078 1.172 2.828s1.768 1.172 2.828 1.172h18.667c1.061 0 2.078-0.421 2.828-1.172s1.172-1.768 1.172-2.828v-8c0-0.354-0.14-0.693-0.391-0.943s-0.589-0.39-0.943-0.39z"></path>
</symbol>
<symbol id="icon-decisions" viewBox="0 0 32 32">
<path  d="M16 3c0.552 0 1 0.448 1 1v3c0 0.552-0.448 1-1 1s-1-0.448-1-1v-3c0-0.552 0.448-1 1-1z"></path>
<path d="M10 16c0-3.314 2.686-6 6-6s6 2.686 6 6c0 3.314-2.686 6-6 6s-6-2.686-6-6z"></path>
<path  d="M25.192 8.222c0.391-0.391 0.391-1.024 0-1.414s-1.024-0.391-1.414 0l-2.121 2.121c-0.391 0.39-0.391 1.024 0 1.414s1.024 0.391 1.414 0l2.121-2.121z"></path>
<path  d="M29 16c0 0.552-0.448 1-1 1h-3c-0.552 0-1-0.448-1-1s0.448-1 1-1h3c0.552 0 1 0.448 1 1z"></path>
<path  d="M23.778 25.192c0.391 0.391 1.024 0.391 1.414 0s0.391-1.024 0-1.414l-2.121-2.121c-0.391-0.391-1.024-0.391-1.414 0s-0.391 1.024 0 1.414l2.121 2.121z"></path>
<path  d="M16 24c0.552 0 1 0.448 1 1v3c0 0.552-0.448 1-1 1s-1-0.448-1-1v-3c0-0.552 0.448-1 1-1z"></path>
<path  d="M10.343 23.071c0.39-0.391 0.39-1.024 0-1.414s-1.024-0.391-1.414 0l-2.121 2.121c-0.391 0.391-0.391 1.024 0 1.414s1.024 0.391 1.414 0l2.121-2.121z"></path>
<path  d="M8 16c0 0.552-0.448 1-1 1h-3c-0.552 0-1-0.448-1-1s0.448-1 1-1h3c0.552 0 1 0.448 1 1z"></path>
<path  d="M8.929 10.343c0.391 0.391 1.024 0.391 1.414 0s0.391-1.024 0-1.414l-2.121-2.121c-0.391-0.391-1.024-0.391-1.414 0s-0.391 1.024 0 1.414l2.121 2.121z"></path>
</symbol>
<symbol id="icon-facebook" viewBox="0 0 32 32">
<path  d="M20.755 5.821h2.865v-4.846c-1.387-0.144-2.781-0.215-4.175-0.213-4.145 0-6.979 2.53-6.979 7.162v3.992h-4.678v5.425h4.678v13.897h5.608v-13.897h4.663l0.701-5.425h-5.364v-3.459c0-1.6 0.427-2.636 2.682-2.636z"></path>
</symbol>
<symbol id="icon-frame" viewBox="0 0 32 32">
<path fill="#666" style="fill: var(--color1, #666)" d="M16 32.018c8.836 0 16-7.164 16-16s-7.164-16-16-16c-8.837 0-16 7.163-16 16s7.163 16 16 16z"></path>
<path fill="#141414" style="fill: var(--color2, #141414)" d="M0 48c8.837 0 16-7.164 16-16s-7.163-16-16-16c-8.837 0-16 7.164-16 16s7.163 16 16 16z"></path>
<path fill="#141414" style="fill: var(--color2, #141414)" d="M32 48c8.836 0 16-7.164 16-16s-7.164-16-16-16c-8.836 0-16 7.164-16 16s7.164 16 16 16z"></path>
<path fill="#141414" style="fill: var(--color2, #141414)" d="M0 16c8.837 0 16-7.163 16-16s-7.163-16-16-16c-8.837 0-16 7.163-16 16s7.163 16 16 16z"></path>
<path fill="#141414" style="fill: var(--color2, #141414)" d="M32 16c8.836 0 16-7.163 16-16s-7.164-16-16-16c-8.836 0-16 7.163-16 16s7.164 16 16 16z"></path>
</symbol>
<symbol id="icon-home" viewBox="0 0 32 32">
<path  d="M4.606 11.394c1.875 1.874 4.914 1.874 6.788 0 0.23-0.23 0.432-0.478 0.606-0.739 0.86 1.293 2.33 2.145 4 2.145s3.14-0.852 4-2.146c0.174 0.261 0.376 0.51 0.606 0.74 1.875 1.875 4.914 1.875 6.788 0s1.874-4.914 0-6.788l-0.468-0.468c-0.6-0.6-1.414-0.937-2.263-0.937h-17.327c-0.849 0-1.663 0.337-2.263 0.937l-0.468 0.468c-1.875 1.875-1.875 4.914 0 6.788z"></path>
<path  d="M4.8 14.452c2.285 1.133 5.046 0.979 7.201-0.464 1.143 0.765 2.519 1.212 3.999 1.212s2.856-0.448 3.999-1.213c2.155 1.443 4.916 1.598 7.201 0.465v11.948h0.4c0.663 0 1.2 0.537 1.2 1.2s-0.537 1.2-1.2 1.2h-7.2c-0.663 0-1.2-0.537-1.2-1.2v-5.6c0-0.663-0.537-1.2-1.2-1.2h-4c-0.663 0-1.2 0.537-1.2 1.2v5.6c0 0.663-0.537 1.2-1.2 1.2h-7.2c-0.663 0-1.2-0.537-1.2-1.2s0.537-1.2 1.2-1.2h0.4v-11.948z"></path>
</symbol>
<symbol id="icon-linkedin" viewBox="0 0 32 32">
<path  d="M26.756 3.302h-21.511c-0.242-0.003-0.482 0.041-0.707 0.13s-0.43 0.222-0.603 0.391c-0.173 0.169-0.312 0.37-0.407 0.592s-0.147 0.461-0.15 0.703v21.765c0.003 0.242 0.054 0.481 0.15 0.703s0.234 0.423 0.407 0.592c0.173 0.169 0.378 0.301 0.603 0.391s0.465 0.134 0.707 0.13h21.511c0.242 0.003 0.482-0.041 0.707-0.13s0.429-0.222 0.603-0.391 0.312-0.37 0.407-0.592c0.096-0.222 0.147-0.461 0.15-0.703v-21.765c-0.003-0.242-0.054-0.481-0.15-0.703s-0.234-0.423-0.407-0.592-0.378-0.301-0.603-0.391c-0.225-0.089-0.465-0.134-0.707-0.13zM11.035 24.559h-3.81v-11.429h3.81v11.429zM9.13 11.53c-0.525 0-1.029-0.209-1.401-0.58s-0.58-0.875-0.58-1.401c0-0.525 0.209-1.029 0.58-1.401s0.875-0.58 1.401-0.58c0.279-0.032 0.562-0.004 0.829 0.081s0.514 0.226 0.724 0.413c0.209 0.187 0.377 0.416 0.492 0.672s0.174 0.534 0.174 0.815c0 0.281-0.059 0.558-0.174 0.815s-0.282 0.485-0.492 0.672c-0.209 0.187-0.456 0.328-0.724 0.413s-0.55 0.113-0.829 0.081zM24.775 24.559h-3.81v-6.133c0-1.536-0.546-2.54-1.93-2.54-0.428 0.003-0.845 0.138-1.195 0.385s-0.615 0.596-0.76 0.999c-0.099 0.299-0.142 0.613-0.127 0.927v6.349h-3.809c0 0 0-10.387 0-11.429h3.809v1.613c0.346-0.601 0.85-1.095 1.456-1.431s1.293-0.499 1.986-0.474c2.54 0 4.381 1.638 4.381 5.156v6.578z"></path>
</symbol>
<symbol id="icon-management" viewBox="0 0 32 32">
<path  d="M1.6 4.4c0-0.663 0.537-1.2 1.2-1.2h16.8c0.663 0 1.2 0.537 1.2 1.2s-0.537 1.2-1.2 1.2h-0.4v22c0 0.663-0.537 1.2-1.2 1.2h-2.4c-0.663 0-1.2-0.537-1.2-1.2v-4c0-0.663-0.537-1.2-1.2-1.2h-4c-0.663 0-1.2 0.537-1.2 1.2v4c0 0.663-0.537 1.2-1.2 1.2h-4c-0.663 0-1.2-0.537-1.2-1.2s0.537-1.2 1.2-1.2h0.4v-20.8h-0.4c-0.663 0-1.2-0.537-1.2-1.2zM6.4 8.8c0-0.442 0.358-0.8 0.8-0.8h1.6c0.442 0 0.8 0.358 0.8 0.8v1.6c0 0.442-0.358 0.8-0.8 0.8h-1.6c-0.442 0-0.8-0.358-0.8-0.8v-1.6zM7.2 14.4c-0.442 0-0.8 0.358-0.8 0.8v1.6c0 0.442 0.358 0.8 0.8 0.8h1.6c0.442 0 0.8-0.358 0.8-0.8v-1.6c0-0.442-0.358-0.8-0.8-0.8h-1.6zM12.8 8.8c0-0.442 0.358-0.8 0.8-0.8h1.6c0.442 0 0.8 0.358 0.8 0.8v1.6c0 0.442-0.358 0.8-0.8 0.8h-1.6c-0.442 0-0.8-0.358-0.8-0.8v-1.6zM13.6 14.4c-0.442 0-0.8 0.358-0.8 0.8v1.6c0 0.442 0.358 0.8 0.8 0.8h1.6c0.442 0 0.8-0.358 0.8-0.8v-1.6c0-0.442-0.358-0.8-0.8-0.8h-1.6z"></path>
<path  d="M22.8 9.6h6.4c0.663 0 1.2 0.537 1.2 1.2s-0.537 1.2-1.2 1.2h-0.4v14.4h0.4c0.663 0 1.2 0.537 1.2 1.2s-0.537 1.2-1.2 1.2h-6c-0.884 0-1.6-0.716-1.6-1.6v-16.4c0-0.663 0.537-1.2 1.2-1.2zM23.6 15.2v1.6c0 0.442 0.358 0.8 0.8 0.8h1.6c0.442 0 0.8-0.358 0.8-0.8v-1.6c0-0.442-0.358-0.8-0.8-0.8h-1.6c-0.442 0-0.8 0.358-0.8 0.8zM24.4 20.8c-0.442 0-0.8 0.358-0.8 0.8v1.6c0 0.442 0.358 0.8 0.8 0.8h1.6c0.442 0 0.8-0.358 0.8-0.8v-1.6c0-0.442-0.358-0.8-0.8-0.8h-1.6z"></path>
</symbol>
<symbol id="icon-send-email" viewBox="0 0 32 32">
<path  d="M28.57 3.438c-0.667-0.681-1.653-0.933-2.573-0.667l-21.453 6.199c-0.971 0.269-1.659 1.039-1.844 2.015-0.189 0.995 0.472 2.259 1.336 2.787l6.708 4.096c0.688 0.421 1.576 0.316 2.145-0.255l7.681-7.681c0.387-0.401 1.027-0.401 1.413 0 0.387 0.385 0.387 1.013 0 1.413l-7.695 7.681c-0.571 0.571-0.677 1.456-0.257 2.145l4.099 6.733c0.48 0.799 1.307 1.253 2.213 1.253 0.107 0 0.227 0 0.333-0.015 1.040-0.132 1.867-0.84 2.173-1.84l6.36-21.292c0.28-0.907 0.027-1.893-0.64-2.573z"></path>
<path  opacity="0.4" d="M12.602 25.523c0.389 0.391 0.389 1.024 0 1.415l-1.821 1.82c-0.195 0.196-0.451 0.293-0.707 0.293s-0.512-0.097-0.707-0.293c-0.391-0.391-0.391-1.023 0-1.413l1.82-1.821c0.391-0.389 1.024-0.389 1.415 0zM11.557 20.472c0.389 0.391 0.389 1.024 0 1.415l-1.821 1.82c-0.195 0.196-0.451 0.293-0.707 0.293s-0.512-0.097-0.707-0.293c-0.391-0.391-0.391-1.023 0-1.413l1.82-1.821c0.391-0.389 1.024-0.389 1.415 0zM6.542 18.883c0.389 0.391 0.389 1.024 0 1.415l-1.821 1.82c-0.195 0.196-0.451 0.293-0.707 0.293s-0.512-0.097-0.707-0.293c-0.391-0.391-0.391-1.023 0-1.413l1.82-1.821c0.391-0.389 1.024-0.389 1.415 0z"></path>
</symbol>
<symbol id="icon-Shape" viewBox="0 0 32 32">
<path  d="M14.317 2.62c0.787-1.226 2.578-1.226 3.366 0l4.033 6.278c0.271 0.422 0.69 0.726 1.175 0.854l7.217 1.895c1.409 0.37 1.962 2.073 1.040 3.201l-4.725 5.775c-0.317 0.388-0.477 0.881-0.449 1.381l0.428 7.449c0.084 1.454-1.366 2.507-2.723 1.978l-6.953-2.709c-0.467-0.182-0.985-0.182-1.452 0l-6.953 2.709c-1.357 0.529-2.806-0.524-2.723-1.978l0.428-7.449c0.029-0.5-0.131-0.993-0.449-1.381l-4.725-5.775c-0.922-1.127-0.369-2.831 1.040-3.201l7.217-1.895c0.485-0.127 0.904-0.432 1.175-0.854l4.033-6.278z"></path>
</symbol>
<symbol id="icon-slide-arrow" viewBox="0 0 32 32">
<path  d="M4.799 16c0-0.663 0.537-1.2 1.2-1.2h17.021l-6.652-6.335c-0.478-0.459-0.493-1.219-0.033-1.697s1.219-0.493 1.697-0.033l8.8 8.4c0.235 0.226 0.368 0.539 0.368 0.865s-0.133 0.639-0.368 0.865l-8.8 8.4c-0.478 0.459-1.237 0.444-1.697-0.033s-0.445-1.237 0.033-1.697l6.652-6.335h-17.021c-0.663 0-1.2-0.537-1.2-1.2z"></path>
</symbol>
<symbol id="icon-slide-arrow2" viewBox="0 0 32 32">
<path  d="M27.201 16c0 0.663-0.537 1.2-1.2 1.2h-17.021l6.652 6.335c0.478 0.459 0.493 1.219 0.033 1.697s-1.219 0.493-1.697 0.033l-8.8-8.4c-0.235-0.226-0.368-0.539-0.368-0.865s0.133-0.639 0.368-0.865l8.8-8.4c0.478-0.459 1.237-0.444 1.697 0.033s0.445 1.237-0.033 1.697l-6.652 6.335h17.021c0.663 0 1.2 0.537 1.2 1.2z"></path>
</symbol>
<symbol id="icon-Symbol" viewBox="0 0 32 32">
<path  d="M16 32c-8.836 0-16-7.164-16-16h16v16z"></path>
<path  d="M0 0c8.836 0 16 7.164 16 16h-16v-16z"></path>
<path  d="M16 32c8.836 0 16-7.164 16-16h-16v16z"></path>
<path  d="M32 16c0-8.836-7.164-16-16-16v16h16z"></path>
</symbol>
<symbol id="icon-twitter" viewBox="0 0 32 32">
<path  d="M28.699 8.127c-0.954 0.414-1.964 0.688-2.997 0.813 1.090-0.651 1.906-1.675 2.298-2.883-1.024 0.61-2.145 1.039-3.314 1.27-0.782-0.848-1.822-1.412-2.959-1.604s-2.305-0.002-3.322 0.541c-1.017 0.543-1.825 1.409-2.297 2.461s-0.582 2.231-0.311 3.351c-2.071-0.105-4.096-0.644-5.945-1.582s-3.479-2.255-4.786-3.865c-0.458 0.8-0.699 1.706-0.698 2.629-0.002 0.856 0.209 1.7 0.612 2.455s0.987 1.4 1.699 1.875c-0.828-0.023-1.638-0.245-2.362-0.648v0.063c0.006 1.2 0.427 2.361 1.19 3.286s1.823 1.559 3 1.793c-0.453 0.138-0.923 0.211-1.397 0.216-0.328-0.004-0.655-0.034-0.978-0.089 0.335 1.032 0.984 1.934 1.855 2.581s1.923 1.005 3.008 1.026c-1.832 1.442-4.094 2.228-6.425 2.235-0.424 0.001-0.849-0.024-1.27-0.076 2.38 1.537 5.154 2.353 7.987 2.349 1.955 0.020 3.895-0.349 5.706-1.087s3.456-1.829 4.841-3.21c1.384-1.381 2.48-3.024 3.222-4.832s1.117-3.748 1.102-5.703c0-0.216 0-0.444 0-0.673 0.996-0.743 1.856-1.654 2.54-2.692z"></path>
</symbol>
<symbol id="icon-value" viewBox="0 0 32 32">
<path  d="M16 10c-1.657 0-3 1.343-3 3s1.343 3 3 3c1.657 0 3-1.343 3-3s-1.343-3-3-3z"></path>
<path  d="M2 6.5c0-1.381 1.119-2.5 2.5-2.5h23c1.381 0 2.5 1.119 2.5 2.5v13c0 1.381-1.119 2.5-2.5 2.5h-23c-1.381 0-2.5-1.119-2.5-2.5v-13zM11 13c0-2.761 2.239-5 5-5s5 2.239 5 5c0 2.761-2.239 5-5 5s-5-2.239-5-5zM25 12c-0.552 0-1 0.448-1 1v0.010c0 0.552 0.448 1 1 1h0.010c0.552 0 1-0.448 1-1v-0.010c0-0.552-0.448-1-1-1h-0.010zM6 13c0-0.552 0.448-1 1-1h0.010c0.552 0 1 0.448 1 1v0.010c0 0.552-0.448 1-1 1h-0.010c-0.552 0-1-0.448-1-1v-0.010z"></path>
<path  d="M3 24c-0.552 0-1 0.448-1 1s0.448 1 1 1c7.2 0 14.174 0.963 20.8 2.767 1.588 0.432 3.2-0.744 3.2-2.426v-1.34c0-0.552-0.448-1-1-1h-23z"></path>
</symbol>
<symbol id="icon-villa" viewBox="0 0 32 32">
<path  d="M6.857 25.905h-0.381c-0.631 0-1.143 0.512-1.143 1.143s0.512 1.143 1.143 1.143h5.333c0.631 0 1.143-0.512 1.143-1.143v-3.81c0-0.631 0.512-1.143 1.143-1.143h3.81c0.631 0 1.143 0.512 1.143 1.143v3.81c0 0.631 0.512 1.143 1.143 1.143h5.333c0.631 0 1.143-0.512 1.143-1.143s-0.512-1.143-1.143-1.143h-0.381v-19.81h0.381c0.631 0 1.143-0.512 1.143-1.143s-0.512-1.143-1.143-1.143h-19.048c-0.631 0-1.143 0.512-1.143 1.143s0.512 1.143 1.143 1.143h0.381v19.81zM11.429 9.143c0-0.421 0.341-0.762 0.762-0.762h1.524c0.421 0 0.762 0.341 0.762 0.762v1.524c0 0.421-0.341 0.762-0.762 0.762h-1.524c-0.421 0-0.762-0.341-0.762-0.762v-1.524zM12.19 14.476c-0.421 0-0.762 0.341-0.762 0.762v1.524c0 0.421 0.341 0.762 0.762 0.762h1.524c0.421 0 0.762-0.341 0.762-0.762v-1.524c0-0.421-0.341-0.762-0.762-0.762h-1.524zM17.524 9.143c0-0.421 0.341-0.762 0.762-0.762h1.524c0.421 0 0.762 0.341 0.762 0.762v1.524c0 0.421-0.341 0.762-0.762 0.762h-1.524c-0.421 0-0.762-0.341-0.762-0.762v-1.524zM18.286 14.476c-0.421 0-0.762 0.341-0.762 0.762v1.524c0 0.421 0.341 0.762 0.762 0.762h1.524c0.421 0 0.762-0.341 0.762-0.762v-1.524c0-0.421-0.341-0.762-0.762-0.762h-1.524z"></path>
</symbol>
<symbol id="icon-youtube" viewBox="0 0 32 32">
<path  d="M29.969 13.092c0.063-1.818-0.335-3.622-1.156-5.244-0.557-0.666-1.33-1.115-2.184-1.27-3.533-0.321-7.081-0.452-10.629-0.394-3.534-0.061-7.070 0.066-10.591 0.381-0.696 0.127-1.34 0.453-1.854 0.94-1.143 1.054-1.27 2.857-1.397 4.381-0.184 2.74-0.184 5.489 0 8.229 0.037 0.858 0.164 1.709 0.381 2.54 0.153 0.641 0.463 1.235 0.902 1.727 0.517 0.512 1.176 0.857 1.892 0.99 2.738 0.338 5.496 0.478 8.254 0.419 4.444 0.064 8.343 0 12.952-0.355 0.733-0.125 1.411-0.471 1.943-0.99 0.355-0.356 0.621-0.791 0.775-1.27 0.454-1.394 0.677-2.852 0.66-4.317 0.051-0.711 0.051-5.003 0.051-5.765zM13.13 19.619v-7.86l7.517 3.949c-2.108 1.168-4.889 2.489-7.518 3.911z"></path>
</symbol>
<symbol id="icon-Decisions-Container" viewBox="0 0 32 32">
<path  style="stroke: var(--color1, #000)" stroke-linejoin="miter" stroke-linecap="butt" stroke-miterlimit="4" stroke-width="0.6667" d="M16 0.333c8.652 0 15.667 7.014 15.667 15.667s-7.014 15.667-15.667 15.667c-8.652 0-15.667-7.014-15.667-15.667s7.014-15.667 15.667-15.667z"></path>
<path  style="stroke: var(--color1, #000)" stroke-linejoin="miter" stroke-linecap="butt" stroke-miterlimit="4" stroke-width="0.6667" d="M16 0.333c8.652 0 15.667 7.014 15.667 15.667s-7.014 15.667-15.667 15.667c-8.652 0-15.667-7.014-15.667-15.667s7.014-15.667 15.667-15.667z"></path>
<path  style="stroke: var(--color1, #000)" stroke-linejoin="miter" stroke-linecap="butt" stroke-miterlimit="4" stroke-width="0.6667" d="M16 4.333c6.443 0 11.667 5.223 11.667 11.667s-5.223 11.667-11.667 11.667c-6.443 0-11.667-5.223-11.667-11.667s5.223-11.667 11.667-11.667z"></path>
<path  style="stroke: var(--color1, #000)" stroke-linejoin="miter" stroke-linecap="butt" stroke-miterlimit="4" stroke-width="0.6667" d="M16 4.333c6.443 0 11.667 5.223 11.667 11.667s-5.223 11.667-11.667 11.667c-6.443 0-11.667-5.223-11.667-11.667s5.223-11.667 11.667-11.667z"></path>
<path  d="M16 10.583c0.23 0 0.417 0.187 0.417 0.417v1.25c0 0.23-0.187 0.417-0.417 0.417s-0.417-0.187-0.417-0.417v-1.25c0-0.23 0.187-0.417 0.417-0.417z"></path>
<path  d="M13.5 16c0-1.381 1.119-2.5 2.5-2.5s2.5 1.119 2.5 2.5c0 1.381-1.119 2.5-2.5 2.5s-2.5-1.119-2.5-2.5z"></path>
<path  d="M19.83 12.759c0.163-0.163 0.163-0.427 0-0.589s-0.427-0.163-0.589 0l-0.884 0.884c-0.163 0.163-0.163 0.427 0 0.589s0.427 0.163 0.589 0l0.884-0.884z"></path>
<path  d="M21.417 16c0 0.23-0.187 0.417-0.417 0.417h-1.25c-0.23 0-0.417-0.187-0.417-0.417s0.187-0.417 0.417-0.417h1.25c0.23 0 0.417 0.187 0.417 0.417z"></path>
<path  d="M19.241 19.83c0.163 0.163 0.427 0.163 0.589 0s0.163-0.427 0-0.589l-0.884-0.884c-0.163-0.163-0.427-0.163-0.589 0s-0.163 0.427 0 0.589l0.884 0.884z"></path>
<path  d="M16 19.333c0.23 0 0.417 0.187 0.417 0.417v1.25c0 0.23-0.187 0.417-0.417 0.417s-0.417-0.187-0.417-0.417v-1.25c0-0.23 0.187-0.417 0.417-0.417z"></path>
<path  d="M13.643 18.946c0.163-0.163 0.163-0.427 0-0.589s-0.427-0.163-0.589 0l-0.884 0.884c-0.163 0.163-0.163 0.427 0 0.589s0.427 0.163 0.589 0l0.884-0.884z"></path>
<path  d="M12.667 16c0 0.23-0.187 0.417-0.417 0.417h-1.25c-0.23 0-0.417-0.187-0.417-0.417s0.187-0.417 0.417-0.417h1.25c0.23 0 0.417 0.187 0.417 0.417z"></path>
<path  d="M13.054 13.643c0.163 0.163 0.427 0.163 0.589 0s0.163-0.427 0-0.589l-0.884-0.884c-0.163-0.163-0.427-0.163-0.589 0s-0.163 0.427 0 0.589l0.884 0.884z"></path>
</symbol>
<symbol id="icon-abstract-design1" viewBox="0 0 59 32">
<path d="M14.39 0.484c0.043-0.062 0.106-0.039 0.067-0.307-0.145-0.438 0.040 0.082 0.023 0.008-0.021 0.129-0.101 0.066-0.149 0.059 0.015 0.058 0.035 0.152 0.060 0.24z"></path>
<path d="M5.161 27.297c-0.336-0.559-0.61-1.173-0.879-1.721-0.143 0.221-0.553 2.637-1.119 6.424h1.225c0.371-2.781 0.647-4.505 0.773-4.703z"></path>
<path d="M4.111 25.694c-0.272-0.519-0.524-1.013-0.78-1.388-0.139 0.201-0.635 3.162-1.317 7.694h1.108c0.496-3.719 0.856-6.093 0.989-6.306z"></path>
<path d="M3.209 24.156c-0.229-0.326-0.448-0.636-0.663-0.931-0.256 1.478-0.514 2.937-0.763 4.387-0.253 1.472-0.502 2.937-0.745 4.385l0.016 0.003h0.996c0.371-2.576 0.765-5.2 1.159-7.844v0z"></path>
<path d="M2.456 23.072c-0.191-0.305-0.374-0.576-0.547-0.832-0.329 1.623-0.658 3.228-0.974 4.802-0.319 1.59-0.633 3.162-0.935 4.704v0.063c0.287 0.054 0.582 0.108 0.885 0.157 0.247-1.459 0.508-2.942 0.772-4.437 0.259-1.47 0.535-2.954 0.8-4.457z"></path>
<path d="M1.823 22.127c-0.164-0.244-0.292-0.491-0.406-0.753-0.401 1.745-0.806 3.475-1.181 5.177l-0.236 1.070v3.449c0.268-1.347 0.545-2.713 0.826-4.093 0.324-1.593 0.658-3.217 0.997-4.85l-0-0z"></path>
<path d="M1.333 21.275c-0.139-0.219-0.263-0.428-0.373-0.657-0.323 1.308-0.644 2.604-0.96 3.887v2.589l0.136-0.601c0.385-1.708 0.787-3.454 1.197-5.218v-0z"></path>
<path d="M0.898 20.522c-0.11-0.181-0.185-0.394-0.259-0.606-0.215 0.807-0.428 1.609-0.639 2.405v1.812c0.297-1.191 0.599-2.395 0.898-3.611v-0z"></path>
<path d="M0.559 19.859c-0.074-0.184-0.141-0.373-0.189-0.555l-0.37 1.315v1.339c0.184-0.696 0.371-1.395 0.559-2.098z"></path>
<path d="M0.339 19.159c-0.060-0.178-0.107-0.348-0.148-0.5l-0.191 0.653v1.050l0.339-1.204z"></path>
<path d="M0.178 18.564c-0.034-0.161-0.050-0.323-0.071-0.479l-0.107 0.354v0.729l0.178-0.604z"></path>
<path d="M0.098 18.026c-0.015-0.154-0.005-0.327 0.011-0.491l-0.109 0.351v0.464l0.098-0.323z"></path>
<path d="M0.115 17.422c0.002-0.13 0.029-0.283 0.056-0.444l-0.171 0.55v0.263l0.115-0.369z"></path>
<path d="M0.174 16.937c0.026-0.137 0.069-0.27 0.119-0.419l-0.293 0.943v0.031l0.174-0.555h-0z"></path>
<path d="M0.322 16.429c0.061-0.13 0.127-0.273 0.174-0.385-0.165 0.534-0.33 1.068-0.496 1.601v-0.182c0.108-0.345 0.216-0.689 0.322-1.035z"></path>
<path d="M0.547 15.96c0.071-0.124 0.165-0.263 0.259-0.395-0.269 0.882-0.539 1.763-0.807 2.641v-0.472c0.183-0.591 0.366-1.184 0.547-1.774h0z"></path>
<path d="M14.594 32c-0.652-0.633-1.271-1.222-1.859-1.823-0.362 0.594-0.74 1.207-1.117 1.823h2.976z"></path>
<path d="M12.4 29.873c-0.673-0.707-1.297-1.293-1.884-1.834-0.663 0.914-1.278 1.802-1.927 2.785 0.29 0.355 0.586 0.754 0.896 1.176h1.585c0.447-0.73 0.89-1.436 1.33-2.127z"></path>
<path d="M10.241 27.749c-0.582-0.519-1.094-1.013-1.592-1.488-0.582 0.78-1.178 1.611-1.76 2.431 0.444 0.568 0.934 1.148 1.439 1.79 0.641-0.927 1.255-1.826 1.913-2.733z"></path>
<path d="M8.408 26.042c-0.459-0.402-0.899-0.81-1.31-1.188-0.516 0.683-1.050 1.346-1.592 2.054 0.377 0.466 0.762 0.957 1.172 1.51 0.577-0.796 1.161-1.617 1.731-2.375h-0z"></path>
<path d="M5.669 23.46c-0.316-0.313-0.627-0.592-0.927-0.862-0.426 0.504-0.89 1.058-1.315 1.594 0.24 0.323 0.52 0.669 0.798 1.062 0.483-0.633 0.955-1.184 1.444-1.794z"></path>
<path d="M4.567 22.506c-0.268-0.263-0.54-0.501-0.776-0.767-0.381 0.449-0.78 0.912-1.151 1.361 0.202 0.303 0.428 0.607 0.663 0.931 0.412-0.505 0.85-1.031 1.263-1.525z"></path>
<path d="M3.621 21.586c-0.218-0.241-0.427-0.461-0.627-0.679-0.348 0.396-0.707 0.814-1.036 1.204 0.16 0.25 0.349 0.504 0.546 0.783 0.371-0.444 0.763-0.889 1.118-1.308h-0z"></path>
<path d="M2.868 20.785c-0.191-0.187-0.36-0.382-0.541-0.562-0.301 0.339-0.619 0.687-0.921 1.026 0.127 0.244 0.276 0.484 0.412 0.743 0.35-0.393 0.715-0.81 1.050-1.207z"></path>
<path d="M2.256 20.128c-0.159-0.172-0.304-0.371-0.429-0.549-0.28 0.303-0.544 0.601-0.844 0.923 0.123 0.217 0.248 0.422 0.379 0.645 0.294-0.329 0.599-0.67 0.894-1.020h-0z"></path>
<path d="M1.746 19.439c-0.136-0.158-0.252-0.308-0.374-0.463-0.26 0.282-0.517 0.572-0.742 0.82 0.075 0.195 0.177 0.379 0.259 0.589 0.28-0.315 0.57-0.64 0.856-0.946h-0z"></path>
<path d="M1.324 18.928c-0.108-0.154-0.196-0.321-0.29-0.456-0.207 0.215-0.416 0.454-0.62 0.684 0.061 0.179 0.115 0.369 0.189 0.553 0.238-0.262 0.474-0.524 0.721-0.781z"></path>
<path d="M0.994 18.38c-0.093-0.129-0.149-0.279-0.204-0.417-0.18 0.188-0.367 0.384-0.543 0.576 0.034 0.164 0.088 0.326 0.122 0.519 0.203-0.22 0.425-0.468 0.625-0.678h-0z"></path>
<path d="M0.75 17.903c-0.042-0.145-0.091-0.266-0.133-0.402-0.16 0.166-0.301 0.329-0.469 0.505 0.022 0.149 0.044 0.31 0.078 0.466 0.182-0.201 0.357-0.39 0.524-0.568v-0z"></path>
<path d="M0.597 17.403c-0.023-0.133-0.053-0.251-0.058-0.392-0.146 0.158-0.273 0.296-0.395 0.425-0.016 0.166-0.012 0.312-0.003 0.475 0.142-0.155 0.309-0.342 0.456-0.507v-0z"></path>
<path d="M2.747 13.739c0.184-0.099 0.358-0.193 0.547-0.269-0 0.027 0.005 0.044 0.023 0.042-0.202 0.095-0.415 0.22-0.583 0.309 0.001-0.037 0.001-0.047 0.013-0.082z"></path>
<path d="M0.516 16.532c0.025-0.127 0.043-0.248 0.072-0.355-0.075 0.074-0.174 0.182-0.256 0.274-0.044 0.143-0.087 0.284-0.132 0.429 0.12-0.128 0.209-0.23 0.316-0.348h0z"></path>
<path d="M0.623 16.081c0.042-0.117 0.088-0.237 0.135-0.351-0.074 0.086-0.13 0.16-0.205 0.243-0.078 0.138-0.138 0.269-0.199 0.413 0.095-0.112 0.17-0.198 0.269-0.304h-0z"></path>
<path d="M1.504 14.693c0.108-0.112 0.22-0.215 0.339-0.308-0.030 0.042-0.060 0.086-0.085 0.121-0.131 0.116-0.255 0.224-0.375 0.335 0.042-0.047 0.067-0.082 0.121-0.148z"></path>
<path d="M21.292 30.953c-1.138-0.766-2.124-1.492-3.153-2.16-0.613 1.041-1.251 2.070-1.895 3.207h4.487c0.185-0.353 0.372-0.702 0.56-1.048z"></path>
<path d="M17.679 28.497c-0.905-0.638-1.751-1.249-2.534-1.809-0.657 0.978-1.307 1.952-1.955 2.987 0.76 0.704 1.538 1.488 2.428 2.249 0.682-1.198 1.391-2.317 2.061-3.427z"></path>
<path d="M14.77 26.428c-0.75-0.434-1.414-0.913-2.060-1.36-0.596 0.798-1.211 1.634-1.806 2.507 0.606 0.568 1.227 1.147 1.923 1.812 0.664-1.041 1.284-2.022 1.943-2.959z"></path>
<path d="M12.416 24.831c-0.622-0.401-1.189-0.807-1.735-1.148-0.547 0.683-1.128 1.457-1.684 2.247 0.509 0.447 1.050 0.883 1.635 1.383 0.572-0.834 1.184-1.662 1.784-2.482z"></path>
<path d="M10.42 23.517c-0.52-0.309-0.99-0.637-1.457-0.906-0.518 0.61-1.015 1.243-1.545 1.924 0.416 0.363 0.874 0.733 1.334 1.144 0.55-0.721 1.119-1.485 1.668-2.163z"></path>
<path d="M4.219 13.123c-0.121-0.012-0.23-0.025-0.328-0.044-0.2 0.197-0.384 0.381-0.58 0.568 0.098 0.014 0.19 0.046 0.294 0.070 0.202-0.191 0.397-0.389 0.614-0.594z"></path>
<path d="M7.333 21.511c-0.368-0.22-0.702-0.453-1.044-0.667-0.424 0.504-0.862 1.011-1.291 1.527 0.306 0.246 0.623 0.519 0.964 0.792 0.452-0.556 0.905-1.099 1.371-1.652z"></path>
<path d="M6.097 20.775c-0.305-0.214-0.613-0.407-0.906-0.604-0.365 0.42-0.746 0.86-1.112 1.304 0.249 0.249 0.514 0.484 0.789 0.74 0.404-0.467 0.816-0.954 1.229-1.439z"></path>
<path d="M5.009 20.054c-0.275-0.167-0.497-0.362-0.741-0.522-0.347 0.388-0.698 0.771-1.027 1.154 0.2 0.21 0.422 0.414 0.661 0.644 0.379-0.461 0.748-0.876 1.107-1.276h0z"></path>
<path d="M4.129 19.426c-0.229-0.161-0.437-0.323-0.656-0.449-0.304 0.329-0.622 0.671-0.945 1.055 0.175 0.181 0.357 0.358 0.561 0.564 0.335-0.38 0.692-0.792 1.040-1.171z"></path>
<path d="M3.396 18.908c-0.192-0.152-0.376-0.28-0.533-0.428-0.278 0.301-0.565 0.613-0.842 0.906 0.144 0.17 0.29 0.359 0.463 0.543 0.303-0.354 0.609-0.688 0.912-1.022v0z"></path>
<path d="M2.75 18.38c-0.168-0.11-0.304-0.256-0.439-0.382-0.265 0.276-0.533 0.567-0.796 0.862 0.141 0.128 0.251 0.299 0.381 0.455 0.277-0.307 0.577-0.632 0.855-0.935v-0z"></path>
<path d="M2.236 17.958c-0.147-0.107-0.242-0.249-0.363-0.371-0.227 0.236-0.462 0.487-0.679 0.727 0.107 0.134 0.202 0.284 0.31 0.438 0.244-0.266 0.486-0.532 0.732-0.794z"></path>
<path d="M1.207 16.778c-0.049-0.117-0.092-0.221-0.13-0.328-0.156 0.165-0.293 0.31-0.438 0.465 0.023 0.125 0.060 0.24 0.071 0.386 0.177-0.182 0.335-0.354 0.497-0.523l-0-0z"></path>
<path d="M1.037 16.412c-0.012-0.125-0.050-0.211-0.057-0.315-0.118 0.123-0.242 0.255-0.361 0.385-0.006 0.119 0.005 0.244 0.017 0.362 0.132-0.145 0.263-0.292 0.4-0.432z"></path>
<path d="M0.999 15.686c0.010-0.078 0.038-0.192 0.059-0.279-0.080 0.088-0.166 0.187-0.24 0.268-0.059 0.122-0.099 0.237-0.135 0.354 0.105-0.107 0.204-0.224 0.315-0.343l0-0z"></path>
<path d="M1.2 15.099c0.044-0.076 0.112-0.189 0.203-0.302-0.049 0.064-0.109 0.132-0.134 0.181-0.109 0.131-0.189 0.235-0.276 0.354 0.061-0.073 0.141-0.158 0.207-0.233h-0z"></path>
<path d="M1.816 14.318c0.083-0.092 0.172-0.174 0.254-0.247-0.053 0.069-0.101 0.134-0.154 0.191-0.101 0.093-0.202 0.194-0.291 0.275 0.072-0.080 0.125-0.141 0.191-0.219h-0z"></path>
<path d="M1.599 14.784c0.014-0.070 0.046-0.146 0.060-0.216-0.084 0.099-0.174 0.199-0.259 0.288-0.032 0.082-0.076 0.172-0.109 0.26 0.097-0.103 0.205-0.214 0.308-0.332z"></path>
<path d="M40.111 20.178c-1.856-0.391-3.562-0.776-5.168-1.142-0.619 0.998-1.251 1.952-1.843 2.975 1.558 0.434 3.277 0.993 5.181 1.562 0.619-1.178 1.22-2.293 1.83-3.395h-0z"></path>
<path d="M29.407 19.051c-1.296-0.287-2.436-0.571-3.57-0.785-0.556 0.754-1.162 1.534-1.767 2.353 1.107 0.336 2.269 0.697 3.518 1.097 0.582-0.898 1.215-1.819 1.819-2.665v0z"></path>
<path d="M27.883 13.185c-1.032-0.041-1.998-0.104-2.929-0.153-0.524 0.572-1.037 1.131-1.53 1.711 0.904 0.082 1.863 0.186 2.884 0.336 0.509-0.654 1.018-1.287 1.575-1.893z"></path>
<path d="M33.366 32c-1.323-0.702-2.561-1.365-3.727-2.005-0.333 0.655-0.667 1.323-0.997 2.005h4.723z"></path>
<path d="M28.847 29.584c-1.519-0.808-2.857-1.587-4.166-2.284-0.687 1.188-1.39 2.467-2.091 3.742 0.429 0.317 0.865 0.635 1.312 0.957h3.766c0.399-0.826 0.791-1.628 1.179-2.416z"></path>
<path d="M24.075 26.988c-1.185-0.582-2.28-1.122-3.285-1.658-0.648 0.984-1.338 2.039-1.961 3.129 0.979 0.679 2.033 1.375 3.191 2.125 0.669-1.256 1.368-2.423 2.055-3.596z"></path>
<path d="M20.24 25.18c-0.979-0.501-1.872-0.939-2.718-1.357-0.583 0.829-1.199 1.687-1.817 2.56 0.813 0.554 1.702 1.164 2.639 1.806 0.643-1.083 1.263-2.041 1.896-3.008v0z"></path>
<path d="M17 23.518c-0.782-0.361-1.52-0.712-2.22-1.062-0.558 0.715-1.119 1.47-1.68 2.245 0.662 0.458 1.355 0.896 2.111 1.334 0.586-0.829 1.192-1.678 1.788-2.517v-0z"></path>
<path d="M14.376 22.251c-0.636-0.359-1.244-0.624-1.848-0.887-0.525 0.669-1.064 1.352-1.618 2.042 0.571 0.32 1.168 0.692 1.769 1.105 0.557-0.764 1.14-1.53 1.697-2.261z"></path>
<path d="M12.264 21.291c-0.536-0.26-1.066-0.504-1.581-0.72-0.457 0.576-0.94 1.15-1.416 1.724 0.468 0.29 0.964 0.602 1.466 0.936 0.517-0.657 1.039-1.315 1.531-1.941h0z"></path>
<path d="M8.857 19.711c-0.426-0.155-0.798-0.328-1.168-0.499-0.398 0.448-0.811 0.918-1.192 1.361 0.336 0.217 0.662 0.45 1.063 0.655 0.42-0.505 0.854-1.016 1.297-1.518v0z"></path>
<path d="M7.493 19.132c-0.359-0.17-0.683-0.339-1.002-0.465-0.37 0.402-0.713 0.793-1.096 1.227 0.292 0.19 0.593 0.373 0.903 0.584 0.407-0.456 0.789-0.905 1.194-1.346z"></path>
<path d="M6.332 18.605c-0.291-0.137-0.555-0.279-0.829-0.398-0.348 0.372-0.693 0.738-1.003 1.106 0.226 0.166 0.491 0.326 0.753 0.497 0.372-0.411 0.727-0.81 1.078-1.206h0z"></path>
<path d="M5.304 18.155c-0.265-0.119-0.503-0.231-0.734-0.36-0.276 0.298-0.603 0.648-0.883 0.968 0.2 0.145 0.427 0.288 0.656 0.451 0.31-0.36 0.643-0.715 0.961-1.060z"></path>
<path d="M4.442 17.73c-0.221-0.098-0.442-0.196-0.637-0.295-0.27 0.287-0.53 0.571-0.799 0.851 0.17 0.129 0.367 0.247 0.552 0.406 0.293-0.331 0.577-0.646 0.884-0.962v-0z"></path>
<path d="M3.749 17.381c-0.193-0.092-0.36-0.195-0.545-0.278-0.234 0.24-0.482 0.503-0.731 0.762 0.154 0.116 0.303 0.246 0.471 0.379 0.262-0.288 0.535-0.571 0.805-0.863z"></path>
<path d="M3.124 17.022c-0.147-0.109-0.293-0.211-0.438-0.287-0.24 0.251-0.456 0.48-0.675 0.713 0.114 0.123 0.241 0.237 0.376 0.358 0.249-0.268 0.497-0.523 0.737-0.784v0z"></path>
<path d="M2.601 16.68c-0.132-0.072-0.258-0.147-0.365-0.242-0.203 0.215-0.388 0.409-0.606 0.642 0.094 0.105 0.189 0.207 0.296 0.312 0.218-0.227 0.435-0.45 0.675-0.712z"></path>
<path d="M22.842 15.89c-0.864-0.119-1.687-0.22-2.486-0.345-0.498 0.598-1 1.174-1.529 1.774 0.761 0.16 1.572 0.312 2.435 0.525 0.53-0.669 1.062-1.312 1.58-1.954h-0z"></path>
<path d="M6.812 12.812c-0.235 0.002-0.458 0.002-0.669 0.006-0.247 0.247-0.501 0.489-0.739 0.729 0.206-0.004 0.384 0.031 0.609 0.039 0.26-0.26 0.524-0.519 0.799-0.774l-0 0z"></path>
<path d="M6.775 12.044c-0.213 0.026-0.415 0.045-0.611 0.061-0.24 0.225-0.469 0.441-0.693 0.653 0.18 0.001 0.366-0.001 0.558-0.009 0.24-0.229 0.496-0.47 0.746-0.706z"></path>
<path d="M47.711 32c-0.63-0.266-1.245-0.527-1.846-0.785-0.101 0.258-0.2 0.52-0.297 0.785h2.143z"></path>
<path d="M22.379 10.248c-0.745 0.039-1.452 0.073-2.126 0.105-0.415 0.412-0.827 0.83-1.25 1.228 0.674 0.004 1.348-0.005 2.074-0.015 0.421-0.446 0.866-0.882 1.303-1.318h0z"></path>
<path d="M36.844 27.421c-1.896-0.775-3.634-1.46-5.289-2.093-0.645 1.191-1.335 2.47-1.964 3.841 1.624 0.849 3.325 1.71 5.227 2.632 0.643-1.489 1.338-2.965 2.025-4.38h0z"></path>
<path d="M26.11 23.199c-1.2-0.446-2.341-0.842-3.4-1.232-0.617 0.881-1.245 1.816-1.856 2.761 1.012 0.517 2.126 1.043 3.265 1.575 0.664-1.041 1.326-2.113 1.99-3.104l0-0z"></path>
<path d="M18.831 20.7c-0.829-0.28-1.585-0.536-2.305-0.8-0.522 0.643-1.068 1.341-1.593 2.058 0.686 0.331 1.436 0.682 2.194 1.045 0.548-0.797 1.138-1.579 1.704-2.303h-0z"></path>
<path d="M16.115 19.772c-0.687-0.23-1.329-0.434-1.946-0.62-0.516 0.609-1.017 1.227-1.534 1.842 0.586 0.25 1.184 0.502 1.83 0.814 0.56-0.718 1.096-1.41 1.649-2.037z"></path>
<path d="M13.903 19.085c-0.571-0.184-1.126-0.365-1.67-0.549-0.453 0.537-0.907 1.065-1.37 1.612 0.501 0.224 1.030 0.476 1.569 0.718 0.504-0.607 1.002-1.207 1.471-1.781l0 0z"></path>
<path d="M11.874 18.426c-0.488-0.147-0.965-0.288-1.401-0.429-0.456 0.507-0.888 0.98-1.315 1.487 0.409 0.161 0.849 0.344 1.331 0.574 0.455-0.578 0.934-1.119 1.385-1.633z"></path>
<path d="M10.259 17.952c-0.443-0.122-0.84-0.262-1.239-0.377-0.391 0.422-0.79 0.876-1.161 1.315 0.36 0.158 0.731 0.333 1.161 0.479 0.4-0.456 0.824-0.95 1.239-1.417h0z"></path>
<path d="M8.807 17.507c-0.382-0.103-0.742-0.192-1.081-0.291-0.358 0.39-0.727 0.775-1.067 1.157 0.311 0.118 0.651 0.257 0.989 0.424 0.378-0.443 0.767-0.864 1.159-1.291z"></path>
<path d="M7.57 17.167c-0.324-0.089-0.633-0.183-0.93-0.287-0.331 0.356-0.665 0.712-0.978 1.058 0.261 0.125 0.549 0.249 0.844 0.365 0.354-0.374 0.703-0.759 1.063-1.137h-0z"></path>
<path d="M6.437 16.845c-0.287-0.087-0.541-0.185-0.787-0.262-0.304 0.305-0.604 0.618-0.9 0.921 0.218 0.135 0.468 0.257 0.739 0.366 0.319-0.349 0.629-0.686 0.949-1.026h-0z"></path>
<path d="M5.469 16.568c-0.238-0.082-0.475-0.151-0.705-0.214-0.251 0.263-0.528 0.55-0.783 0.829 0.206 0.085 0.408 0.182 0.629 0.276 0.278-0.292 0.566-0.585 0.859-0.891v0z"></path>
<path d="M4.702 16.306c-0.198-0.081-0.395-0.156-0.597-0.222-0.24 0.248-0.499 0.526-0.736 0.777 0.179 0.090 0.352 0.185 0.538 0.277 0.261-0.276 0.532-0.548 0.795-0.832l-0-0z"></path>
<path d="M4.013 16.028c-0.182-0.068-0.346-0.128-0.515-0.179-0.234 0.232-0.464 0.458-0.689 0.7 0.151 0.073 0.297 0.161 0.449 0.257 0.249-0.255 0.497-0.52 0.755-0.777h0z"></path>
<path d="M17.291 15.23c-0.647-0.066-1.27-0.116-1.868-0.182-0.442 0.475-0.893 0.962-1.342 1.443 0.577 0.097 1.152 0.212 1.799 0.343 0.471-0.545 0.938-1.088 1.411-1.604z"></path>
<path d="M15.151 15.005c-0.563-0.071-1.114-0.119-1.609-0.185-0.433 0.444-0.861 0.899-1.263 1.344 0.49 0.095 0.995 0.191 1.54 0.278 0.433-0.466 0.89-0.963 1.332-1.437z"></path>
<path d="M13.297 14.794c-0.514-0.050-0.975-0.093-1.422-0.136-0.387 0.393-0.793 0.814-1.18 1.218 0.43 0.081 0.874 0.163 1.343 0.262 0.407-0.459 0.837-0.912 1.259-1.344z"></path>
<path d="M11.665 14.633c-0.438-0.042-0.853-0.067-1.25-0.104-0.363 0.367-0.749 0.772-1.1 1.133 0.378 0.064 0.774 0.111 1.179 0.175 0.37-0.386 0.783-0.808 1.171-1.203h-0z"></path>
<path d="M10.221 14.515c-0.383-0.042-0.741-0.094-1.1-0.109-0.337 0.336-0.683 0.685-1.024 1.046 0.322 0.056 0.664 0.119 1.034 0.188 0.355-0.38 0.732-0.76 1.090-1.125z"></path>
<path d="M8.955 14.401c-0.335-0.032-0.643-0.061-0.956-0.082-0.329 0.318-0.66 0.645-0.946 0.949 0.274 0.055 0.568 0.111 0.893 0.152 0.33-0.352 0.659-0.685 1.009-1.020h0z"></path>
<path d="M7.858 14.308c-0.3-0.030-0.592-0.050-0.854-0.078-0.303 0.294-0.601 0.598-0.895 0.892 0.247 0.058 0.529 0.087 0.795 0.126 0.311-0.307 0.618-0.622 0.954-0.939v-0z"></path>
<path d="M6.853 14.234c-0.266-0.024-0.514-0.047-0.749-0.069-0.257 0.266-0.528 0.534-0.801 0.795 0.224 0.038 0.462 0.095 0.689 0.146 0.283-0.294 0.564-0.573 0.861-0.871z"></path>
<path d="M5.961 14.15c-0.227-0.016-0.431-0.042-0.639-0.053-0.248 0.235-0.497 0.48-0.747 0.729 0.192 0.036 0.373 0.079 0.578 0.112 0.267-0.261 0.544-0.529 0.808-0.788v0z"></path>
<path d="M5.203 14.076c-0.196-0.024-0.367-0.045-0.55-0.061-0.237 0.231-0.476 0.456-0.709 0.696 0.16 0.039 0.333 0.067 0.512 0.113 0.245-0.25 0.5-0.502 0.747-0.748h-0z"></path>
<path d="M4.576 14.011c-0.165-0.027-0.306-0.062-0.452-0.090-0.214 0.214-0.435 0.431-0.634 0.633 0.129 0.038 0.277 0.076 0.413 0.121 0.222-0.222 0.455-0.447 0.674-0.664z"></path>
<path d="M4.030 13.902c-0.128-0.025-0.268-0.033-0.384-0.064-0.203 0.2-0.407 0.398-0.595 0.59 0.105 0.035 0.21 0.074 0.333 0.107 0.205-0.201 0.426-0.408 0.646-0.632h-0z"></path>
<path d="M2.57 14.023c-0.040-0.034-0.073-0.086-0.101-0.123-0.135 0.143-0.27 0.268-0.382 0.395-0.002 0.062 0.020 0.117 0.047 0.17 0.148-0.146 0.284-0.286 0.436-0.441h0z"></path>
<path d="M5.202 12.857c0.323-0.068 0.64-0.137 1.004-0.209 0.086-0.044 0.166-0.064 0.269-0.102-0.386 0.094-0.738 0.169-1.078 0.25-0.080 0.054-0.133 0.029-0.195 0.061z"></path>
<path d="M7.399 12.497c0.457-0.040 0.919-0.038 1.423-0.061 0.094-0.009 0.201-0.017 0.311-0.050-0.526 0.050-1.007 0.039-1.472 0.067-0.109 0.041-0.193 0.026-0.262 0.045v-0z"></path>
<path d="M16.559 13.447c-0.583-0.037-1.161-0.058-1.683-0.092-0.419 0.419-0.832 0.845-1.236 1.279 0.516 0.052 1.067 0.102 1.615 0.166 0.432-0.467 0.879-0.93 1.304-1.353l0 0z"></path>
<path d="M14.622 13.341c-0.522-0.008-1.017-0.019-1.482-0.039-0.377 0.387-0.792 0.792-1.158 1.179 0.44 0.043 0.918 0.077 1.411 0.117 0.399-0.422 0.821-0.848 1.228-1.257v-0z"></path>
<path d="M12.916 13.3c-0.461-0.011-0.893-0.011-1.32-0.021-0.363 0.345-0.724 0.712-1.075 1.090 0.401 0.022 0.816 0.051 1.248 0.101 0.36-0.385 0.769-0.792 1.148-1.171l-0 0z"></path>
<path d="M11.397 13.267c-0.407-0.008-0.786-0.001-1.154-0.013-0.348 0.333-0.686 0.666-1.015 0.995 0.346 0.015 0.709 0.059 1.097 0.101 0.354-0.361 0.715-0.734 1.071-1.083z"></path>
<path d="M10.066 13.246c-0.365 0.007-0.682-0.010-1.014-0.007-0.328 0.316-0.646 0.621-0.955 0.931 0.307 0.028 0.627 0.054 0.966 0.075 0.329-0.336 0.663-0.653 1.004-0.999z"></path>
<path d="M8.899 13.228c-0.325-0.004-0.62-0.005-0.915-0.015-0.302 0.291-0.594 0.579-0.887 0.873 0.263 0.051 0.549 0.064 0.847 0.084 0.32-0.318 0.621-0.626 0.955-0.942h-0z"></path>
<path d="M7.847 13.216c-0.275 0-0.554 0.012-0.792 0.006-0.276 0.258-0.558 0.534-0.837 0.798 0.24 0.014 0.487 0.034 0.747 0.065 0.282-0.292 0.586-0.578 0.883-0.869z"></path>
<path d="M18.020 11.893c-0.613 0.007-1.205 0.015-1.758 0.029-0.403 0.404-0.806 0.793-1.203 1.194 0.544 0.018 1.116 0.046 1.69 0.070 0.431-0.435 0.863-0.876 1.271-1.293v-0z"></path>
<path d="M16.004 11.941c-0.54 0.002-1.062 0.025-1.548 0.041-0.382 0.371-0.767 0.742-1.137 1.111 0.473-0.005 0.979 0.003 1.489 0.027 0.39-0.41 0.789-0.794 1.196-1.179z"></path>
<path d="M14.211 11.986c-0.479 0.009-0.942 0.028-1.379 0.048-0.349 0.335-0.704 0.681-1.059 1.045 0.419 0.003 0.859 0.011 1.312 0.018 0.37-0.374 0.754-0.752 1.126-1.111h0z"></path>
<path d="M12.63 12.036c-0.435 0.025-0.811 0.032-1.208 0.055-0.353 0.328-0.673 0.642-1.011 0.969 0.378 0.002 0.763-0.002 1.175 0.006 0.333-0.348 0.689-0.694 1.044-1.030z"></path>
<path d="M11.218 12.108c-0.362 0.007-0.716 0.017-1.068 0.038-0.326 0.315-0.639 0.613-0.942 0.907 0.316 0.016 0.655 0.018 1.025 0.010 0.327-0.329 0.654-0.637 0.985-0.955z"></path>
<path d="M9.977 12.151c-0.345 0.024-0.648 0.037-0.939 0.048-0.308 0.284-0.623 0.57-0.905 0.847 0.288 0.005 0.589 0.014 0.919 0.006 0.303-0.293 0.61-0.591 0.925-0.902z"></path>
<path d="M8.857 12.234c-0.306 0.025-0.578 0.040-0.854 0.056-0.282 0.267-0.577 0.542-0.849 0.817 0.26-0.020 0.534-0.024 0.82-0.035 0.283-0.266 0.565-0.532 0.883-0.837v-0z"></path>
<path d="M17.304 10.644c-0.561 0.032-1.092 0.054-1.606 0.096-0.381 0.363-0.748 0.714-1.12 1.092 0.507-0.034 1.013-0.038 1.563-0.054 0.373-0.379 0.763-0.757 1.163-1.134h0z"></path>
<path d="M15.441 10.776c-0.503 0.023-0.965 0.066-1.431 0.115-0.354 0.326-0.697 0.658-1.049 0.996 0.453-0.038 0.894-0.039 1.383-0.054 0.369-0.361 0.739-0.728 1.096-1.057z"></path>
<path d="M13.795 10.909c-0.443 0.034-0.853 0.078-1.268 0.123-0.336 0.304-0.661 0.621-0.999 0.939 0.4-0.041 0.794-0.049 1.234-0.081 0.33-0.319 0.68-0.647 1.034-0.981z"></path>
<path d="M12.325 11.046c-0.391 0.035-0.76 0.056-1.126 0.091-0.316 0.295-0.623 0.587-0.936 0.886 0.352-0.018 0.7-0.034 1.089-0.051 0.333-0.314 0.642-0.619 0.973-0.925z"></path>
<path d="M11.017 11.159c-0.33 0.022-0.659 0.053-0.998 0.101-0.297 0.271-0.595 0.554-0.884 0.825 0.308-0.015 0.627-0.045 0.955-0.054 0.32-0.299 0.627-0.583 0.927-0.872z"></path>
<path d="M9.007 11.471c-0.291 0.036-0.569 0.069-0.825 0.091-0.263 0.241-0.543 0.497-0.813 0.751 0.257-0.023 0.522-0.029 0.786-0.045 0.268-0.263 0.558-0.529 0.852-0.797v-0z"></path>
<path d="M8.026 11.576c-0.249 0.022-0.487 0.038-0.717 0.067-0.241 0.232-0.485 0.45-0.717 0.677 0.204-0.003 0.437-0.020 0.659-0.027 0.248-0.231 0.517-0.483 0.775-0.717z"></path>
<path d="M16.697 9.615c-0.505 0.060-0.992 0.117-1.482 0.175-0.348 0.323-0.687 0.637-1.044 0.965 0.481-0.063 0.933-0.090 1.448-0.145 0.352-0.34 0.718-0.661 1.078-0.996z"></path>
<path d="M14.989 9.814c-0.45 0.049-0.901 0.113-1.33 0.166-0.318 0.3-0.65 0.604-0.983 0.915 0.42-0.047 0.826-0.079 1.28-0.117 0.356-0.334 0.697-0.644 1.033-0.964v0z"></path>
<path d="M13.453 10.004c-0.399 0.045-0.791 0.099-1.192 0.159-0.306 0.287-0.598 0.549-0.917 0.843 0.365-0.035 0.739-0.064 1.131-0.090 0.326-0.313 0.663-0.623 0.978-0.912z"></path>
<path d="M12.086 10.191c-0.354 0.054-0.709 0.101-1.045 0.146-0.292 0.268-0.598 0.537-0.888 0.801 0.334-0.034 0.662-0.070 1.008-0.109 0.32-0.29 0.623-0.564 0.925-0.838z"></path>
<path d="M9.957 10.568c-0.305 0.049-0.587 0.083-0.852 0.117-0.274 0.251-0.55 0.498-0.81 0.75 0.261-0.027 0.528-0.054 0.824-0.092 0.275-0.256 0.55-0.507 0.838-0.775v-0z"></path>
<path d="M8.909 10.76c-0.27 0.036-0.51 0.074-0.756 0.119-0.255 0.227-0.505 0.452-0.773 0.694 0.23-0.030 0.479-0.049 0.728-0.070 0.261-0.249 0.525-0.496 0.801-0.744l-0 0z"></path>
<path d="M17.78 8.42c-0.532 0.083-1.035 0.158-1.518 0.241-0.347 0.289-0.676 0.585-1.033 0.911 0.487-0.074 0.979-0.127 1.481-0.192 0.358-0.331 0.712-0.645 1.069-0.96l0 0z"></path>
<path d="M16.032 8.686c-0.476 0.082-0.93 0.146-1.376 0.223-0.309 0.286-0.632 0.562-0.96 0.862 0.432-0.063 0.879-0.117 1.33-0.186 0.331-0.3 0.661-0.593 1.006-0.899z"></path>
<path d="M17.265 7.622c-0.484 0.085-0.948 0.179-1.401 0.263-0.326 0.288-0.645 0.565-0.964 0.843 0.428-0.073 0.892-0.144 1.38-0.227 0.322-0.286 0.658-0.582 0.986-0.879h-0z"></path>
<path d="M22.528 7.925c-0.696 0.096-1.344 0.185-1.961 0.249-0.41 0.353-0.786 0.716-1.149 1.056 0.598-0.050 1.236-0.122 1.912-0.195 0.384-0.367 0.784-0.738 1.198-1.11l0-0z"></path>
<path d="M3.743 14.778c-0.148-0.041-0.283-0.084-0.412-0.119-0.201 0.198-0.408 0.401-0.605 0.623 0.1 0.052 0.218 0.114 0.342 0.171 0.215-0.217 0.446-0.453 0.675-0.676z"></path>
<path d="M4.296 14.918c-0.173-0.041-0.334-0.085-0.488-0.125-0.236 0.238-0.461 0.467-0.675 0.685 0.125 0.068 0.262 0.132 0.412 0.198 0.244-0.253 0.499-0.512 0.752-0.758z"></path>
<path d="M4.94 15.064c-0.199-0.035-0.38-0.084-0.554-0.134-0.264 0.267-0.519 0.521-0.757 0.768 0.163 0.053 0.326 0.114 0.521 0.163 0.261-0.267 0.532-0.535 0.79-0.797h-0z"></path>
<path d="M5.762 15.228c-0.233-0.050-0.458-0.103-0.683-0.139-0.264 0.261-0.54 0.555-0.807 0.831 0.202 0.055 0.399 0.135 0.602 0.215 0.29-0.312 0.596-0.608 0.887-0.908v0z"></path>
<path d="M6.654 15.375c-0.272-0.041-0.542-0.081-0.77-0.133-0.297 0.295-0.603 0.595-0.899 0.904 0.23 0.075 0.472 0.14 0.723 0.211 0.3-0.321 0.615-0.645 0.946-0.981z"></path>
<path d="M7.672 15.57c-0.313-0.048-0.601-0.103-0.875-0.161-0.343 0.348-0.664 0.682-0.963 0.998 0.252 0.072 0.524 0.162 0.804 0.246 0.351-0.371 0.676-0.712 1.034-1.083v0z"></path>
<path d="M8.821 15.811c-0.356-0.061-0.687-0.129-1.009-0.195-0.345 0.366-0.688 0.719-1.033 1.084 0.296 0.096 0.611 0.19 0.935 0.284 0.366-0.398 0.747-0.798 1.108-1.174z"></path>
<path d="M10.275 16.021c-0.409-0.081-0.8-0.142-1.164-0.195-0.373 0.372-0.752 0.779-1.123 1.176 0.344 0.082 0.716 0.17 1.086 0.293 0.408-0.448 0.797-0.864 1.201-1.273h-0z"></path>
<path d="M11.77 16.286c-0.46-0.090-0.914-0.191-1.312-0.27-0.408 0.428-0.82 0.85-1.21 1.287 0.393 0.12 0.808 0.251 1.261 0.358 0.415-0.462 0.834-0.909 1.26-1.375v-0z"></path>
<path d="M13.548 16.603c-0.533-0.093-1.062-0.173-1.519-0.305-0.43 0.474-0.87 0.952-1.278 1.417 0.453 0.131 0.93 0.264 1.434 0.391 0.461-0.517 0.903-1.006 1.363-1.504h-0z"></path>
<path d="M15.561 17.028c-0.626-0.129-1.203-0.245-1.744-0.367-0.465 0.51-0.935 1.020-1.393 1.552 0.565 0.156 1.086 0.351 1.684 0.504 0.494-0.568 0.982-1.133 1.453-1.688z"></path>
<path d="M17.888 17.56c-0.733-0.143-1.382-0.279-2.037-0.421-0.489 0.561-0.976 1.131-1.464 1.689 0.611 0.202 1.259 0.399 1.938 0.602 0.537-0.654 1.048-1.27 1.563-1.87z"></path>
<path d="M42.111 14.32c-0.461-0.368-0.913-0.74-1.326-1.079-0.667 0.377-1.331 0.728-2.001 1.126 0.374 0.39 0.744 0.799 1.192 1.217 0.723-0.427 1.445-0.851 2.134-1.265h0z"></path>
<path d="M19.484 13.565c-0.183-0.185-0.363-0.356-0.549-0.503-0.26 0.182-0.53 0.375-0.797 0.559 0.166 0.175 0.323 0.362 0.491 0.574 0.288-0.215 0.574-0.428 0.856-0.629h-0z"></path>
<path d="M12.221 6.745c-0.071-0.109-0.137-0.222-0.197-0.336-0.234 0.193-0.483 0.402-0.728 0.606 0.038 0.131 0.092 0.25 0.153 0.378 0.256-0.215 0.517-0.434 0.772-0.648h0z"></path>
<path d="M50.16 25.623c-0.577-0.451-1.12-0.883-1.649-1.263-0.688 0.211-1.363 0.462-2.071 0.7 0.514 0.416 1.019 0.864 1.538 1.348 0.739-0.277 1.494-0.527 2.181-0.786l-0 0z"></path>
<path d="M13.867 8.207c-0.057-0.062-0.101-0.123-0.146-0.181-0.152 0.11-0.305 0.218-0.452 0.326 0.034 0.067 0.069 0.145 0.109 0.211 0.163-0.118 0.321-0.235 0.489-0.356v0z"></path>
<path d="M19.101 5.358c-0.137-0.058-0.267-0.11-0.395-0.157-0.194 0.132-0.387 0.268-0.585 0.411 0.108 0.065 0.227 0.123 0.362 0.197 0.202-0.157 0.41-0.304 0.619-0.451v-0z"></path>
<path d="M48.231 10.694c-0.543-0.223-1.048-0.418-1.527-0.601-0.62 0.257-1.207 0.503-1.769 0.764 0.433 0.216 0.89 0.437 1.4 0.709 0.655-0.305 1.292-0.608 1.896-0.872z"></path>
<path d="M16.881 5.011c-0.083-0.039-0.145-0.090-0.21-0.128-0.158 0.103-0.308 0.219-0.46 0.331 0.056 0.049 0.107 0.107 0.174 0.152 0.151-0.115 0.323-0.237 0.496-0.355z"></path>
<path d="M13.429 4.161c-0.044-0.032-0.092-0.056-0.135-0.086-0.114 0.088-0.238 0.179-0.347 0.263 0.038 0.034 0.070 0.069 0.104 0.108 0.125-0.094 0.254-0.189 0.378-0.285z"></path>
<path d="M5.096 12.818c-0.019-0.047-0.043-0.094-0.056-0.14-0.091 0.062-0.176 0.133-0.266 0.198 0.007 0.055 0.020 0.107 0.032 0.159 0.102-0.073 0.193-0.145 0.29-0.217z"></path>
<path d="M50.577 18.013c-0.386-0.185-0.699-0.359-1.029-0.526-0.485 0.137-0.949 0.261-1.411 0.395 0.284 0.171 0.605 0.371 0.945 0.559 0.507-0.138 1.003-0.287 1.496-0.429z"></path>
<path d="M22.136 4.465c-0.136-0.040-0.274-0.067-0.392-0.108-0.189 0.123-0.388 0.251-0.567 0.369 0.114 0.050 0.22 0.092 0.346 0.139 0.188-0.129 0.408-0.271 0.612-0.4z"></path>
<path d="M17.139 1.425c-0.086-0.016-0.172-0.030-0.257-0.034-0.142 0.090-0.277 0.193-0.413 0.291 0.080 0.014 0.161 0.029 0.242 0.047 0.145-0.106 0.286-0.207 0.427-0.304z"></path>
<path d="M14.995 5.149c-0.078-0.025-0.155-0.042-0.227-0.064-0.121 0.087-0.259 0.183-0.386 0.269 0.073 0.026 0.139 0.049 0.212 0.076 0.137-0.095 0.264-0.185 0.401-0.281h-0z"></path>
<path d="M1.805 15.226c-0.022-0.036-0.039-0.064-0.061-0.1-0.072 0.049-0.143 0.098-0.209 0.145 0.016 0.037 0.026 0.072 0.049 0.102 0.072-0.046 0.15-0.097 0.221-0.146z"></path>
<path d="M13.152 7.155c-0.078-0.026-0.151-0.055-0.223-0.074-0.114 0.078-0.24 0.161-0.361 0.238 0.073 0.026 0.145 0.053 0.213 0.083 0.12-0.082 0.246-0.164 0.371-0.247z"></path>
<path d="M25.319 8.228c-0.17-0.044-0.333-0.089-0.489-0.131-0.206 0.111-0.406 0.216-0.623 0.332 0.161 0.037 0.318 0.087 0.476 0.133 0.205-0.114 0.429-0.228 0.637-0.334z"></path>
<path d="M1.257 14.448c-0.021-0.037-0.048-0.068-0.070-0.097-0.070 0.045-0.135 0.092-0.2 0.144 0.021 0.031 0.042 0.064 0.063 0.1 0.071-0.050 0.142-0.1 0.206-0.147z"></path>
<path d="M11.259 8.911c-0.073-0.025-0.146-0.059-0.212-0.086-0.112 0.075-0.214 0.143-0.321 0.216 0.061 0.028 0.123 0.060 0.19 0.094 0.113-0.078 0.226-0.146 0.343-0.226v0z"></path>
<path d="M12.179 5.935c-0.063-0.016-0.126-0.023-0.189-0.034-0.092 0.063-0.189 0.133-0.283 0.192 0.052 0.011 0.115 0.027 0.168 0.045 0.103-0.071 0.2-0.139 0.303-0.203v-0z"></path>
<path d="M58.791 22.155c-0.516-0.155-1.061-0.339-1.612-0.499-0.511 0.109-1.062 0.187-1.581 0.283 0.496 0.152 1.032 0.329 1.528 0.505 0.579-0.097 1.115-0.187 1.665-0.288v-0z"></path>
<path d="M19.154 2.352c-0.114 0.005-0.216 0.006-0.318 0.007-0.12 0.076-0.245 0.156-0.375 0.241 0.102-0.005 0.195 0.004 0.298 0.003 0.129-0.085 0.259-0.171 0.395-0.25h0z"></path>
<path d="M2.672 14.898c-0.035-0.026-0.070-0.053-0.092-0.077-0.065 0.041-0.136 0.089-0.195 0.126 0.023 0.028 0.052 0.051 0.080 0.081 0.071-0.048 0.136-0.088 0.207-0.13v-0z"></path>
<path d="M33.318 12.142c-0.257-0.063-0.532-0.1-0.794-0.156-0.258 0.090-0.493 0.168-0.724 0.26 0.238 0.044 0.495 0.105 0.764 0.166 0.251-0.093 0.509-0.182 0.753-0.27h0z"></path>
<path d="M32.442 16.8c-0.232-0.145-0.461-0.288-0.691-0.414-0.323 0.124-0.652 0.27-0.983 0.41 0.214 0.143 0.428 0.282 0.643 0.444 0.359-0.163 0.699-0.299 1.032-0.441v0z"></path>
<path d="M1.94 16.076c-0.022-0.064-0.038-0.129-0.054-0.184-0.091 0.065-0.188 0.137-0.285 0.212 0.010 0.065 0.020 0.139 0.035 0.205 0.098-0.077 0.201-0.155 0.304-0.233v0z"></path>
<path d="M26.832 11.048c-0.209-0.119-0.401-0.226-0.58-0.329-0.275 0.152-0.561 0.314-0.847 0.478 0.18 0.11 0.341 0.243 0.541 0.357 0.304-0.171 0.595-0.34 0.886-0.506z"></path>
</symbol>
<symbol id="icon-abstract-design2" viewBox="0 0 69 32">
<path d="M64.13 28.966c0.402-0.669 0.73-1.404 1.051-2.060 0.171 0.264 0.661 3.156 1.339 7.689h-1.465c-0.444-3.328-0.774-5.392-0.925-5.629z"></path>
<path d="M65.385 27.047c0.325-0.621 0.627-1.212 0.932-1.661 0.166 0.241 0.759 3.785 1.575 9.208h-1.325c-0.593-4.452-1.023-7.292-1.183-7.547z"></path>
<path d="M66.463 25.206c0.274-0.391 0.535-0.761 0.793-1.114 0.306 1.769 0.615 3.515 0.912 5.25 0.302 1.762 0.6 3.515 0.89 5.248l-0.019 0.004h-1.191c-0.444-3.084-0.915-6.224-1.386-9.389v0z"></path>
<path d="M67.364 23.908c0.229-0.365 0.447-0.69 0.654-0.996 0.394 1.942 0.786 3.864 1.165 5.748 0.382 1.903 0.757 3.785 1.118 5.63v0.076c-0.343 0.065-0.696 0.129-1.058 0.188-0.295-1.747-0.608-3.521-0.923-5.311-0.31-1.759-0.639-3.536-0.956-5.335z"></path>
<path d="M68.121 22.777c0.196-0.293 0.35-0.588 0.486-0.901 0.479 2.089 0.964 4.159 1.412 6.196l0.282 1.281v4.128c-0.32-1.612-0.652-3.247-0.988-4.899-0.387-1.907-0.787-3.85-1.192-5.806l0-0z"></path>
<path d="M55.474 32.049c0.804-0.846 1.55-1.547 2.253-2.195 0.793 1.094 1.528 2.156 2.304 3.334-0.347 0.425-0.701 0.903-1.071 1.408h-1.895c-0.534-0.874-1.064-1.718-1.59-2.546z"></path>
<path d="M58.055 29.507c0.696-0.622 1.308-1.213 1.903-1.781 0.695 0.933 1.409 1.928 2.104 2.91-0.531 0.68-1.117 1.374-1.72 2.142-0.766-1.11-1.501-2.185-2.287-3.271z"></path>
<path d="M60.247 27.464c0.549-0.481 1.075-0.969 1.567-1.422 0.616 0.817 1.256 1.611 1.904 2.458-0.451 0.557-0.911 1.146-1.401 1.807-0.691-0.953-1.389-1.936-2.070-2.843h0z"></path>
<path d="M63.523 24.373c0.378-0.374 0.749-0.708 1.108-1.031 0.509 0.603 1.065 1.266 1.572 1.908-0.287 0.387-0.621 0.8-0.954 1.271-0.578-0.757-1.142-1.418-1.726-2.148z"></path>
<path d="M64.839 23.231c0.321-0.314 0.645-0.599 0.927-0.918 0.455 0.537 0.932 1.091 1.376 1.629-0.242 0.363-0.512 0.727-0.793 1.115-0.492-0.604-1.017-1.234-1.51-1.825z"></path>
<path d="M65.971 22.129c0.261-0.289 0.511-0.552 0.75-0.813 0.416 0.474 0.845 0.975 1.239 1.441-0.191 0.3-0.417 0.603-0.653 0.937-0.443-0.532-0.912-1.064-1.336-1.566h0z"></path>
<path d="M66.872 21.171c0.228-0.224 0.431-0.457 0.647-0.673 0.36 0.406 0.74 0.822 1.101 1.228-0.152 0.293-0.329 0.58-0.493 0.889-0.418-0.471-0.855-0.969-1.255-1.444z"></path>
<path d="M67.603 20.385c0.191-0.206 0.364-0.444 0.513-0.657 0.335 0.362 0.651 0.719 1.009 1.105-0.147 0.26-0.296 0.506-0.454 0.773-0.352-0.393-0.716-0.802-1.069-1.22h0z"></path>
<path d="M68.213 19.561c0.162-0.189 0.301-0.369 0.447-0.554 0.311 0.338 0.618 0.685 0.887 0.981-0.089 0.234-0.211 0.453-0.31 0.705-0.334-0.377-0.681-0.766-1.024-1.132h0z"></path>
<path d="M67.016 12.738c-0.22-0.119-0.427-0.23-0.655-0.321 0 0.033-0.006 0.052-0.027 0.050 0.241 0.113 0.496 0.263 0.697 0.37-0.001-0.044-0.001-0.057-0.015-0.099z"></path>
<path d="M68.502 13.879c-0.129-0.134-0.264-0.258-0.405-0.369 0.036 0.050 0.072 0.103 0.101 0.145 0.156 0.139 0.305 0.268 0.448 0.401-0.051-0.056-0.080-0.097-0.145-0.177z"></path>
<path d="M44.84 33.341c1.361-0.917 2.54-1.786 3.77-2.585 0.733 1.246 1.496 2.478 2.266 3.839h-5.366c-0.221-0.422-0.445-0.84-0.67-1.254z"></path>
<path d="M49.161 30.402c1.082-0.763 2.094-1.495 3.030-2.165 0.785 1.17 1.563 2.336 2.338 3.575-0.909 0.842-1.84 1.781-2.903 2.692-0.815-1.435-1.663-2.774-2.465-4.101z"></path>
<path d="M52.64 27.925c0.897-0.52 1.691-1.093 2.464-1.627 0.712 0.955 1.448 1.956 2.16 3-0.724 0.68-1.467 1.373-2.3 2.168-0.793-1.246-1.535-2.42-2.323-3.541z"></path>
<path d="M55.455 26.014c0.744-0.48 1.422-0.966 2.075-1.374 0.654 0.817 1.349 1.744 2.014 2.689-0.608 0.535-1.256 1.056-1.956 1.655-0.685-0.998-1.416-1.989-2.133-2.971z"></path>
<path d="M57.841 24.441c0.622-0.37 1.184-0.763 1.742-1.084 0.62 0.73 1.214 1.488 1.847 2.303-0.498 0.434-1.046 0.877-1.595 1.37-0.657-0.863-1.339-1.777-1.994-2.589z"></path>
<path d="M65.256 12c0.145-0.015 0.275-0.030 0.392-0.053 0.239 0.236 0.459 0.456 0.694 0.68-0.117 0.016-0.227 0.054-0.352 0.084-0.242-0.228-0.475-0.466-0.734-0.71z"></path>
<path d="M61.533 22.040c0.44-0.264 0.839-0.543 1.249-0.799 0.508 0.604 1.030 1.211 1.543 1.828-0.366 0.295-0.745 0.621-1.153 0.949-0.54-0.665-1.082-1.316-1.639-1.978z"></path>
<path d="M63.010 21.16c0.365-0.256 0.734-0.487 1.084-0.723 0.436 0.503 0.892 1.029 1.33 1.56-0.298 0.297-0.614 0.579-0.944 0.886-0.483-0.56-0.976-1.142-1.47-1.723z"></path>
<path d="M64.312 20.297c0.329-0.2 0.594-0.434 0.886-0.624 0.415 0.464 0.835 0.923 1.228 1.381-0.239 0.251-0.505 0.496-0.79 0.77-0.453-0.552-0.895-1.049-1.323-1.527h-0z"></path>
<path d="M65.363 19.545c0.274-0.192 0.523-0.387 0.785-0.537 0.363 0.393 0.744 0.803 1.13 1.263-0.209 0.217-0.427 0.429-0.671 0.675-0.401-0.454-0.828-0.948-1.243-1.401z"></path>
<path d="M66.24 18.925c0.229-0.182 0.449-0.336 0.638-0.512 0.332 0.36 0.675 0.734 1.006 1.085-0.173 0.204-0.347 0.429-0.553 0.65-0.362-0.424-0.728-0.823-1.091-1.223v0z"></path>
<path d="M67.013 18.292c0.201-0.131 0.364-0.306 0.525-0.457 0.317 0.331 0.637 0.678 0.952 1.032-0.169 0.153-0.3 0.358-0.456 0.545-0.331-0.368-0.69-0.756-1.022-1.119v-0z"></path>
<path d="M67.627 17.788c0.175-0.128 0.29-0.298 0.434-0.444 0.271 0.283 0.552 0.583 0.812 0.87-0.128 0.16-0.241 0.34-0.371 0.525-0.292-0.318-0.581-0.636-0.875-0.951z"></path>
<path d="M68.129 13.431c-0.1-0.11-0.205-0.208-0.303-0.295 0.064 0.083 0.121 0.161 0.184 0.229 0.12 0.112 0.241 0.233 0.348 0.329-0.086-0.096-0.15-0.169-0.229-0.263h0z"></path>
<path d="M68.389 13.988c-0.017-0.084-0.055-0.174-0.071-0.259 0.101 0.119 0.208 0.238 0.309 0.345 0.038 0.098 0.091 0.206 0.13 0.312-0.116-0.124-0.246-0.256-0.368-0.398z"></path>
<path d="M22.337 20.445c2.22-0.468 4.259-0.929 6.18-1.367 0.74 1.195 1.496 2.336 2.204 3.561-1.863 0.519-3.919 1.188-6.195 1.869-0.741-1.41-1.458-2.745-2.188-4.063h0z"></path>
<path d="M35.136 19.095c1.549-0.344 2.913-0.683 4.269-0.939 0.665 0.902 1.39 1.836 2.112 2.816-1.324 0.403-2.713 0.835-4.206 1.313-0.696-1.074-1.453-2.178-2.175-3.19v0z"></path>
<path d="M36.959 12.075c1.234-0.050 2.389-0.124 3.503-0.184 0.627 0.685 1.24 1.353 1.83 2.048-1.081 0.098-2.228 0.223-3.449 0.402-0.609-0.783-1.217-1.54-1.884-2.266z"></path>
<path d="M35.806 31.703c1.816-0.967 3.416-1.899 4.982-2.733 0.821 1.423 1.663 2.952 2.5 4.479-0.512 0.379-1.034 0.76-1.569 1.146h-4.503c-0.477-0.988-0.946-1.949-1.41-2.892z"></path>
<path d="M41.512 28.596c1.417-0.696 2.726-1.343 3.928-1.985 0.775 1.177 1.6 2.441 2.345 3.745-1.171 0.812-2.431 1.646-3.816 2.543-0.8-1.504-1.636-2.901-2.457-4.303z"></path>
<path d="M46.099 26.432c1.171-0.599 2.238-1.124 3.25-1.625 0.697 0.992 1.433 2.019 2.173 3.064-0.972 0.663-2.035 1.393-3.156 2.161-0.769-1.296-1.51-2.442-2.268-3.601v0z"></path>
<path d="M49.973 24.442c0.935-0.432 1.818-0.852 2.654-1.271 0.667 0.856 1.338 1.759 2.009 2.688-0.792 0.549-1.62 1.073-2.524 1.596-0.701-0.992-1.425-2.008-2.139-3.012v-0z"></path>
<path d="M53.111 22.926c0.76-0.43 1.487-0.747 2.209-1.062 0.628 0.8 1.273 1.618 1.935 2.445-0.683 0.383-1.396 0.829-2.116 1.323-0.667-0.915-1.363-1.832-2.029-2.706z"></path>
<path d="M55.636 21.776c0.641-0.311 1.275-0.603 1.891-0.862 0.546 0.689 1.123 1.377 1.693 2.064-0.56 0.347-1.152 0.72-1.753 1.121-0.618-0.787-1.243-1.574-1.831-2.323h-0z"></path>
<path d="M59.71 19.885c0.51-0.185 0.954-0.393 1.396-0.597 0.475 0.536 0.97 1.099 1.425 1.629-0.401 0.259-0.792 0.538-1.27 0.784-0.502-0.605-1.021-1.215-1.551-1.817v0z"></path>
<path d="M61.341 19.193c0.429-0.203 0.817-0.406 1.198-0.556 0.443 0.481 0.852 0.949 1.311 1.469-0.349 0.227-0.709 0.447-1.080 0.699-0.487-0.546-0.944-1.083-1.428-1.612z"></path>
<path d="M62.729 18.562c0.348-0.164 0.663-0.334 0.991-0.476 0.416 0.446 0.829 0.883 1.199 1.324-0.27 0.199-0.588 0.39-0.9 0.595-0.444-0.492-0.869-0.969-1.289-1.443h-0z"></path>
<path d="M63.959 18.024c0.317-0.143 0.602-0.277 0.878-0.431 0.33 0.357 0.721 0.776 1.056 1.159-0.239 0.173-0.51 0.345-0.785 0.54-0.371-0.431-0.769-0.855-1.149-1.268z"></path>
<path d="M64.989 17.515c0.265-0.118 0.529-0.234 0.761-0.353 0.323 0.343 0.634 0.683 0.955 1.019-0.204 0.154-0.438 0.296-0.66 0.486-0.35-0.395-0.69-0.773-1.057-1.151v-0z"></path>
<path d="M65.818 17.096c0.231-0.11 0.431-0.233 0.652-0.333 0.28 0.287 0.576 0.603 0.874 0.913-0.184 0.138-0.362 0.294-0.564 0.453-0.313-0.345-0.639-0.683-0.962-1.033z"></path>
<path d="M66.566 16.667c0.176-0.13 0.35-0.252 0.524-0.344 0.286 0.301 0.546 0.574 0.807 0.853-0.136 0.147-0.289 0.283-0.449 0.429-0.298-0.321-0.594-0.627-0.881-0.938v0z"></path>
<path d="M67.191 16.257c0.158-0.086 0.308-0.177 0.436-0.289 0.243 0.257 0.464 0.489 0.725 0.768-0.112 0.125-0.226 0.247-0.354 0.374-0.261-0.271-0.52-0.538-0.807-0.852z"></path>
<path d="M42.987 15.312c1.033-0.142 2.017-0.263 2.973-0.413 0.596 0.716 1.196 1.406 1.828 2.124-0.91 0.192-1.88 0.373-2.912 0.629-0.634-0.8-1.27-1.571-1.889-2.339h0z"></path>
<path d="M62.156 11.628c0.281 0.002 0.547 0.003 0.799 0.007 0.295 0.296 0.599 0.585 0.884 0.872-0.246-0.004-0.459 0.037-0.728 0.047-0.311-0.311-0.627-0.621-0.955-0.926l0 0z"></path>
<path d="M62.2 10.709c0.255 0.031 0.496 0.054 0.73 0.073 0.287 0.269 0.56 0.528 0.828 0.782-0.215 0.001-0.438-0.001-0.667-0.011-0.288-0.274-0.593-0.563-0.892-0.845z"></path>
<path d="M43.541 8.559c0.891 0.047 1.737 0.087 2.542 0.126 0.497 0.493 0.988 0.993 1.495 1.47-0.806 0.005-1.612-0.006-2.48-0.018-0.503-0.534-1.036-1.056-1.558-1.578h-0z"></path>
<path d="M26.244 29.114c2.267-0.927 4.346-1.747 6.324-2.505 0.771 1.425 1.596 2.957 2.348 4.597-1.942 1.016-3.976 2.047-6.251 3.15-0.769-1.783-1.599-3.549-2.422-5.242h-0z"></path>
<path d="M39.079 24.061c1.434-0.533 2.8-1.008 4.066-1.475 0.737 1.055 1.489 2.174 2.219 3.305-1.21 0.619-2.543 1.249-3.904 1.885-0.793-1.246-1.585-2.529-2.38-3.715l-0-0z"></path>
<path d="M47.783 21.069c0.991-0.336 1.895-0.642 2.756-0.958 0.624 0.769 1.278 1.605 1.904 2.464-0.82 0.396-1.718 0.817-2.624 1.251-0.655-0.954-1.361-1.889-2.037-2.757h0z"></path>
<path d="M51.032 19.959c0.821-0.276 1.59-0.519 2.327-0.742 0.617 0.729 1.216 1.469 1.834 2.205-0.701 0.299-1.415 0.6-2.188 0.975-0.669-0.859-1.311-1.687-1.972-2.438z"></path>
<path d="M53.676 19.136c0.683-0.22 1.346-0.437 1.997-0.658 0.542 0.643 1.084 1.274 1.638 1.929-0.599 0.268-1.232 0.569-1.876 0.86-0.603-0.727-1.198-1.445-1.759-2.132l-0 0z"></path>
<path d="M56.102 18.348c0.583-0.176 1.154-0.345 1.676-0.513 0.545 0.607 1.062 1.172 1.572 1.78-0.489 0.193-1.016 0.412-1.592 0.687-0.544-0.691-1.117-1.339-1.656-1.954z"></path>
<path d="M58.034 17.781c0.53-0.146 1.005-0.313 1.482-0.451 0.468 0.505 0.944 1.048 1.389 1.574-0.431 0.189-0.874 0.398-1.389 0.573-0.478-0.546-0.985-1.137-1.482-1.697h-0z"></path>
<path d="M59.77 17.248c0.457-0.123 0.887-0.23 1.293-0.348 0.428 0.468 0.869 0.927 1.276 1.385-0.372 0.141-0.779 0.308-1.183 0.508-0.452-0.53-0.917-1.034-1.385-1.545z"></path>
<path d="M61.249 16.841c0.387-0.107 0.757-0.22 1.112-0.343 0.396 0.427 0.796 0.852 1.169 1.266-0.312 0.15-0.656 0.298-1.010 0.437-0.423-0.448-0.841-0.908-1.271-1.36h0z"></path>
<path d="M62.604 16.455c0.343-0.104 0.647-0.221 0.941-0.314 0.364 0.365 0.722 0.74 1.077 1.103-0.261 0.162-0.56 0.308-0.883 0.439-0.381-0.418-0.752-0.821-1.135-1.228h0z"></path>
<path d="M63.761 16.124c0.285-0.098 0.568-0.181 0.843-0.257 0.3 0.314 0.632 0.658 0.936 0.992-0.247 0.102-0.488 0.217-0.752 0.331-0.332-0.349-0.677-0.7-1.027-1.066v0z"></path>
<path d="M64.679 15.81c0.237-0.097 0.472-0.186 0.714-0.266 0.287 0.297 0.597 0.63 0.88 0.93-0.213 0.107-0.42 0.222-0.643 0.332-0.312-0.33-0.636-0.655-0.951-0.996l0-0z"></path>
<path d="M65.503 15.477c0.218-0.081 0.414-0.153 0.616-0.215 0.28 0.277 0.555 0.549 0.824 0.838-0.18 0.087-0.355 0.192-0.537 0.307-0.298-0.306-0.594-0.622-0.902-0.93h-0z"></path>
<path d="M49.625 14.523c0.774-0.079 1.519-0.139 2.234-0.217 0.528 0.569 1.067 1.152 1.605 1.727-0.69 0.116-1.378 0.254-2.151 0.411-0.564-0.653-1.122-1.302-1.688-1.92z"></path>
<path d="M52.183 14.254c0.674-0.085 1.332-0.142 1.923-0.221 0.518 0.532 1.030 1.076 1.511 1.608-0.585 0.114-1.189 0.228-1.842 0.333-0.518-0.558-1.064-1.152-1.592-1.72z"></path>
<path d="M54.401 14c0.615-0.059 1.166-0.112 1.7-0.163 0.463 0.47 0.949 0.975 1.411 1.458-0.514 0.097-1.046 0.195-1.605 0.314-0.487-0.55-1.001-1.092-1.506-1.608z"></path>
<path d="M56.353 13.808c0.523-0.050 1.020-0.080 1.494-0.124 0.434 0.439 0.896 0.924 1.315 1.355-0.452 0.076-0.925 0.133-1.41 0.209-0.443-0.463-0.937-0.967-1.4-1.44h0z"></path>
<path d="M58.079 13.667c0.458-0.051 0.886-0.113 1.315-0.13 0.404 0.402 0.817 0.82 1.225 1.252-0.385 0.066-0.795 0.143-1.236 0.225-0.425-0.454-0.876-0.909-1.303-1.347z"></path>
<path d="M59.593 13.53c0.4-0.038 0.769-0.073 1.143-0.098 0.394 0.381 0.789 0.773 1.132 1.136-0.328 0.066-0.679 0.134-1.068 0.182-0.395-0.422-0.788-0.82-1.207-1.22h-0z"></path>
<path d="M60.905 13.419c0.359-0.037 0.708-0.060 1.021-0.094 0.362 0.352 0.718 0.716 1.070 1.067-0.295 0.069-0.633 0.104-0.95 0.151-0.371-0.368-0.739-0.744-1.141-1.124v-0z"></path>
<path d="M62.106 13.331c0.318-0.028 0.614-0.057 0.895-0.083 0.308 0.319 0.632 0.639 0.958 0.951-0.268 0.045-0.553 0.114-0.824 0.174-0.338-0.352-0.675-0.686-1.029-1.043z"></path>
<path d="M63.173 13.229c0.272-0.019 0.515-0.051 0.764-0.063 0.297 0.282 0.594 0.575 0.894 0.872-0.23 0.043-0.446 0.094-0.691 0.134-0.319-0.313-0.651-0.633-0.967-0.944v0z"></path>
<path d="M64.080 13.141c0.234-0.028 0.439-0.053 0.658-0.073 0.283 0.277 0.569 0.545 0.848 0.833-0.192 0.046-0.398 0.080-0.613 0.135-0.292-0.3-0.597-0.601-0.894-0.896h0z"></path>
<path d="M64.83 13.063c0.197-0.033 0.366-0.074 0.541-0.107 0.256 0.256 0.521 0.516 0.759 0.757-0.155 0.046-0.331 0.090-0.493 0.145-0.265-0.266-0.543-0.535-0.806-0.795z"></path>
<path d="M65.482 12.933c0.153-0.030 0.32-0.040 0.459-0.077 0.243 0.239 0.487 0.477 0.711 0.706-0.125 0.042-0.251 0.088-0.398 0.128-0.245-0.24-0.51-0.489-0.773-0.756h0z"></path>
<path d="M67.228 13.078c0.047-0.040 0.087-0.103 0.121-0.148 0.161 0.171 0.323 0.321 0.457 0.472 0.002 0.074-0.023 0.14-0.056 0.204-0.177-0.175-0.339-0.343-0.522-0.528h-0z"></path>
<path d="M64.081 11.683c-0.386-0.082-0.765-0.164-1.2-0.25-0.102-0.052-0.199-0.076-0.322-0.122 0.462 0.113 0.883 0.203 1.289 0.299 0.095 0.064 0.159 0.035 0.233 0.073z"></path>
<path d="M61.454 11.251c-0.546-0.047-1.099-0.046-1.701-0.073-0.113-0.011-0.241-0.020-0.373-0.060 0.629 0.060 1.205 0.047 1.76 0.080 0.131 0.049 0.231 0.031 0.314 0.054v-0z"></path>
<path d="M50.499 12.388c0.697-0.044 1.389-0.069 2.013-0.11 0.501 0.501 0.995 1.011 1.478 1.53-0.617 0.062-1.276 0.122-1.931 0.198-0.517-0.559-1.051-1.113-1.56-1.619l-0 0z"></path>
<path d="M52.816 12.261c0.624-0.010 1.216-0.023 1.772-0.047 0.451 0.463 0.947 0.949 1.384 1.411-0.526 0.052-1.097 0.092-1.687 0.14-0.478-0.505-0.981-1.016-1.469-1.504v-0z"></path>
<path d="M54.856 12.213c0.551-0.013 1.068-0.013 1.579-0.025 0.433 0.413 0.866 0.853 1.286 1.305-0.48 0.026-0.975 0.061-1.492 0.121-0.43-0.46-0.92-0.948-1.373-1.402l0 0z"></path>
<path d="M56.673 12.173c0.486-0.010 0.94-0.001 1.379-0.016 0.416 0.399 0.821 0.797 1.214 1.192-0.414 0.018-0.848 0.071-1.312 0.121-0.423-0.432-0.855-0.879-1.281-1.297z"></path>
<path d="M58.264 12.147c0.436 0.008 0.815-0.012 1.213-0.008 0.392 0.379 0.773 0.743 1.142 1.114-0.367 0.033-0.749 0.064-1.155 0.090-0.393-0.402-0.793-0.782-1.2-1.195z"></path>
<path d="M59.659 12.126c0.389-0.004 0.742-0.006 1.094-0.018 0.361 0.349 0.71 0.693 1.061 1.045-0.315 0.061-0.656 0.076-1.013 0.101-0.383-0.381-0.743-0.749-1.142-1.128h0z"></path>
<path d="M60.917 12.111c0.329 0 0.663 0.015 0.948 0.007 0.33 0.309 0.668 0.639 1.001 0.956-0.287 0.017-0.582 0.041-0.894 0.078-0.337-0.35-0.701-0.692-1.055-1.040z"></path>
<path d="M48.753 10.529c0.733 0.008 1.441 0.018 2.102 0.035 0.482 0.484 0.963 0.949 1.439 1.429-0.65 0.022-1.334 0.054-2.021 0.084-0.515-0.52-1.031-1.048-1.519-1.547v-0z"></path>
<path d="M51.163 10.585c0.645 0.002 1.27 0.030 1.851 0.050 0.457 0.444 0.917 0.889 1.36 1.33-0.565-0.006-1.171 0.004-1.781 0.032-0.467-0.491-0.943-0.951-1.43-1.411z"></path>
<path d="M53.308 10.64c0.572 0.011 1.126 0.034 1.649 0.057 0.417 0.401 0.842 0.815 1.267 1.25-0.501 0.004-1.027 0.013-1.569 0.022-0.442-0.448-0.902-0.9-1.347-1.329h-0z"></path>
<path d="M55.198 10.7c0.521 0.030 0.97 0.039 1.445 0.066 0.422 0.392 0.804 0.769 1.209 1.16-0.452 0.002-0.913-0.003-1.406 0.007-0.398-0.417-0.824-0.83-1.249-1.233z"></path>
<path d="M56.886 10.786c0.432 0.008 0.856 0.020 1.277 0.045 0.39 0.376 0.764 0.734 1.126 1.086-0.378 0.019-0.784 0.022-1.226 0.012-0.391-0.393-0.782-0.762-1.177-1.143z"></path>
<path d="M58.371 10.837c0.412 0.028 0.775 0.044 1.122 0.058 0.368 0.34 0.745 0.682 1.083 1.014-0.344 0.006-0.704 0.017-1.099 0.007-0.362-0.35-0.729-0.707-1.106-1.079z"></path>
<path d="M59.71 10.936c0.367 0.030 0.691 0.047 1.021 0.067 0.337 0.319 0.689 0.648 1.015 0.978-0.311-0.024-0.638-0.028-0.98-0.042-0.339-0.319-0.675-0.637-1.056-1.002v-0z"></path>
<path d="M49.609 9.033c0.671 0.038 1.306 0.064 1.92 0.114 0.455 0.434 0.895 0.855 1.339 1.307-0.606-0.041-1.212-0.045-1.869-0.064-0.446-0.453-0.912-0.906-1.39-1.357h-0z"></path>
<path d="M51.837 9.191c0.601 0.027 1.153 0.079 1.711 0.138 0.424 0.39 0.834 0.787 1.254 1.192-0.541-0.045-1.068-0.047-1.654-0.065-0.441-0.432-0.884-0.871-1.311-1.265z"></path>
<path d="M53.805 9.351c0.529 0.041 1.020 0.093 1.516 0.147 0.402 0.364 0.791 0.744 1.195 1.124-0.479-0.049-0.949-0.059-1.475-0.097-0.394-0.381-0.814-0.775-1.236-1.174z"></path>
<path d="M55.563 9.515c0.468 0.042 0.909 0.067 1.346 0.109 0.378 0.353 0.745 0.702 1.12 1.060-0.421-0.022-0.836-0.040-1.303-0.061-0.398-0.376-0.767-0.741-1.163-1.107z"></path>
<path d="M57.127 9.65c0.395 0.026 0.789 0.063 1.194 0.121 0.355 0.325 0.711 0.663 1.057 0.987-0.368-0.018-0.75-0.054-1.142-0.064-0.383-0.358-0.75-0.698-1.108-1.044z"></path>
<path d="M59.53 10.024c0.348 0.043 0.681 0.083 0.986 0.11 0.314 0.289 0.649 0.595 0.972 0.899-0.307-0.027-0.624-0.035-0.94-0.054-0.321-0.315-0.668-0.633-1.019-0.953v-0z"></path>
<path d="M60.704 10.149c0.298 0.026 0.582 0.045 0.858 0.080 0.289 0.278 0.58 0.538 0.857 0.81-0.244-0.004-0.522-0.023-0.788-0.032-0.297-0.277-0.619-0.579-0.927-0.858z"></path>
<path d="M50.335 7.802c0.604 0.071 1.186 0.14 1.773 0.21 0.416 0.387 0.821 0.762 1.248 1.156-0.576-0.075-1.116-0.107-1.732-0.174-0.421-0.407-0.858-0.791-1.289-1.192z"></path>
<path d="M52.378 8.040c0.538 0.059 1.078 0.135 1.591 0.199 0.381 0.36 0.778 0.723 1.175 1.095-0.503-0.056-0.988-0.095-1.53-0.14-0.426-0.4-0.833-0.771-1.235-1.154v0z"></path>
<path d="M54.214 8.268c0.477 0.054 0.945 0.119 1.425 0.191 0.366 0.343 0.715 0.658 1.097 1.009-0.437-0.042-0.883-0.077-1.353-0.108-0.39-0.374-0.793-0.746-1.17-1.092z"></path>
<path d="M55.849 8.491c0.424 0.065 0.847 0.121 1.249 0.175 0.349 0.321 0.715 0.643 1.062 0.959-0.399-0.041-0.792-0.084-1.206-0.131-0.383-0.347-0.745-0.675-1.106-1.003z"></path>
<path d="M58.394 8.942c0.365 0.059 0.702 0.099 1.019 0.14 0.328 0.3 0.658 0.596 0.969 0.898-0.312-0.033-0.631-0.065-0.985-0.11-0.33-0.306-0.658-0.607-1.003-0.927v-0z"></path>
<path d="M59.648 9.172c0.323 0.043 0.61 0.088 0.903 0.143 0.305 0.272 0.604 0.541 0.924 0.83-0.275-0.036-0.573-0.059-0.87-0.083-0.312-0.298-0.628-0.593-0.958-0.89l0 0z"></path>
<path d="M49.040 6.372c0.636 0.1 1.237 0.189 1.815 0.289 0.415 0.346 0.809 0.701 1.235 1.090-0.582-0.089-1.17-0.153-1.771-0.23-0.428-0.396-0.851-0.772-1.279-1.149l-0 0z"></path>
<path d="M51.13 6.689c0.569 0.098 1.112 0.174 1.645 0.267 0.369 0.343 0.756 0.673 1.148 1.032-0.517-0.075-1.051-0.14-1.591-0.223-0.395-0.36-0.791-0.71-1.202-1.076z"></path>
<path d="M49.656 5.416c0.579 0.102 1.133 0.214 1.675 0.315 0.39 0.345 0.771 0.677 1.153 1.009-0.512-0.088-1.067-0.173-1.65-0.272-0.385-0.343-0.787-0.697-1.179-1.052h0z"></path>
<path d="M43.362 5.779c0.832 0.115 1.608 0.222 2.345 0.298 0.49 0.423 0.94 0.857 1.374 1.263-0.716-0.060-1.478-0.146-2.286-0.233-0.46-0.439-0.938-0.884-1.433-1.329l-0-0z"></path>
<path d="M65.825 13.982c0.177-0.049 0.339-0.1 0.493-0.142 0.24 0.237 0.488 0.48 0.723 0.746-0.119 0.062-0.26 0.137-0.409 0.205-0.257-0.259-0.533-0.542-0.808-0.809z"></path>
<path d="M65.163 14.149c0.207-0.049 0.4-0.102 0.584-0.15 0.282 0.285 0.551 0.559 0.808 0.82-0.149 0.082-0.314 0.158-0.493 0.236-0.292-0.303-0.596-0.613-0.899-0.907z"></path>
<path d="M64.394 14.324c0.238-0.042 0.454-0.101 0.662-0.16 0.316 0.32 0.621 0.623 0.905 0.919-0.195 0.063-0.39 0.137-0.622 0.196-0.312-0.319-0.637-0.64-0.945-0.954h0z"></path>
<path d="M63.412 14.52c0.278-0.060 0.548-0.123 0.816-0.166 0.315 0.313 0.646 0.664 0.965 0.995-0.241 0.066-0.477 0.162-0.72 0.257-0.347-0.373-0.712-0.727-1.061-1.086v0z"></path>
<path d="M62.344 14.696c0.325-0.049 0.649-0.097 0.921-0.159 0.356 0.353 0.721 0.712 1.075 1.082-0.275 0.090-0.565 0.167-0.864 0.252-0.358-0.384-0.736-0.773-1.132-1.175z"></path>
<path d="M61.127 14.929c0.374-0.058 0.718-0.123 1.046-0.192 0.41 0.416 0.794 0.816 1.152 1.194-0.301 0.086-0.627 0.193-0.962 0.294-0.42-0.444-0.809-0.852-1.236-1.297v0z"></path>
<path d="M59.753 15.218c0.426-0.073 0.821-0.155 1.207-0.233 0.412 0.439 0.823 0.861 1.236 1.297-0.354 0.115-0.731 0.227-1.118 0.34-0.437-0.477-0.893-0.955-1.324-1.405z"></path>
<path d="M58.014 15.47c0.489-0.097 0.956-0.17 1.392-0.234 0.447 0.445 0.899 0.932 1.343 1.408-0.412 0.098-0.856 0.204-1.299 0.35-0.488-0.536-0.953-1.034-1.436-1.524h0z"></path>
<path d="M56.226 15.786c0.551-0.107 1.093-0.229 1.568-0.323 0.488 0.512 0.981 1.017 1.447 1.54-0.469 0.143-0.966 0.3-1.508 0.428-0.497-0.552-0.998-1.088-1.507-1.645v-0z"></path>
<path d="M54.101 16.166c0.638-0.111 1.27-0.207 1.816-0.364 0.514 0.567 1.040 1.139 1.528 1.697-0.542 0.157-1.112 0.316-1.715 0.468-0.551-0.619-1.079-1.204-1.63-1.8h0z"></path>
<path d="M51.693 16.675c0.749-0.155 1.438-0.293 2.086-0.44 0.556 0.611 1.118 1.221 1.666 1.858-0.676 0.187-1.299 0.42-2.014 0.603-0.591-0.679-1.175-1.356-1.738-2.021z"></path>
<path d="M48.911 17.312c0.876-0.172 1.653-0.334 2.436-0.504 0.584 0.671 1.167 1.354 1.751 2.022-0.731 0.242-1.505 0.478-2.318 0.72-0.643-0.783-1.253-1.52-1.869-2.238z"></path>
<path d="M19.945 13.434c0.552-0.441 1.092-0.886 1.585-1.292 0.797 0.451 1.591 0.872 2.393 1.348-0.447 0.467-0.89 0.956-1.426 1.457-0.864-0.511-1.728-1.019-2.552-1.514h-0z"></path>
<path d="M47.002 12.529c0.219-0.221 0.434-0.427 0.657-0.603 0.31 0.217 0.634 0.449 0.953 0.67-0.198 0.209-0.386 0.434-0.587 0.686-0.344-0.257-0.687-0.512-1.023-0.754h0z"></path>
<path d="M55.687 4.367c0.085-0.13 0.164-0.266 0.236-0.402 0.279 0.231 0.578 0.481 0.871 0.725-0.046 0.156-0.11 0.299-0.183 0.452-0.307-0.258-0.618-0.519-0.923-0.776h-0z"></path>
<path d="M10.32 26.962c0.689-0.54 1.34-1.056 1.971-1.512 0.822 0.253 1.629 0.552 2.476 0.838-0.614 0.497-1.218 1.035-1.839 1.614-0.883-0.332-1.787-0.631-2.608-0.941l0 0z"></path>
<path d="M53.719 6.117c0.068-0.075 0.121-0.147 0.175-0.217 0.182 0.132 0.364 0.261 0.541 0.39-0.041 0.080-0.083 0.174-0.13 0.252-0.195-0.141-0.383-0.282-0.585-0.426v0z"></path>
<path d="M47.461 2.707c0.164-0.070 0.319-0.131 0.472-0.188 0.232 0.157 0.463 0.32 0.7 0.492-0.129 0.078-0.271 0.147-0.432 0.236-0.241-0.188-0.49-0.364-0.74-0.54v-0z"></path>
<path d="M12.628 9.093c0.649-0.267 1.253-0.5 1.826-0.72 0.742 0.307 1.444 0.602 2.116 0.914-0.518 0.259-1.064 0.523-1.674 0.849-0.784-0.365-1.545-0.727-2.268-1.043z"></path>
<path d="M50.116 2.291c0.099-0.047 0.173-0.108 0.251-0.154 0.189 0.123 0.368 0.262 0.55 0.397-0.066 0.059-0.128 0.129-0.208 0.182-0.181-0.138-0.387-0.284-0.593-0.425z"></path>
<path d="M54.243 1.274c0.053-0.038 0.11-0.068 0.161-0.103 0.136 0.105 0.285 0.214 0.415 0.314-0.045 0.041-0.084 0.082-0.125 0.13-0.149-0.112-0.304-0.227-0.452-0.341z"></path>
<path d="M64.207 11.636c0.022-0.056 0.051-0.113 0.066-0.167 0.109 0.074 0.21 0.159 0.319 0.237-0.008 0.066-0.023 0.128-0.039 0.19-0.122-0.087-0.231-0.173-0.346-0.259z"></path>
<path d="M9.821 17.853c0.462-0.221 0.836-0.429 1.231-0.629 0.579 0.164 1.134 0.312 1.687 0.472-0.339 0.205-0.723 0.444-1.13 0.67-0.606-0.165-1.199-0.344-1.788-0.513z"></path>
<path d="M43.831 1.638c0.162-0.048 0.328-0.081 0.468-0.13 0.226 0.147 0.464 0.3 0.678 0.442-0.136 0.060-0.263 0.111-0.414 0.167-0.224-0.154-0.487-0.324-0.732-0.479z"></path>
<path d="M52.371 2.457c0.093-0.030 0.186-0.051 0.272-0.077 0.145 0.104 0.309 0.219 0.462 0.322-0.087 0.031-0.167 0.059-0.254 0.090-0.164-0.114-0.316-0.221-0.48-0.336h0z"></path>
<path d="M68.143 14.517c0.026-0.043 0.046-0.077 0.073-0.12 0.086 0.059 0.171 0.118 0.25 0.173-0.019 0.044-0.032 0.086-0.058 0.122-0.086-0.056-0.179-0.116-0.264-0.175z"></path>
<path d="M54.574 4.858c0.094-0.031 0.181-0.066 0.267-0.089 0.137 0.093 0.287 0.192 0.431 0.285-0.087 0.031-0.173 0.063-0.254 0.1-0.144-0.098-0.294-0.196-0.444-0.296z"></path>
<path d="M40.026 6.142c0.203-0.053 0.398-0.107 0.585-0.157 0.246 0.133 0.486 0.259 0.746 0.398-0.192 0.044-0.381 0.104-0.569 0.16-0.245-0.137-0.513-0.272-0.761-0.4z"></path>
<path d="M56.838 6.959c0.087-0.030 0.174-0.071 0.254-0.103 0.134 0.090 0.255 0.172 0.383 0.259-0.073 0.034-0.146 0.072-0.227 0.113-0.135-0.093-0.27-0.174-0.411-0.27v0z"></path>
<path d="M55.737 3.397c0.076-0.020 0.15-0.027 0.226-0.041 0.111 0.075 0.226 0.16 0.338 0.23-0.062 0.013-0.138 0.033-0.201 0.054-0.123-0.085-0.239-0.167-0.362-0.243v-0z"></path>
<path d="M0 22.811c0.617-0.186 1.269-0.406 1.928-0.598 0.611 0.131 1.27 0.224 1.89 0.338-0.593 0.181-1.235 0.394-1.828 0.605-0.693-0.116-1.333-0.224-1.99-0.345v-0z"></path>
<path d="M67.106 14.124c0.042-0.031 0.083-0.063 0.111-0.093 0.078 0.050 0.162 0.106 0.233 0.151-0.027 0.033-0.062 0.061-0.096 0.097-0.085-0.057-0.163-0.105-0.248-0.155v-0z"></path>
<path d="M30.46 10.826c0.307-0.075 0.636-0.12 0.949-0.187 0.309 0.107 0.589 0.201 0.865 0.312-0.284 0.052-0.592 0.126-0.914 0.199-0.3-0.111-0.609-0.217-0.901-0.323h-0z"></path>
<path d="M31.508 16.401c0.277-0.173 0.551-0.345 0.827-0.495 0.386 0.148 0.779 0.323 1.176 0.491-0.257 0.171-0.511 0.338-0.769 0.532-0.429-0.195-0.836-0.358-1.233-0.528v0z"></path>
<path d="M67.981 15.535c0.027-0.076 0.046-0.154 0.065-0.22 0.108 0.078 0.224 0.164 0.341 0.253-0.012 0.078-0.024 0.166-0.042 0.246-0.117-0.092-0.24-0.185-0.364-0.279v0z"></path>
<path d="M38.215 9.517c0.25-0.143 0.48-0.27 0.694-0.394 0.329 0.182 0.671 0.376 1.013 0.573-0.215 0.132-0.407 0.291-0.647 0.427-0.364-0.204-0.711-0.407-1.060-0.606z"></path>
</symbol>
<symbol id="icon-values1" viewBox="0 0 32 32">
<path fill="#a685fa" style="fill: var(--color1, #a685fa)" d="M14.383 4.281c0.598-1.437 2.634-1.437 3.232 0l2.776 6.674 7.205 0.578c1.552 0.124 2.181 2.061 0.999 3.073l-5.49 4.703 1.677 7.031c0.361 1.514-1.286 2.711-2.614 1.899l-6.169-3.768-6.169 3.768c-1.328 0.811-2.976-0.385-2.614-1.899l1.677-7.031-5.49-4.703c-1.182-1.013-0.553-2.949 0.999-3.073l7.205-0.578 2.776-6.674z"></path>
</symbol>
<symbol id="icon-values2" viewBox="0 0 32 32">
<path fill="#a685fa" style="fill: var(--color1, #a685fa)" d="M15.6 3.74c0.255-0.112 0.545-0.112 0.801 0 4.959 2.166 9.658 4.815 14.039 7.886 0.317 0.222 0.477 0.608 0.411 0.989s-0.346 0.691-0.719 0.794c-0.913 0.252-1.819 0.524-2.716 0.813-3.641 1.174-7.147 2.652-10.486 4.403l-0.004 0.002c-0.151 0.079-0.303 0.159-0.453 0.24-0.295 0.157-0.648 0.157-0.943 0-0.152-0.081-0.305-0.162-0.458-0.242-1.651-0.866-3.343-1.665-5.072-2.394v-0.298c0-0.175 0.090-0.331 0.229-0.415 2.007-1.216 4.077-2.338 6.204-3.359 0.498-0.239 0.708-0.837 0.468-1.334s-0.837-0.708-1.334-0.468c-2.186 1.050-4.313 2.202-6.374 3.452-0.604 0.366-1.011 0.966-1.145 1.637-1.14-0.439-2.295-0.847-3.464-1.224-0.897-0.289-1.802-0.56-2.716-0.812-0.373-0.103-0.653-0.412-0.719-0.794s0.094-0.767 0.411-0.989c4.381-3.071 9.080-5.719 14.039-7.886z"></path>
<path fill="#a685fa" style="fill: var(--color1, #a685fa)" d="M17.415 20.631c3.252-1.737 6.668-3.206 10.22-4.377 0.179 1.886 0.293 3.792 0.341 5.713 0.010 0.412-0.234 0.789-0.615 0.947-3.801 1.587-7.417 3.531-10.806 5.789-0.336 0.224-0.773 0.224-1.109 0-3.389-2.258-7.005-4.202-10.806-5.789-0.381-0.159-0.625-0.535-0.614-0.947 0.047-1.922 0.162-3.827 0.341-5.714 1.228 0.405 2.44 0.845 3.634 1.32v1.694c-0.598 0.346-1 0.992-1 1.732 0 0.66 0.32 1.246 0.814 1.61-0.119 0.507-0.296 1.004-0.53 1.48 0.604 0.285 1.202 0.579 1.795 0.882 0.338-0.687 0.583-1.408 0.735-2.144 0.699-0.312 1.186-1.013 1.186-1.828 0-0.74-0.402-1.387-1-1.732v-0.86c1.562 0.682 3.092 1.425 4.587 2.223 0.883 0.472 1.944 0.472 2.828 0z"></path>
<path fill="#a685fa" style="fill: var(--color1, #a685fa)" d="M5.95 25.95c0.559-0.559 1.004-1.188 1.334-1.86 0.604 0.285 1.202 0.579 1.795 0.882-0.425 0.864-0.997 1.674-1.715 2.392-0.391 0.39-1.024 0.39-1.414 0s-0.391-1.024 0-1.414z"></path>
</symbol>
<symbol id="icon-values3" viewBox="0 0 32 32">
<path fill="#a685fa" style="fill: var(--color1, #a685fa)" d="M11 9c0-2.761 2.239-5 5-5s5 2.239 5 5-2.239 5-5 5c-2.761 0-5-2.239-5-5z"></path>
<path fill="#a685fa" style="fill: var(--color1, #a685fa)" d="M21 13c0-2.209 1.791-4 4-4s4 1.791 4 4c0 2.209-1.791 4-4 4s-4-1.791-4-4z"></path>
<path fill="#a685fa" style="fill: var(--color1, #a685fa)" d="M3 13c0-2.209 1.791-4 4-4s4 1.791 4 4c0 2.209-1.791 4-4 4s-4-1.791-4-4z"></path>
<path fill="#a685fa" style="fill: var(--color1, #a685fa)" d="M8.413 20.157c1.597-2.497 4.398-4.157 7.587-4.157s5.99 1.66 7.587 4.158c1.104 1.727 1.582 3.809 1.358 5.84-0.035 0.317-0.219 0.599-0.496 0.758-2.49 1.429-5.376 2.245-8.449 2.245s-5.959-0.817-8.449-2.245c-0.277-0.159-0.461-0.44-0.496-0.758-0.224-2.031 0.254-4.113 1.358-5.841z"></path>
<path fill="#a685fa" style="fill: var(--color1, #a685fa)" d="M6.776 19.005c-0.016 0.025-0.032 0.049-0.048 0.074-1.287 2.013-1.876 4.41-1.696 6.773-0.811-0.123-1.597-0.321-2.352-0.587l-0.153-0.054c-0.28-0.099-0.475-0.352-0.498-0.648l-0.013-0.162c-0.011-0.132-0.016-0.266-0.016-0.401 0-2.687 2.119-4.878 4.776-4.995z"></path>
<path fill="#a685fa" style="fill: var(--color1, #a685fa)" d="M26.967 25.852c0.181-2.363-0.408-4.759-1.695-6.772-0.016-0.025-0.032-0.050-0.049-0.075 2.657 0.117 4.776 2.309 4.776 4.995 0 0.135-0.005 0.269-0.016 0.401l-0.013 0.162c-0.023 0.296-0.219 0.549-0.499 0.648l-0.153 0.054c-0.755 0.266-1.541 0.464-2.352 0.587z"></path>
</symbol>
<symbol id="icon-values-icon-container" viewBox="0 0 32 32">
<path fill="#141414" style="fill: var(--color1, #141414)" d="M16 0.308c8.667 0 15.692 7.026 15.692 15.692s-7.026 15.692-15.692 15.692c-8.667 0-15.692-7.026-15.692-15.692s7.026-15.692 15.692-15.692z"></path>
<path fill="none" stroke="#703bf7" style="stroke: var(--color2, #703bf7)" stroke-linejoin="miter" stroke-linecap="butt" stroke-miterlimit="4" stroke-width="0.6154" d="M16 0.308c8.667 0 15.692 7.026 15.692 15.692s-7.026 15.692-15.692 15.692c-8.667 0-15.692-7.026-15.692-15.692s7.026-15.692 15.692-15.692z"></path>
<path fill="#a685fa" style="fill: var(--color3, #a685fa)" d="M15.254 10.591c0.276-0.663 1.216-0.663 1.491 0l1.281 3.080 3.326 0.267c0.716 0.057 1.007 0.951 0.461 1.419l-2.534 2.17 0.774 3.245c0.167 0.699-0.594 1.251-1.207 0.877l-2.847-1.739-2.847 1.739c-0.613 0.374-1.373-0.178-1.207-0.877l0.774-3.245-2.534-2.17c-0.546-0.467-0.255-1.361 0.461-1.419l3.326-0.267 1.281-3.080z"></path>
</symbol>
<symbol id="icon-valued1" viewBox="0 0 32 32">
<path fill="none" stroke="#999" style="stroke: var(--color1, #999)" stroke-linejoin="round" stroke-linecap="round" stroke-miterlimit="4" stroke-width="1.7778" d="M5 8c0-1.657 1.343-3 3-3h3c1.657 0 3 1.343 3 3v3c0 1.657-1.343 3-3 3h-3c-1.657 0-3-1.343-3-3v-3z"></path>
<path fill="none" stroke="#999" style="stroke: var(--color1, #999)" stroke-linejoin="round" stroke-linecap="round" stroke-miterlimit="4" stroke-width="1.7778" d="M5 21c0-1.657 1.343-3 3-3h3c1.657 0 3 1.343 3 3v3c0 1.657-1.343 3-3 3h-3c-1.657 0-3-1.343-3-3v-3z"></path>
<path fill="none" stroke="#999" style="stroke: var(--color1, #999)" stroke-linejoin="round" stroke-linecap="round" stroke-miterlimit="4" stroke-width="1.7778" d="M18 8c0-1.657 1.343-3 3-3h3c1.657 0 3 1.343 3 3v3c0 1.657-1.343 3-3 3h-3c-1.657 0-3-1.343-3-3v-3z"></path>
<path fill="none" stroke="#999" style="stroke: var(--color1, #999)" stroke-linejoin="round" stroke-linecap="round" stroke-miterlimit="4" stroke-width="1.7778" d="M18 21c0-1.657 1.343-3 3-3h3c1.657 0 3 1.343 3 3v3c0 1.657-1.343 3-3 3h-3c-1.657 0-3-1.343-3-3v-3z"></path>
</symbol>
<symbol id="icon-valued2" viewBox="0 0 34 32">
<path fill="none" stroke="#999" style="stroke: var(--color1, #999)" stroke-linejoin="round" stroke-linecap="round" stroke-miterlimit="4" stroke-width="1.7778" d="M5.889 18l14-15-3 11h11l-14 15 3-11h-11z"></path>
</symbol>
<symbol id="icon-circle-up" viewBox="0 0 32 32">
<path d="M0 16c0 8.837 7.163 16 16 16s16-7.163 16-16-7.163-16-16-16-16 7.163-16 16zM29 16c0 7.18-5.82 13-13 13s-13-5.82-13-13 5.82-13 13-13 13 5.82 13 13z"></path>
<path d="M22.086 20.914l2.829-2.829-8.914-8.914-8.914 8.914 2.828 2.828 6.086-6.086z"></path>
</symbol>
<symbol id="icon-cross" viewBox="0 0 32 32">
<path d="M31.708 25.708c-0-0-0-0-0-0l-9.708-9.708 9.708-9.708c0-0 0-0 0-0 0.105-0.105 0.18-0.227 0.229-0.357 0.133-0.356 0.057-0.771-0.229-1.057l-4.586-4.586c-0.286-0.286-0.702-0.361-1.057-0.229-0.13 0.048-0.252 0.124-0.357 0.228 0 0-0 0-0 0l-9.708 9.708-9.708-9.708c-0-0-0-0-0-0-0.105-0.104-0.227-0.18-0.357-0.228-0.356-0.133-0.771-0.057-1.057 0.229l-4.586 4.586c-0.286 0.286-0.361 0.702-0.229 1.057 0.049 0.13 0.124 0.252 0.229 0.357 0 0 0 0 0 0l9.708 9.708-9.708 9.708c-0 0-0 0-0 0-0.104 0.105-0.18 0.227-0.229 0.357-0.133 0.355-0.057 0.771 0.229 1.057l4.586 4.586c0.286 0.286 0.702 0.361 1.057 0.229 0.13-0.049 0.252-0.124 0.357-0.229 0-0 0-0 0-0l9.708-9.708 9.708 9.708c0 0 0 0 0 0 0.105 0.105 0.227 0.18 0.357 0.229 0.356 0.133 0.771 0.057 1.057-0.229l4.586-4.586c0.286-0.286 0.362-0.702 0.229-1.057-0.049-0.13-0.124-0.252-0.229-0.357z"></path>
</symbol>
</defs>
</svg>
